# Blender 4.1.1
# www.blender.org
mtllib enemy.mtl
o tank
v -2.808507 -1.607127 -4.270649
v -4.191493 -1.607127 -4.270649
v -2.808507 -1.355566 -4.174330
v -4.191493 -1.858689 -4.174330
v -2.808507 -1.858689 -4.174330
v -2.808507 -2.323513 -3.425844
v -2.808507 -2.100582 -3.889074
v -2.808507 -1.355566 5.658581
v -2.808507 -2.871811 1.720070
v -2.808507 -2.005142 -4.162842
v -4.191493 -2.005142 -4.162842
v -2.808507 -0.890742 -3.425844
v -2.808507 -2.679274 -2.042823
v -2.808507 -0.342444 -0.235818
v -2.808507 -0.534981 -2.042823
v -2.808507 -0.415822 -1.176180
v -4.191493 -0.415822 -1.176180
v -4.191493 -0.342444 -0.235818
v -2.808507 -0.317667 0.742126
v -2.808507 -0.342444 1.720070
v -2.808507 -0.534981 3.527074
v -2.808507 -0.415822 2.660432
v -4.191493 -0.415822 2.660432
v -4.191493 -0.534981 3.527074
v -2.808507 -0.695342 4.286693
v -2.808507 -0.890742 4.910096
v -4.191493 -0.695342 4.286693
v -2.808507 -1.113672 5.373326
v -4.191493 -1.113672 5.373326
v -4.191493 -0.890742 4.910096
v -4.191493 -1.355566 5.658581
v -4.191493 -1.607126 5.754900
v -4.191493 -2.100583 5.373326
v -4.191493 -1.858688 5.658581
v -2.808507 -2.100580 5.373326
v -4.191493 -1.113672 -3.889074
v -2.808507 -2.247036 5.384814
v -4.191493 -2.323513 4.910096
v -4.191493 -2.247036 5.384814
v -4.191493 -2.518913 4.286693
v -4.191493 -2.798433 2.660432
v -4.191493 -2.798433 -1.176180
v -4.191493 -2.896587 0.742126
v -4.191493 -2.871811 -0.235818
v -2.808507 -2.798433 -1.176180
v -2.808507 -2.944886 -1.164692
v -4.191493 -2.944887 -1.164692
v -4.191493 -2.825728 -2.031335
v -4.191493 -2.518913 -2.802441
v -4.191493 -2.679274 -2.042823
v -4.191493 -2.100583 -3.889074
v -4.191493 -2.323513 -3.425844
v -2.808507 -2.247036 -3.877586
v -4.191493 -2.247036 -3.877586
v -4.191493 -2.469967 -3.414356
v -4.191493 -2.665367 -2.790953
v -2.808507 -2.469967 -3.414356
v -2.808507 -2.518913 -2.802441
v -2.808507 -2.665367 -2.790953
v -2.808507 -2.825728 -2.031335
v -2.808507 -2.871811 -0.235818
v -2.808507 -2.896587 0.742126
v -2.808507 -3.018264 -0.224330
v -4.191493 -3.018265 -0.224330
v -4.191493 -3.043041 0.753614
v -2.808507 -3.043041 0.753614
v -4.191493 -2.871811 1.720070
v -4.191493 -3.018265 1.731558
v -4.191493 -2.944887 2.671920
v -2.808507 -3.018264 1.731558
v -2.808507 -2.944886 2.671920
v -2.808507 -2.798433 2.660432
v -2.808507 -2.679274 3.527074
v -4.191493 -2.679274 3.527074
v -4.191493 -2.825728 3.538563
v -4.191493 -2.665367 4.298181
v -2.808507 -2.665367 4.298181
v -2.808507 -2.825728 3.538563
v -2.808507 -2.518913 4.286693
v -2.808507 -2.323513 4.910096
v -2.808507 -1.858688 5.658581
v -2.808507 -2.469965 4.921584
v -4.191493 -2.469965 4.921584
v -2.808507 -1.607126 5.754900
v -2.808507 -2.005141 5.670069
v -2.808507 -1.753581 5.766388
v -4.191493 -2.005141 5.670069
v -4.191493 -1.753581 5.766388
v -4.191493 -1.355566 -4.174330
v -2.808507 -1.113672 -3.889074
v -4.191493 -0.890742 -3.425844
v -4.191493 -0.695342 -2.802441
v -2.808507 -0.695342 -2.802441
v -4.191493 -0.534981 -2.042823
v -4.191493 -0.317668 0.742126
v -4.191493 -0.342444 1.720070
v -1.000000 -0.500000 1.556708
v 0.000000 0.500000 2.568896
v 0.000000 -0.500000 1.824320
v -1.723272 0.500000 1.000000
v -1.903312 -0.500000 0.000000
v 0.000000 -0.500000 0.000000
v 0.000000 -0.500000 -1.824320
v -0.684885 -0.500000 -1.556708
v 1.000000 -0.500000 1.556708
v 0.684885 -0.500000 -1.556708
v 1.903312 -0.500000 0.000000
v 1.946370 0.500000 -1.000000
v 1.723272 0.500000 1.000000
v 2.539518 0.500000 -0.000000
v 1.581621 1.500000 -0.000000
v 0.692223 1.500000 1.627977
v 1.000000 1.500000 -1.627977
v 0.000000 1.500000 -0.000000
v -0.692223 1.500000 1.627977
v -1.000000 1.500000 -1.627977
v 0.000000 1.500000 -1.824320
v 0.000000 1.500000 1.824320
v -1.581621 1.500000 -0.000000
v -1.946370 0.500000 -1.000000
v -2.539518 0.500000 -0.000000
v 0.000000 0.500000 -2.568896
v 0.000000 0.967110 1.679864
v 0.000000 0.967111 7.477360
v 0.058527 0.961345 1.679864
v -0.058527 0.961347 7.477360
v -0.058527 0.961345 1.679864
v 0.058527 0.372874 1.679864
v -0.294236 0.608583 1.679864
v -0.114805 0.944275 7.477360
v -0.114805 0.944274 1.679864
v -0.166671 0.916551 1.679864
v 0.166671 0.916551 1.679864
v -0.249441 0.833781 1.679864
v 0.294236 0.725637 1.679864
v 0.249441 0.833781 1.679864
v 0.277164 0.781916 7.477360
v 0.277164 0.781915 1.679864
v 0.294236 0.725639 7.477360
v 0.300000 0.667110 1.679864
v 0.300000 0.667111 7.477360
v 0.294236 0.608583 1.679864
v 0.249441 0.500439 1.679864
v 0.277164 0.552306 7.477360
v 0.277164 0.552305 1.679864
v 0.249441 0.500440 7.477360
v 0.212132 0.454978 1.679864
v 0.166671 0.417669 1.679864
v 0.114805 0.389946 1.679864
v 0.114805 0.389948 7.477360
v 0.212132 0.454979 7.477360
v 0.166671 0.417671 7.477360
v 0.181123 0.485989 7.477360
v 0.142307 0.454134 7.477360
v 0.142307 0.454132 2.841204
v 0.098023 0.430463 7.477360
v 0.098023 0.430462 2.841204
v 0.049972 0.415887 7.477360
v 0.049972 0.415885 2.841204
v 0.000000 0.410964 2.841204
v -0.098023 0.430462 2.841204
v -0.049972 0.415885 2.841204
v 0.000000 0.410965 7.477360
v 0.058527 0.372876 7.477360
v 0.000000 0.367111 7.477360
v -0.049972 0.415887 7.477360
v -0.058527 0.372876 7.477360
v -0.114805 0.389948 7.477360
v -0.058527 0.372874 1.679864
v -0.114805 0.389946 1.679864
v -0.166671 0.417669 1.679864
v -0.166671 0.417671 7.477360
v -0.212132 0.454978 1.679864
v -0.249441 0.500439 1.679864
v -0.212132 0.454979 7.477360
v -0.249441 0.500440 7.477360
v -0.277164 0.552305 1.679864
v -0.277164 0.552306 7.477360
v -0.212978 0.524804 7.477360
v -0.236648 0.569089 7.477360
v -0.251224 0.617140 7.477360
v -0.294236 0.608584 7.477360
v -0.300000 0.667110 1.679864
v -0.256146 0.667111 7.477360
v -0.300000 0.667111 7.477360
v -0.251224 0.717083 7.477360
v -0.294236 0.725637 1.679864
v -0.294236 0.725639 7.477360
v -0.236648 0.765134 7.477360
v -0.277164 0.781915 1.679864
v -0.277164 0.781916 7.477360
v -0.212978 0.809419 7.477360
v -0.249441 0.833783 7.477360
v -0.212132 0.879242 1.679864
v -0.212132 0.879243 7.477360
v -0.142307 0.880089 7.477360
v -0.181123 0.848234 7.477360
v -0.166671 0.916552 7.477360
v -0.098023 0.903759 7.477360
v -0.049972 0.918336 7.477360
v -0.049972 0.918334 2.841204
v -0.098023 0.903758 2.841204
v 0.000000 0.923256 2.841204
v -0.181123 0.848232 2.841204
v -0.142307 0.880087 2.841204
v 0.098023 0.903758 2.841204
v -0.236648 0.765132 2.841204
v -0.251224 0.717081 2.841204
v -0.212978 0.809417 2.841204
v -0.236648 0.569087 2.841204
v -0.256146 0.667110 2.841204
v -0.251224 0.617138 2.841204
v -0.181123 0.485987 2.841204
v -0.212978 0.524802 2.841204
v -0.142307 0.454134 7.477360
v -0.181123 0.485989 7.477360
v -0.142307 0.454132 2.841204
v -0.098023 0.430463 7.477360
v 0.236648 0.569087 2.841204
v 0.049972 0.918336 7.477360
v 0.098023 0.903759 7.477360
v 0.142307 0.880089 7.477360
v 0.142307 0.880087 2.841204
v 0.181123 0.848232 2.841204
v 0.236648 0.765132 2.841204
v 0.049972 0.918334 2.841204
v 0.000000 0.923257 7.477360
v 0.058527 0.961347 7.477360
v 0.114805 0.944275 7.477360
v 0.114805 0.944274 1.679864
v 0.166671 0.916552 7.477360
v 0.212132 0.879242 1.679864
v 0.181123 0.848234 7.477360
v 0.212132 0.879243 7.477360
v 0.212978 0.809419 7.477360
v 0.249441 0.833783 7.477360
v 0.212978 0.809417 2.841204
v 0.236648 0.765134 7.477360
v 0.251224 0.717083 7.477360
v 0.251224 0.717081 2.841204
v 0.256146 0.667110 2.841204
v 0.256146 0.667111 7.477360
v 0.251224 0.617138 2.841204
v 0.251224 0.617140 7.477360
v 0.236648 0.569089 7.477360
v 0.294236 0.608584 7.477360
v 0.212978 0.524804 7.477360
v 0.212978 0.524802 2.841204
v 0.181123 0.485987 2.841204
v 0.000000 0.367110 1.679864
v 2.610941 -1.014858 5.719051
v 2.610941 -1.014858 6.010481
v 2.610941 -1.335880 5.719051
v 2.610941 -1.637076 6.010481
v 2.610941 -1.637076 5.719051
v 2.610941 -1.014859 5.401760
v 2.610941 -1.216987 5.401760
v 2.225320 -1.335880 5.719051
v 2.225320 -1.014858 5.719051
v 2.610941 -1.216987 5.719051
v 2.225320 -1.216987 5.719051
v 2.225320 -1.216987 5.401760
v 2.225320 -1.014859 5.401760
v 2.225320 -0.403117 5.719051
v 2.225320 -0.403117 5.401760
v 2.225320 -1.014859 5.084469
v 2.225320 -1.131543 5.084469
v 2.610941 -1.131543 5.401760
v 2.225320 -1.131543 5.401760
v 2.610941 -1.131543 5.084469
v 2.610941 -1.014859 5.084469
v 2.610941 -1.014859 4.449886
v 2.225320 -1.014859 4.449886
v 2.610941 -1.192967 5.084469
v 3.087465 -1.014859 5.084469
v 3.087465 -1.192967 5.084469
v 2.610941 -1.351328 5.084469
v 3.087465 -1.351328 5.084469
v 2.610941 -1.351328 5.401760
v 3.087465 -1.351328 5.401760
v 3.087465 -1.014859 5.401760
v 3.563988 -1.014859 5.401760
v 3.563988 -1.014859 5.084469
v 2.610941 -1.637076 5.401760
v 3.087465 -1.637076 5.401760
v 3.087465 -1.637076 5.719051
v 3.563988 -1.637076 5.401760
v 4.040512 -1.014859 5.401760
v 4.040512 -1.637076 5.401760
v 3.563988 -1.637076 5.719051
v 4.040512 -1.637076 5.719051
v 3.563988 -1.637076 6.010481
v 3.087465 -1.637076 6.010481
v 3.087465 -1.014858 6.010481
v 3.563988 -0.401383 6.010481
v 3.087465 -0.401383 6.010481
v 3.563988 -1.014858 6.010481
v 4.040512 -0.401383 6.010481
v 4.040512 -1.014858 6.010481
v 4.040512 -1.637076 6.010481
v 4.517036 -1.637076 6.010481
v 4.517036 -1.637076 5.719051
v 4.517036 -1.014858 6.010481
v 4.517036 -1.014858 5.719051
v 4.517036 -1.637076 5.401760
v 4.517036 -1.014859 5.401760
v 4.517036 -1.367177 5.401760
v 4.517036 -1.367177 5.084469
v 4.517036 -0.401856 5.401760
v 4.517036 -1.014859 5.084469
v 4.517036 -0.403926 5.719051
v 4.040512 -0.065920 5.719051
v 4.517036 -0.401383 6.010481
v 3.563988 -0.065920 5.719051
v 4.040512 -0.065920 5.401760
v 3.563988 -0.065920 5.401760
v 3.087465 -0.065920 5.401760
v 3.087465 -0.065920 5.084469
v 3.563988 -0.065920 5.084469
v 3.087465 -0.065920 4.449886
v 4.040512 -0.065920 5.084469
v 3.563988 -0.065920 4.449886
v 4.040512 -0.065920 4.449886
v 3.563988 -0.065920 3.149762
v 3.087465 -0.065920 3.149762
v 3.087465 -0.065920 0.545336
v 2.610941 -0.065920 3.149762
v 2.610941 -0.065920 0.545336
v 2.225320 -0.403117 3.149762
v 2.225320 -0.403117 0.545336
v 2.610941 -0.065920 -2.041522
v 2.225320 -0.403118 -2.041522
v 3.087465 -0.065920 -2.041522
v 2.610941 -0.065920 -3.428187
v 2.610941 -0.065920 -4.063289
v 3.087465 -0.065920 -3.428187
v 2.225320 -0.403118 -3.428187
v 2.225320 -1.014860 -3.428187
v 2.225320 -1.014860 -4.063289
v 2.225320 -0.403118 -4.063289
v 2.610941 -0.065920 -4.345834
v 2.225320 -1.014860 -4.345834
v 2.225320 -0.403118 -4.345834
v 2.610941 -1.014860 -4.345834
v 2.610941 -1.014860 -4.628379
v 2.610941 -1.014860 -4.345834
v 2.610941 -1.774956 -4.345834
v 2.610941 -1.014860 -4.063289
v 2.610941 -1.232221 -4.345834
v 2.610941 -1.774956 -4.063289
v 2.225320 -1.232221 -4.345834
v 2.610941 -0.065920 -4.345834
v 2.610941 -0.422720 -4.628379
v 2.225320 -0.403118 -4.345834
v 2.225320 -1.014860 -4.345834
v 2.225320 -0.413199 -4.628379
v 2.225320 -1.014860 -4.628379
v 2.225320 -1.443768 -4.345834
v 2.225320 -1.443768 -4.628379
v 2.610941 -1.014860 -4.628379
v 2.610941 -1.443768 -4.628379
v 2.610941 -0.422720 -4.628379
v 3.087465 -0.065920 -4.345834
v 3.087465 -1.014860 -4.628379
v 3.087465 -0.422720 -4.628379
v 3.563988 -1.014860 -4.628379
v 3.563988 -0.422720 -4.628379
v 3.563988 -0.065920 -4.345834
v 4.040512 -0.065920 -4.345834
v 4.040512 -0.065920 -4.063289
v 3.563988 -0.065920 -4.063289
v 4.040512 -0.065920 -3.428187
v 3.087465 -0.065920 -4.063289
v 3.563988 -0.065920 -3.428187
v 4.040512 -0.065920 -2.041522
v 3.563988 -0.065920 -2.041522
v 4.040512 -0.065920 0.545336
v 3.563988 -0.065920 0.545336
v 4.040512 -0.065920 3.149762
v 4.517036 -0.290477 3.149762
v 4.517036 -0.282176 0.545336
v 4.517036 -1.014859 0.545336
v 4.517036 -0.401840 -2.041522
v 4.517036 -0.401841 -3.428187
v 4.517036 -1.014859 -2.041522
v 4.517036 -1.129014 -2.041522
v 4.517036 -1.014860 -3.428187
v 4.517036 -1.250701 -3.428187
v 4.517036 -1.250701 -2.041522
v 4.040512 -1.014859 -2.041522
v 4.040512 -1.129014 -2.041522
v 4.040512 -1.129014 0.545336
v 4.517036 -1.129014 0.545336
v 4.040512 -1.014859 0.545336
v 4.040512 -1.014859 3.149762
v 3.563988 -1.014859 0.545336
v 3.563988 -1.014859 3.149762
v 3.087465 -1.014859 3.149762
v 3.087465 -1.014859 4.449886
v 3.563988 -1.014859 4.449886
v 4.040512 -1.014859 4.449886
v 4.040512 -1.014859 5.084469
v 4.040512 -1.197878 5.084469
v 4.040512 -1.106985 4.449886
v 4.517036 -1.014859 4.449886
v 4.517036 -1.106985 4.449886
v 4.040512 -1.197878 4.449886
v 4.517036 -1.197878 4.449886
v 4.517036 -1.197878 5.084469
v 4.517036 -1.106985 3.149762
v 4.517036 -1.014859 3.149762
v 4.040512 -1.106985 3.149762
v 4.517036 -0.381687 4.449886
v 4.517036 -0.386895 5.084469
v 4.040512 -1.367177 5.084469
v 4.040512 -1.367177 5.401760
v 2.610941 -1.192967 4.449886
v 3.087465 -1.192967 4.449886
v 3.087465 -1.014859 0.545336
v 2.610941 -1.014859 3.149762
v 2.225320 -1.014859 3.149762
v 2.610941 -1.014859 0.545336
v 2.225320 -1.014859 0.545336
v 2.225320 -1.014859 -2.041522
v 2.610941 -1.014859 -2.041522
v 2.610941 -1.014860 -3.428187
v 3.087465 -1.014860 -3.428187
v 3.087465 -1.014859 -2.041522
v 3.563988 -1.014860 -3.428187
v 3.563988 -1.014859 -2.041522
v 4.040512 -1.014860 -3.428187
v 4.040512 -1.014860 -4.063289
v 4.040512 -1.448359 -3.428187
v 4.517036 -1.448359 -3.428187
v 4.040512 -1.250701 -3.428187
v 4.040512 -1.250701 -2.041522
v 4.517036 -1.448359 -4.063289
v 4.040512 -1.448359 -4.063289
v 4.517036 -1.014860 -4.063289
v 4.517036 -0.401841 -4.063289
v 4.517036 -0.401841 -4.345834
v 4.517036 -1.014860 -4.345834
v 4.517036 -1.774956 -4.063289
v 4.517036 -1.774956 -4.345834
v 4.517036 -1.774956 -4.628379
v 4.040512 -1.774956 -4.345834
v 4.040512 -1.774956 -4.063289
v 3.563988 -1.774956 -4.063289
v 3.563988 -1.014860 -4.063289
v 3.087465 -1.014860 -4.063289
v 3.087465 -1.774956 -4.063289
v 2.610941 -1.444854 -4.063289
v 3.087465 -1.444854 -4.063289
v 2.610941 -1.444854 -3.428187
v 3.087465 -1.444854 -3.428187
v 3.087465 -1.774956 -4.345834
v 3.563988 -1.774956 -4.345834
v 4.040512 -1.774956 -4.628379
v 3.563988 -1.774956 -4.628379
v 4.040512 -1.014860 -4.628379
v 3.087465 -1.774956 -4.628379
v 2.610941 -1.774956 -4.628379
v 4.040512 -0.422720 -4.628379
v 4.517036 -1.014860 -4.628379
v 4.517036 -0.412538 -4.628379
v 2.610941 -1.101476 -3.428187
v 2.610941 -1.101476 -4.063289
v 2.225320 -1.101476 -4.063289
v 2.225320 -1.101476 -3.428187
v 2.225320 -0.403117 4.449886
v 2.225320 -0.403117 5.084469
v 2.610941 -0.065920 4.449886
v 2.610941 -0.065920 5.084469
v 2.610941 -0.065920 5.401760
v 3.087465 -0.065920 5.719051
v 2.610941 -0.065920 5.719051
v 2.610941 -0.401383 6.010481
v 2.225320 -0.403117 6.010481
v 2.225320 -1.014858 6.010481
v 2.225320 -1.335880 6.010481
v 2.610941 -1.335880 6.010481
v 2.610941 -1.443768 -4.345834
v 2.225320 -1.232221 -4.063289
v 2.610941 -1.232221 -4.063289
v -2.611440 -1.014858 5.719051
v -2.611440 -1.014858 6.010481
v -2.611440 -1.335880 5.719051
v -2.611440 -1.637076 6.010481
v -2.611440 -1.637076 5.719051
v -2.611440 -1.014859 5.401760
v -2.611440 -1.216987 5.401760
v -2.226001 -1.335880 5.719051
v -2.226001 -1.014858 5.719051
v -2.611440 -1.216987 5.719051
v -2.226001 -1.216987 5.401760
v -2.226001 -1.216987 5.719051
v -2.226001 -1.014859 5.401760
v -2.226001 -0.403117 5.719051
v -2.226001 -0.403117 5.401760
v -2.226001 -1.014859 5.084469
v -2.226001 -1.131543 5.084469
v -2.611440 -1.131543 5.401760
v -2.226001 -1.131543 5.401760
v -2.611440 -1.131543 5.084469
v -2.611440 -1.014859 5.084469
v -2.611440 -1.014859 4.449886
v -2.226001 -1.014859 4.449886
v -2.611440 -1.192967 5.084469
v -3.087740 -1.014859 5.084469
v -3.087740 -1.192967 5.084469
v -2.611440 -1.351328 5.084469
v -3.087740 -1.351328 5.084469
v -2.611440 -1.351328 5.401760
v -3.087740 -1.351328 5.401760
v -3.087740 -1.014859 5.401760
v -3.564040 -1.014859 5.401760
v -3.087740 -1.637076 5.401760
v -2.611440 -1.637076 5.401760
v -3.564040 -1.014859 5.084469
v -3.564040 -1.014859 4.449886
v -4.040340 -1.014859 4.449886
v -4.040340 -1.014859 5.084469
v -4.516640 -1.014859 5.084469
v -4.040340 -1.197878 5.084469
v -4.516640 -1.197878 5.084469
v -4.040340 -1.014859 5.401760
v -4.040340 -1.367177 5.084469
v -4.040340 -1.367177 5.401760
v -4.516640 -1.367177 5.084469
v -4.516640 -1.014859 5.401760
v -4.516640 -1.367177 5.401760
v -4.516640 -0.403926 5.719051
v -4.516640 -0.401856 5.401760
v -4.040340 -1.637076 5.401760
v -4.516640 -1.637076 5.401760
v -4.516640 -1.014858 5.719051
v -4.516640 -1.637076 5.719051
v -4.516640 -1.014858 6.010481
v -4.516640 -1.637076 6.010481
v -4.516640 -0.401383 6.010481
v -4.040340 -1.014858 6.010481
v -4.040340 -0.401383 6.010481
v -3.564040 -1.014858 6.010481
v -4.040340 -1.637076 6.010481
v -3.564040 -1.637076 6.010481
v -4.040340 -1.637076 5.719051
v -3.564040 -1.637076 5.719051
v -3.087740 -1.637076 5.719051
v -3.087740 -1.637076 6.010481
v -3.564040 -1.637076 5.401760
v -3.087740 -1.014858 6.010481
v -3.087740 -0.401383 6.010481
v -3.564040 -0.401383 6.010481
v -3.087740 -0.065920 5.719051
v -3.564040 -0.065920 5.719051
v -3.564040 -0.065920 5.401760
v -4.040340 -0.065920 5.719051
v -3.087740 -0.065920 5.401760
v -2.611440 -0.065920 5.084469
v -3.087740 -0.065920 5.084469
v -2.611440 -0.065920 5.401760
v -2.611440 -0.065920 5.719051
v -2.611440 -0.401383 6.010481
v -2.226001 -0.403117 6.010481
v -2.226001 -1.014858 6.010481
v -2.611440 -1.335880 6.010481
v -2.226001 -1.335880 6.010481
v -2.611440 -0.065920 4.449886
v -3.087740 -0.065920 4.449886
v -3.564040 -0.065920 5.084469
v -3.564040 -0.065920 4.449886
v -4.040340 -0.065920 5.401760
v -4.040340 -0.065920 5.084469
v -4.516640 -0.386895 5.084469
v -4.516640 -0.381687 4.449886
v -4.040340 -0.065920 4.449886
v -4.516640 -0.290477 3.149762
v -4.040340 -0.065920 3.149762
v -3.564040 -0.065920 3.149762
v -3.087740 -0.065920 3.149762
v -3.087740 -0.065920 0.545336
v -3.564040 -0.065920 0.545336
v -4.040340 -0.065920 0.545336
v -3.564040 -0.065920 -2.041522
v -3.087740 -0.065920 -2.041522
v -2.611440 -0.065920 -2.041522
v -3.087740 -0.065920 -3.428187
v -2.611440 -0.065920 -3.428187
v -2.226001 -0.403118 -2.041522
v -2.611440 -0.065920 -4.063289
v -2.226001 -0.403118 -3.428187
v -2.226001 -1.014860 -3.428187
v -2.226001 -1.014860 -4.063289
v -2.226001 -0.403118 -4.063289
v -2.611440 -0.065920 -4.345834
v -2.226001 -0.403118 -4.345834
v -2.226001 -1.014860 -4.345834
v -2.611440 -1.014860 -4.345834
v -2.226001 -1.232221 -4.345834
v -2.226001 -1.232221 -4.063289
v -2.611440 -1.232221 -4.063289
v -2.611440 -1.014860 -4.063289
v -2.611440 -1.232221 -4.345834
v -2.611440 -1.101476 -4.063289
v -2.611440 -1.444854 -3.428187
v -2.226001 -1.101476 -4.063289
v -2.611440 -1.444854 -4.063289
v -3.087740 -1.014860 -4.063289
v -3.087740 -1.774956 -4.063289
v -2.611440 -1.774956 -4.063289
v -2.611440 -1.014860 -3.428187
v -2.611440 -1.101476 -3.428187
v -3.087740 -1.014860 -3.428187
v -3.087740 -1.444854 -3.428187
v -2.611440 -1.014859 -2.041522
v -2.611440 -1.014859 0.545336
v -2.226001 -1.014859 -2.041522
v -3.087740 -1.014859 -2.041522
v -3.564040 -1.014860 -3.428187
v -3.564040 -1.014859 -2.041522
v -3.087740 -1.014859 0.545336
v -2.611440 -1.014859 3.149762
v -3.564040 -1.014859 0.545336
v -3.087740 -1.014859 3.149762
v -3.564040 -1.014859 3.149762
v -3.087740 -1.014859 4.449886
v -2.611440 -1.192967 4.449886
v -3.087740 -1.192967 4.449886
v -4.040340 -1.014859 3.149762
v -4.040340 -1.014859 0.545336
v -4.516640 -1.014859 0.545336
v -4.040340 -1.014859 -2.041522
v -4.040340 -1.129014 0.545336
v -4.516640 -1.129014 0.545336
v -4.516640 -1.129014 -2.041522
v -4.516640 -1.014859 -2.041522
v -4.040340 -1.129014 -2.041522
v -4.516640 -0.401840 -2.041522
v -4.516640 -0.401841 -3.428187
v -4.516640 -1.014860 -3.428187
v -4.516640 -1.250701 -3.428187
v -4.516640 -1.250701 -2.041522
v -4.040340 -1.250701 -2.041522
v -4.040340 -1.014860 -3.428187
v -4.040340 -1.250701 -3.428187
v -4.040340 -1.448359 -3.428187
v -4.516640 -1.448359 -3.428187
v -4.040340 -1.014860 -4.063289
v -3.564040 -1.014860 -4.063289
v -4.040340 -1.774956 -4.063289
v -4.516640 -1.014860 -4.063289
v -4.516640 -1.774956 -4.063289
v -4.040340 -1.448359 -4.063289
v -4.516640 -1.448359 -4.063289
v -4.516640 -1.774956 -4.345834
v -4.040340 -1.774956 -4.345834
v -4.516640 -1.774956 -4.628379
v -4.516640 -1.014860 -4.345834
v -4.516640 -0.412538 -4.628379
v -4.516640 -0.401841 -4.345834
v -4.516640 -1.014860 -4.628379
v -4.040340 -0.422720 -4.628379
v -4.040340 -1.014860 -4.628379
v -4.040340 -1.774956 -4.628379
v -3.564040 -1.774956 -4.345834
v -3.564040 -1.774956 -4.628379
v -3.087740 -1.774956 -4.345834
v -3.564040 -1.014860 -4.628379
v -3.087740 -1.774956 -4.628379
v -2.611440 -1.774956 -4.628379
v -2.611440 -1.774956 -4.345834
v -3.087740 -1.014860 -4.628379
v -3.087740 -0.422720 -4.628379
v -2.611440 -1.014860 -4.628379
v -2.611440 -0.422720 -4.628379
v -3.087740 -0.065920 -4.345834
v -2.611440 -0.422720 -4.628379
v -2.611440 -1.014860 -4.628379
v -2.611440 -1.443768 -4.628379
v -2.226001 -1.443768 -4.628379
v -2.226001 -1.014860 -4.628379
v -2.611440 -1.014860 -4.345834
v -2.611440 -0.065920 -4.345834
v -2.226001 -1.014860 -4.345834
v -2.226001 -0.403118 -4.345834
v -2.611440 -1.443768 -4.345834
v -2.226001 -1.443768 -4.345834
v -2.226001 -0.413199 -4.628379
v -3.564040 -0.065920 -4.345834
v -3.564040 -0.065920 -4.063289
v -3.087740 -0.065920 -4.063289
v -3.564040 -0.065920 -3.428187
v -4.040340 -0.065920 -2.041522
v -4.040340 -0.065920 -3.428187
v -4.040340 -0.065920 -4.063289
v -4.516640 -0.401841 -4.063289
v -4.040340 -0.065920 -4.345834
v -3.564040 -0.422720 -4.628379
v -4.516640 -0.282176 0.545336
v -3.564040 -1.774956 -4.063289
v -4.516640 -1.014859 3.149762
v -4.040340 -1.106985 3.149762
v -4.516640 -1.106985 3.149762
v -4.516640 -1.014859 4.449886
v -4.040340 -1.197878 4.449886
v -4.516640 -1.197878 4.449886
v -4.516640 -1.106985 4.449886
v -4.040340 -1.106985 4.449886
v -2.226001 -1.014859 0.545336
v -2.226001 -1.014859 3.149762
v -2.226001 -0.403117 4.449886
v -2.226001 -0.403117 3.149762
v -2.226001 -0.403117 0.545336
v -2.611440 -0.065920 3.149762
v -2.611440 -0.065920 0.545336
v -2.226001 -0.403117 5.084469
v -3.087740 -1.444854 -4.063289
v -2.226001 -1.101476 -3.428187
v 4.191493 -1.607127 -4.270649
v 2.808508 -1.858689 -4.174330
v 2.808508 -1.607128 -4.270649
v 4.191493 -1.355566 -4.174330
v 4.191493 -1.858689 -4.174330
v 4.191493 -0.890742 -3.425845
v 4.191493 -1.355566 5.658582
v 4.191493 -0.342444 -0.235818
v 4.191493 -2.871811 1.720070
v 4.191493 -2.679274 -2.042823
v 2.808508 -2.005142 -4.162842
v 4.191493 -2.005142 -4.162842
v 4.191493 -2.323513 -3.425845
v 4.191493 -2.100583 -3.889075
v 2.808508 -2.323513 -3.425845
v 2.808508 -2.100583 -3.889075
v 4.191493 -2.247036 -3.877587
v 2.808508 -2.247036 -3.877587
v 2.808508 -1.113672 -3.889075
v 2.808508 -2.518914 -2.802442
v 2.808508 -2.798433 -1.176181
v 2.808508 -2.100583 5.373327
v 2.808508 -2.798433 2.660432
v 2.808508 -2.896587 0.742126
v 2.808508 -2.871811 -0.235818
v 4.191493 -2.871811 -0.235818
v 4.191493 -2.798433 -1.176181
v 4.191493 -2.944887 -1.164693
v 2.808508 -2.944887 -1.164693
v 2.808508 -2.825728 -2.031335
v 2.808508 -2.679275 -2.042823
v 4.191493 -2.518913 -2.802442
v 4.191493 -2.665367 -2.790953
v 4.191493 -2.469967 -3.414357
v 2.808508 -2.665367 -2.790953
v 2.808508 -2.469967 -3.414357
v 4.191493 -2.825728 -2.031335
v 2.808508 -3.018265 -0.224330
v 4.191493 -2.896587 0.742126
v 4.191493 -3.018265 -0.224330
v 2.808508 -3.043041 0.753614
v 4.191493 -3.043041 0.753614
v 2.808508 -2.871811 1.720070
v 2.808508 -3.018265 1.731558
v 2.808508 -2.944887 2.671920
v 4.191493 -3.018265 1.731558
v 4.191493 -2.798433 2.660432
v 4.191493 -2.944887 2.671920
v 4.191493 -2.679274 3.527075
v 2.808508 -2.679275 3.527075
v 2.808508 -2.518914 4.286693
v 2.808508 -2.665367 4.298181
v 2.808508 -2.825728 3.538563
v 4.191493 -2.825728 3.538563
v 4.191493 -2.665367 4.298181
v 4.191493 -2.518913 4.286693
v 4.191493 -2.323513 4.910097
v 4.191493 -2.100583 5.373327
v 2.808508 -2.323513 4.910097
v 2.808508 -2.469965 4.921585
v 4.191493 -2.469965 4.921585
v 4.191493 -2.247036 5.384815
v 4.191493 -1.858688 5.658582
v 2.808508 -1.858688 5.658582
v 4.191493 -1.607126 5.754901
v 4.191493 -1.753581 5.766389
v 4.191493 -2.005141 5.670070
v 2.808508 -2.005141 5.670070
v 2.808508 -1.753581 5.766389
v 2.808508 -1.607128 5.754901
v 2.808508 -1.355566 5.658582
v 2.808508 -1.113672 5.373327
v 4.191493 -0.890742 4.910097
v 2.808508 -0.695342 4.286693
v 2.808508 -0.890742 4.910097
v 4.191493 -1.113672 5.373327
v 2.808508 -0.415822 2.660432
v 4.191493 -0.534981 3.527075
v 4.191493 -0.342444 1.720070
v 2.808508 -0.534981 3.527075
v 4.191493 -0.415822 2.660432
v 2.808508 -0.342444 1.720070
v 2.808508 -0.317667 0.742126
v 2.808508 -0.415822 -1.176181
v 2.808508 -0.342444 -0.235818
v 4.191493 -0.415822 -1.176181
v 2.808508 -0.695342 -2.802442
v 2.808508 -0.534981 -2.042823
v 4.191493 -0.534981 -2.042823
v 4.191493 -0.695342 -2.802442
v 2.808508 -0.890742 -3.425845
v 4.191493 -0.317667 0.742126
v 4.191493 -0.695342 4.286693
v 2.808508 -2.247036 5.384815
v 2.808508 -1.355566 -4.174330
v 4.191493 -1.113672 -3.889075
v -2.826288 -2.327928 1.671969
v 2.826289 -2.327928 -2.306001
v 2.826289 -2.327928 1.671969
v -2.826288 -2.327928 -2.306001
v -2.826288 -1.928070 -3.519473
v -2.826288 -1.928070 3.790730
v 2.826289 -1.928070 3.790730
v 2.826289 -1.528212 4.661750
v 2.826289 -1.928070 -3.519473
v 2.826289 -1.528212 -3.920352
v -2.826288 -0.480230 -3.920352
v 2.826289 -0.480230 -3.920352
v -2.826288 -1.528212 -3.920352
v -2.826288 -1.528212 4.661750
v 2.826289 -0.480230 4.918484
v -2.826288 -0.480230 4.918484
vn -0.0000 -0.3576 -0.9339
vn -0.0000 0.3576 -0.9339
vn 1.0000 -0.0000 -0.0000
vn -0.0000 -0.0782 -0.9969
vn -0.0000 0.9970 -0.0778
vn -0.0000 0.9997 -0.0253
vn -0.0000 0.9907 0.1362
vn -0.0000 0.9784 0.2066
vn -0.0000 0.9542 0.2991
vn -0.0000 0.9011 0.4336
vn -1.0000 -0.0000 -0.0000
vn -0.0000 0.7627 0.6468
vn -0.0000 -0.7627 0.6468
vn -0.0000 0.0782 0.9969
vn -0.0000 -0.9970 -0.0778
vn -0.0000 -0.9011 -0.4336
vn -0.0000 -0.7627 -0.6468
vn -0.0000 -0.9542 -0.2991
vn -0.0000 -0.9784 -0.2066
vn -0.0000 -0.9907 -0.1362
vn -0.0000 -0.9997 -0.0253
vn -0.0000 -0.9997 0.0253
vn -0.0000 -0.9970 0.0778
vn -0.0000 -0.9907 0.1362
vn -0.0000 -0.9784 0.2066
vn -0.0000 -0.9542 0.2991
vn -0.0000 -0.9011 0.4336
vn -0.0000 -0.3576 0.9339
vn -0.0000 0.3576 0.9339
vn -0.0000 0.7627 -0.6468
vn -0.0000 0.9011 -0.4336
vn -0.0000 0.9784 -0.2066
vn -0.0000 0.9542 -0.2991
vn -0.0000 0.9907 -0.1362
vn -0.0000 0.9970 0.0778
vn -0.0000 0.9997 0.0253
vn -0.6713 -0.0750 0.7374
vn -0.2099 -0.5839 0.7842
vn -0.0000 -1.0000 -0.0000
vn -0.8173 -0.3271 0.4743
vn 0.7545 -0.4800 -0.4475
vn 0.6602 -0.5451 -0.5167
vn 0.6949 -0.4421 0.5672
vn 0.8173 -0.3271 0.4743
vn 0.6638 0.6359 -0.3937
vn 0.6221 0.5959 0.5078
vn 0.7787 0.5623 -0.2782
vn 0.7513 0.5169 0.4104
vn -0.0000 1.0000 -0.0000
vn -0.7513 0.5169 0.4104
vn -0.6221 0.5959 0.5078
vn -0.7787 0.5623 -0.2782
vn -0.6638 0.6359 -0.3937
vn -0.6949 -0.4421 0.5672
vn -0.7545 -0.4800 -0.4475
vn -0.6602 -0.5451 -0.5167
vn -0.5908 -0.3373 -0.7329
vn -0.6241 0.1044 -0.7743
vn 0.5908 -0.3373 -0.7329
vn 0.6241 0.1044 -0.7743
vn -0.2991 -0.5699 -0.7654
vn 0.2991 -0.5699 -0.7654
vn -0.1556 0.5899 -0.7923
vn 0.1556 0.5899 -0.7923
vn -0.2218 0.5823 0.7821
vn 0.2218 0.5823 0.7821
vn -0.6561 0.2239 0.7207
vn 0.6561 0.2239 0.7207
vn 0.6713 -0.0750 0.7374
vn 0.2099 -0.5839 0.7842
vn -0.0980 0.9952 -0.0000
vn 0.0980 0.9952 -0.0000
vn -0.0000 -0.0000 -1.0000
vn -0.2903 0.9569 -0.0000
vn 0.9569 0.2903 -0.0000
vn 0.9952 0.0980 -0.0000
vn 0.8819 -0.4714 -0.0000
vn 0.7730 -0.6344 -0.0000
vn 0.6344 -0.7730 -0.0000
vn 0.4714 -0.8819 -0.0000
vn -0.0000 -0.0000 1.0000
vn -0.6344 0.7730 -0.0000
vn -0.4714 0.8819 -0.0000
vn -0.0980 -0.9952 -0.0000
vn -0.2903 -0.9569 -0.0000
vn -0.4714 -0.8819 -0.0000
vn -0.6344 -0.7730 -0.0000
vn -0.7730 -0.6344 -0.0000
vn -0.8819 -0.4714 -0.0000
vn -0.9569 -0.2903 -0.0000
vn -0.9952 -0.0980 -0.0000
vn -0.9952 0.0980 -0.0000
vn -0.9569 0.2903 -0.0000
vn -0.8819 0.4714 -0.0000
vn -0.7730 0.6344 -0.0000
vn 0.2903 -0.9569 -0.0000
vn 0.9569 -0.2903 -0.0000
vn 0.0001 -0.0000 1.0000
vn -0.0001 -0.0000 1.0000
vn 0.9952 -0.0980 -0.0000
vn 0.8819 0.4714 -0.0000
vn 0.7730 0.6344 -0.0000
vn 0.6344 0.7730 -0.0000
vn 0.4714 0.8819 -0.0000
vn 0.2903 0.9569 -0.0000
vn 0.0980 -0.9952 -0.0000
vn 0.4218 0.5946 0.6845
vn 0.5766 0.8170 0.0008
vn 0.5783 0.8158 0.0045
vn 0.5785 0.8156 0.0053
vn -0.0000 1.0000 -0.0087
vn -0.0000 0.6558 0.7549
vn 0.5762 0.8173 -0.0000
vn -0.6583 0.7528 -0.0000
vn -0.0000 -0.0000 -0.0000
vn -0.0000 -0.9246 -0.3809
vn -0.0000 0.7221 0.6918
vn -0.4771 0.5456 -0.6890
vn 0.0247 0.9991 -0.0356
vn -0.0000 0.6208 -0.7840
vn -0.0000 -0.7222 -0.6917
vn -0.0000 0.9246 0.3809
vn 0.4263 0.9046 0.0029
vn 0.4263 0.9046 0.0013
vn 0.4264 0.9045 0.0004
vn 0.4263 0.9046 -0.0000
vn 0.4133 0.9106 -0.0000
vn 0.5758 0.8167 -0.0378
vn 0.5514 0.8322 0.0584
vn 0.5583 0.8296 0.0064
vn 0.5524 0.8336 -0.0000
vn 0.5537 0.8327 0.0037
vn 0.5586 0.8294 0.0013
vn 0.5758 0.8167 0.0385
vn 0.5587 0.8294 -0.0000
vn -0.0213 0.9991 -0.0378
vn 0.4009 0.5687 -0.7182
vn -0.4975 0.5689 0.6549
vn -0.0045 1.0000 -0.0000
vn -0.0000 -0.6558 -0.7549
vn -0.6584 -0.7526 -0.0000
vn -0.4976 -0.5688 -0.6548
vn -0.0045 -1.0000 -0.0000
vn 0.5587 -0.8293 -0.0014
vn 0.5538 -0.8326 -0.0036
vn 0.5588 -0.8293 -0.0000
vn 0.5583 -0.8296 -0.0065
vn 0.5526 -0.8335 -0.0000
vn 0.5516 -0.8321 -0.0584
vn 0.4262 -0.9046 -0.0004
vn 0.4264 -0.9045 -0.0013
vn 0.4264 -0.9045 -0.0000
vn -0.0000 -0.6208 0.7840
vn 0.0247 -0.9991 0.0356
vn -0.4773 -0.5455 0.6889
vn 0.5763 -0.8172 -0.0000
vn 0.5764 -0.8172 -0.0000
vn 0.4011 -0.5687 0.7181
vn 0.5759 -0.8166 0.0378
vn 0.4134 -0.9105 -0.0000
vn 0.4264 -0.9045 -0.0029
vn -0.0214 -0.9991 0.0378
vn 0.5759 -0.8166 -0.0385
vn 0.5767 -0.8170 -0.0007
vn 0.5784 -0.8157 -0.0045
vn 0.4219 -0.5946 -0.6844
vn 0.5787 -0.8155 -0.0053
vn -0.0000 -1.0000 0.0087
vn -0.0000 -0.9827 0.1854
vn -0.0000 -0.9088 0.4172
vn -0.0000 -0.7080 -0.7062
vn -0.0000 -0.2379 0.9713
vn -0.0000 -0.9498 -0.3130
vt 0.417932 0.220684
vt 0.344431 0.012430
vt 0.344431 0.171683
vt 0.417932 0.061431
vt 0.500589 0.584036
vt 0.409366 0.663446
vt 0.414127 0.577368
vt 0.463074 0.537876
vt 0.547879 0.396439
vt 0.462276 0.459428
vt 0.440103 0.400728
vt 0.890933 0.250367
vt 0.801043 0.248692
vt 0.878657 0.165871
vt 0.489224 0.301925
vt 0.609298 0.318009
vt 0.642838 0.347141
vt 0.647301 0.391322
vt 0.511740 0.497994
vt 0.593211 0.468385
vt 0.642359 0.476177
vt 0.613448 0.495787
vt 0.580309 0.520546
vt 0.637640 0.531741
vt 0.716485 0.492559
vt 0.574641 0.602488
vt 0.677797 0.595870
vt 0.726360 0.673759
vt 0.613115 0.676315
vt 0.583184 0.644979
vt 0.788201 0.588663
vt 0.762379 0.533036
vt 0.987867 0.276016
vt 0.888752 0.341251
vt 0.842128 0.291659
vt 0.808203 0.411401
vt 0.808187 0.326950
vt 0.713897 0.330788
vt 0.724264 0.409045
vt 0.683980 0.364743
vt 0.763524 0.453384
vt 0.539273 0.629484
vt 0.506980 0.660128
vt 0.016548 0.320284
vt 0.013429 0.320284
vt 0.013429 0.012705
vt 0.113271 0.320284
vt 0.110151 0.012705
vt 0.113271 0.012705
vt 0.342919 0.347076
vt 0.345125 0.344870
vt 0.347719 0.343137
vt 0.016548 0.012705
vt 0.353662 0.341335
vt 0.365319 0.344871
vt 0.367524 0.367271
vt 0.345124 0.369477
vt 0.339382 0.358733
vt 0.019668 0.320284
vt 0.019668 0.012705
vt 0.339991 0.352554
vt 0.341185 0.349670
vt 0.359842 0.341943
vt 0.362725 0.343138
vt 0.094551 0.320284
vt 0.091431 0.320284
vt 0.091431 0.012705
vt 0.094551 0.012705
vt 0.088310 0.320284
vt 0.367525 0.347078
vt 0.369259 0.349672
vt 0.088310 0.012705
vt 0.371061 0.355615
vt 0.370453 0.352554
vt 0.082071 0.320284
vt 0.078950 0.320284
vt 0.078950 0.012705
vt 0.082071 0.012705
vt 0.075830 0.012705
vt 0.371061 0.358735
vt 0.370452 0.361795
vt 0.075830 0.320284
vt 0.072711 0.012705
vt 0.369258 0.364677
vt 0.069590 0.320284
vt 0.069590 0.012705
vt 0.072711 0.320284
vt 0.036775 0.954701
vt 0.036748 0.953896
vt 0.037357 0.953727
vt 0.037559 0.954655
vt 0.037005 0.953020
vt 0.628965 0.021437
vt 0.036569 0.953311
vt 0.628845 0.022436
vt 0.628991 0.023548
vt 0.036241 0.952951
vt 0.629282 0.024502
vt 0.630288 0.025958
vt 0.629718 0.025308
vt 0.035771 0.952814
vt 0.035845 0.952297
vt 0.036498 0.952544
vt 0.035058 0.952273
vt 0.035165 0.952902
vt 0.034128 0.952491
vt 0.063350 0.320284
vt 0.060230 0.320284
vt 0.060230 0.012705
vt 0.057110 0.320284
vt 0.057110 0.012705
vt 0.053989 0.012705
vt 0.362724 0.371211
vt 0.359841 0.372405
vt 0.356781 0.373014
vt 0.053989 0.320284
vt 0.050870 0.012705
vt 0.353661 0.373013
vt 0.350600 0.372405
vt 0.050870 0.320284
vt 0.047750 0.320284
vt 0.047750 0.012705
vt 0.044629 0.012705
vt 0.347718 0.371210
vt 0.044629 0.320284
vt 0.041509 0.012705
vt 0.031436 0.955588
vt 0.030213 0.956855
vt 0.029156 0.955740
vt 0.030566 0.954562
vt 0.028872 0.958362
vt 0.041509 0.320284
vt 0.027616 0.957169
vt 0.038389 0.012705
vt 0.038389 0.320284
vt 0.027425 0.960111
vt 0.025983 0.958839
vt 0.025868 0.962105
vt 0.024248 0.960732
vt 0.035269 0.012705
vt 0.035269 0.320284
vt 0.024190 0.964352
vt 0.022377 0.962828
vt 0.032149 0.012705
vt 0.032149 0.320284
vt 0.022374 0.966896
vt 0.029028 0.012705
vt 0.029028 0.320284
vt 0.020255 0.965140
vt 0.025909 0.012705
vt 0.025909 0.320284
vt 0.017725 0.967859
vt 0.020480 0.969836
vt 0.018670 0.973344
vt 0.014692 0.971713
vt 0.022789 0.012705
vt 0.022789 0.320284
vt 0.017625 0.977386
vt 0.012125 0.978007
vt 0.018514 0.980902
vt 0.639699 0.020074
vt 0.639705 0.021346
vt 0.639665 0.018681
vt 0.639274 0.022647
vt 0.639560 0.015495
vt 0.638828 0.023794
vt 0.637996 0.025605
vt 0.636864 0.026346
vt 0.635797 0.026885
vt 0.638387 0.024785
vt 0.633812 0.027359
vt 0.634777 0.027221
vt 0.631837 0.027036
vt 0.632779 0.027294
vt 0.032553 0.954561
vt 0.631002 0.026589
vt 0.033550 0.953774
vt 0.034422 0.953222
vt 0.031880 0.953632
vt 0.033067 0.952943
vt 0.630268 0.017754
vt 0.634867 0.014758
vt 0.025115 0.977434
vt 0.639605 0.017162
vt 0.027531 0.974355
vt 0.029408 0.971370
vt 0.640367 0.012125
vt 0.638191 0.013351
vt 0.021902 0.980081
vt 0.013892 0.987875
vt 0.028245 0.980387
vt 0.023587 0.985246
vt 0.030463 0.976044
vt 0.110151 0.320284
vt 0.107032 0.320284
vt 0.107032 0.012705
vt 0.350602 0.341943
vt 0.103911 0.320284
vt 0.103911 0.012705
vt 0.031908 0.972556
vt 0.100791 0.012705
vt 0.100791 0.320284
vt 0.030968 0.968665
vt 0.033138 0.969665
vt 0.032319 0.966199
vt 0.034265 0.967093
vt 0.097671 0.012705
vt 0.097671 0.320284
vt 0.035248 0.964709
vt 0.636464 0.014086
vt 0.033477 0.963940
vt 0.036069 0.962515
vt 0.034455 0.961887
vt 0.633516 0.015599
vt 0.632299 0.016357
vt 0.035264 0.960042
vt 0.631217 0.017074
vt 0.035893 0.958391
vt 0.037188 0.958744
vt 0.036350 0.956948
vt 0.037478 0.957160
vt 0.085191 0.012705
vt 0.085191 0.320284
vt 0.036724 0.960537
vt 0.629663 0.019067
vt 0.036644 0.955721
vt 0.629233 0.020302
vt 0.037603 0.955806
vt 0.356782 0.341335
vt 0.339382 0.355613
vt 0.341185 0.364676
vt 0.339991 0.361794
vt 0.342918 0.367271
vt 0.365318 0.369478
vt 0.063350 0.012705
vt 0.066470 0.320284
vt 0.066470 0.012705
vt 0.137960 0.320284
vt 0.137960 0.012825
vt 0.214825 0.320284
vt 0.214825 0.012825
vt 0.241466 0.012825
vt 0.318331 0.012825
vt 0.241466 0.320284
vt 0.318331 0.320284
vt 0.205060 0.410120
vt 0.012462 0.410120
vt 0.158837 0.348488
vt 0.097205 0.394712
vt 0.074094 0.363897
vt 0.343719 0.205060
s 1
usemtl マテリアル.001
f 4/1/1 2/1/1 1/1/1
f 2/1/2 3/1/2 1/1/2
f 5/2/3 1/1/3 3/1/3
f 4/1/1 1/1/1 5/2/1
f 5/2/3 3/1/3 12/3/3
f 13/3/3 6/3/3 5/2/3
f 6/3/3 7/1/3 5/2/3
f 7/1/3 10/1/3 5/2/3
f 5/2/4 11/1/4 4/1/4
f 5/2/3 14/4/3 8/2/3
f 8/2/3 9/2/3 5/2/3
f 9/2/3 13/3/3 5/2/3
f 5/2/4 10/1/4 11/1/4
f 5/2/3 12/3/3 14/4/3
f 12/3/3 15/1/3 14/4/3
f 15/1/3 16/1/3 14/4/3
f 17/3/5 14/4/5 16/1/5
f 17/3/5 18/1/5 14/4/5
f 18/1/6 19/1/6 14/4/6
f 14/4/3 19/1/3 20/1/3
f 14/4/3 20/1/3 21/3/3
f 14/4/3 21/3/3 8/2/3
f 20/1/3 22/1/3 21/3/3
f 23/4/7 21/3/7 22/1/7
f 23/4/7 24/1/7 21/3/7
f 24/1/8 25/1/8 21/3/8
f 21/3/3 25/1/3 26/3/3
f 21/3/3 26/3/3 8/2/3
f 27/1/9 26/3/9 25/1/9
f 27/1/9 30/1/9 26/3/9
f 26/3/3 28/1/3 8/2/3
f 26/3/10 29/3/10 28/1/10
f 26/3/10 30/1/10 29/3/10
f 29/3/11 30/1/11 27/1/11
f 29/3/11 27/1/11 23/4/11
f 29/3/12 8/2/12 28/1/12
f 29/3/12 31/1/12 8/2/12
f 32/3/11 31/1/11 29/3/11
f 33/2/11 32/3/11 29/3/11
f 33/2/11 29/3/11 23/4/11
f 33/2/11 34/1/11 32/3/11
f 34/1/13 33/2/13 35/1/13
f 33/2/14 37/1/14 35/1/14
f 36/4/11 42/2/11 33/2/11
f 33/2/11 23/4/11 36/4/11
f 33/2/14 39/1/14 37/1/14
f 40/3/11 38/1/11 33/2/11
f 38/1/11 39/1/11 33/2/11
f 41/4/11 40/3/11 33/2/11
f 42/2/11 41/4/11 33/2/11
f 42/2/11 43/3/11 41/4/11
f 42/2/11 44/1/11 43/3/11
f 44/1/15 42/2/15 45/1/15
f 42/2/14 46/1/14 45/1/14
f 42/2/14 47/1/14 46/1/14
f 42/2/11 48/1/11 47/1/11
f 42/2/11 50/1/11 48/1/11
f 51/2/11 49/3/11 42/2/11
f 49/3/11 50/1/11 42/2/11
f 36/4/11 51/2/11 42/2/11
f 36/4/11 2/1/11 51/2/11
f 2/1/11 4/1/11 51/2/11
f 51/2/11 52/1/11 49/3/11
f 6/3/16 52/1/16 51/2/16
f 6/3/16 51/2/16 7/1/16
f 51/2/14 53/1/14 7/1/14
f 51/2/14 54/1/14 53/1/14
f 51/2/11 11/1/11 54/1/11
f 51/2/11 4/1/11 11/1/11
f 54/1/17 10/1/17 53/1/17
f 54/1/17 11/1/17 10/1/17
f 7/1/3 53/1/3 10/1/3
f 49/3/11 52/1/11 55/1/11
f 6/3/4 55/1/4 52/1/4
f 49/3/11 55/1/11 56/1/11
f 6/3/4 57/1/4 55/1/4
f 56/1/18 55/1/18 57/1/18
f 58/1/3 59/1/3 57/1/3
f 58/1/3 57/1/3 6/3/3
f 56/1/18 57/1/18 59/1/18
f 49/3/14 59/1/14 58/1/14
f 49/3/14 56/1/14 59/1/14
f 13/3/3 58/1/3 6/3/3
f 50/1/19 49/3/19 58/1/19
f 50/1/19 58/1/19 13/3/19
f 13/3/4 48/1/4 50/1/4
f 46/1/20 47/1/20 48/1/20
f 46/1/20 48/1/20 60/1/20
f 13/3/4 60/1/4 48/1/4
f 45/1/3 46/1/3 60/1/3
f 45/1/3 60/1/3 13/3/3
f 61/3/3 45/1/3 13/3/3
f 44/1/15 45/1/15 61/3/15
f 9/2/3 62/1/3 61/3/3
f 62/1/3 63/1/3 61/3/3
f 61/3/4 64/1/4 44/1/4
f 61/3/4 63/1/4 64/1/4
f 9/2/3 61/3/3 13/3/3
f 43/3/11 44/1/11 64/1/11
f 43/3/11 64/1/11 65/1/11
f 66/1/21 65/1/21 64/1/21
f 66/1/21 64/1/21 63/1/21
f 62/1/3 66/1/3 63/1/3
f 43/3/14 66/1/14 62/1/14
f 43/3/14 65/1/14 66/1/14
f 67/1/22 43/3/22 62/1/22
f 67/1/22 62/1/22 9/2/22
f 41/4/11 67/1/11 68/1/11
f 43/3/11 67/1/11 41/4/11
f 9/2/4 68/1/4 67/1/4
f 69/1/23 68/1/23 70/1/23
f 41/4/11 68/1/11 69/1/11
f 9/2/4 70/1/4 68/1/4
f 69/1/23 70/1/23 71/1/23
f 72/1/3 71/1/3 70/1/3
f 72/1/3 70/1/3 9/2/3
f 73/3/3 72/1/3 9/2/3
f 74/1/24 72/1/24 73/3/24
f 74/1/24 41/4/24 72/1/24
f 41/4/14 71/1/14 72/1/14
f 41/4/11 74/1/11 40/3/11
f 74/1/11 76/1/11 40/3/11
f 73/3/4 75/1/4 74/1/4
f 74/1/11 75/1/11 76/1/11
f 40/3/14 76/1/14 77/1/14
f 76/1/25 78/1/25 77/1/25
f 76/1/25 75/1/25 78/1/25
f 73/3/4 78/1/4 75/1/4
f 73/3/3 77/1/3 78/1/3
f 73/3/3 79/1/3 77/1/3
f 40/3/14 77/1/14 79/1/14
f 38/1/26 40/3/26 79/1/26
f 80/4/3 79/1/3 73/3/3
f 38/1/26 79/1/26 80/4/26
f 8/2/3 81/3/3 80/4/3
f 81/3/3 35/1/3 80/4/3
f 80/4/3 35/1/3 37/1/3
f 80/4/4 83/1/4 38/1/4
f 80/4/4 82/1/4 83/1/4
f 80/4/3 37/1/3 82/1/3
f 80/4/3 73/3/3 9/2/3
f 8/2/3 80/4/3 9/2/3
f 38/1/11 83/1/11 39/1/11
f 39/1/27 83/1/27 82/1/27
f 39/1/27 82/1/27 37/1/27
f 81/3/3 84/1/3 86/1/3
f 8/2/3 84/1/3 81/3/3
f 81/3/4 87/1/4 34/1/4
f 34/1/13 35/1/13 81/3/13
f 81/3/4 85/1/4 87/1/4
f 81/3/3 86/1/3 85/1/3
f 34/1/11 87/1/11 88/1/11
f 88/1/28 87/1/28 85/1/28
f 32/3/14 88/1/14 86/1/14
f 34/1/11 88/1/11 32/3/11
f 88/1/28 85/1/28 86/1/28
f 32/3/14 86/1/14 84/1/14
f 31/1/29 32/3/29 84/1/29
f 31/1/29 84/1/29 8/2/29
f 41/4/14 69/1/14 71/1/14
f 36/4/11 89/1/11 2/1/11
f 89/1/30 36/4/30 90/1/30
f 90/1/31 36/4/31 91/1/31
f 23/4/11 17/3/11 36/4/11
f 92/1/11 91/1/11 36/4/11
f 17/3/11 92/1/11 36/4/11
f 93/1/32 92/1/32 94/1/32
f 91/1/33 92/1/33 93/1/33
f 17/3/11 94/1/11 92/1/11
f 93/1/32 94/1/32 15/1/32
f 15/1/34 94/1/34 17/3/34
f 12/3/3 93/1/3 15/1/3
f 91/1/33 93/1/33 12/3/33
f 90/1/31 91/1/31 12/3/31
f 3/1/3 90/1/3 12/3/3
f 89/1/30 90/1/30 3/1/30
f 2/1/2 89/1/2 3/1/2
f 24/1/8 27/1/8 25/1/8
f 27/1/11 24/1/11 23/4/11
f 23/4/11 95/1/11 17/3/11
f 23/4/11 96/1/11 95/1/11
f 96/1/35 23/4/35 22/1/35
f 95/1/36 96/1/36 20/1/36
f 96/1/35 22/1/35 20/1/35
f 18/1/6 95/1/6 19/1/6
f 95/1/36 20/1/36 19/1/36
f 95/1/11 18/1/11 17/3/11
f 15/1/34 17/3/34 16/1/34
f 98/5/37 100/6/37 97/7/37
f 98/5/38 97/7/38 99/8/38
f 102/9/39 99/10/39 97/11/39
f 100/12/40 101/13/40 97/14/40
f 102/9/39 97/11/39 101/15/39
f 104/16/39 103/17/39 102/9/39
f 106/18/39 102/9/39 103/17/39
f 104/16/39 102/9/39 101/15/39
f 102/9/39 105/19/39 99/10/39
f 102/9/39 107/20/39 105/19/39
f 106/18/39 107/20/39 102/9/39
f 108/21/41 110/22/41 107/20/41
f 108/21/42 107/20/42 106/18/42
f 107/20/43 110/22/43 109/23/43
f 107/20/44 109/23/44 105/19/44
f 108/21/45 111/24/45 110/22/45
f 111/24/46 109/23/46 110/22/46
f 108/21/47 113/25/47 111/24/47
f 111/24/48 112/26/48 109/23/48
f 114/27/49 112/26/49 111/24/49
f 113/25/49 114/27/49 111/24/49
f 114/27/49 119/28/49 115/29/49
f 114/27/49 115/29/49 118/30/49
f 116/31/49 119/28/49 114/27/49
f 116/31/49 114/27/49 117/32/49
f 113/25/49 117/32/49 114/27/49
f 114/27/49 118/30/49 112/26/49
f 100/12/50 115/33/50 119/34/50
f 100/12/51 119/34/51 121/35/51
f 119/34/52 116/36/52 120/37/52
f 119/34/53 120/37/53 121/35/53
f 100/12/54 121/35/54 101/13/54
f 101/13/55 121/35/55 120/37/55
f 101/13/56 120/37/56 104/38/56
f 104/38/57 120/37/57 122/39/57
f 116/36/58 122/39/58 120/37/58
f 122/39/59 108/21/59 106/18/59
f 122/39/60 113/25/60 108/21/60
f 104/38/61 122/39/61 103/40/61
f 122/39/62 106/18/62 103/40/62
f 116/36/63 117/41/63 122/39/63
f 122/39/64 117/41/64 113/25/64
f 98/5/65 118/42/65 115/43/65
f 112/26/66 118/42/66 98/5/66
f 98/5/67 115/43/67 100/6/67
f 112/26/68 98/5/68 109/23/68
f 105/19/69 109/23/69 98/5/69
f 105/19/70 98/5/70 99/8/70
f 126/44/71 124/45/71 123/46/71
f 124/47/72 125/48/72 123/49/72
f 127/50/73 123/51/73 125/52/73
f 126/44/71 123/46/71 127/53/71
f 127/50/73 125/52/73 133/54/73
f 127/50/73 135/55/73 128/56/73
f 128/56/73 129/57/73 127/50/73
f 129/57/73 134/58/73 127/50/73
f 130/59/74 126/44/74 127/53/74
f 130/59/74 127/53/74 131/60/74
f 132/61/73 131/62/73 127/50/73
f 134/58/73 132/61/73 127/50/73
f 127/50/73 133/54/73 135/55/73
f 133/54/73 136/63/73 135/55/73
f 136/63/73 138/64/73 135/55/73
f 137/65/75 139/66/75 135/67/75
f 137/65/75 135/67/75 138/68/75
f 135/67/76 139/66/76 141/69/76
f 135/55/73 140/70/73 142/71/73
f 135/67/76 141/69/76 140/72/76
f 135/55/73 142/71/73 143/73/73
f 135/55/73 143/73/73 128/56/73
f 142/71/73 145/74/73 143/73/73
f 144/75/77 146/76/77 143/77/77
f 144/75/77 143/77/77 145/78/77
f 146/76/78 147/79/78 143/77/78
f 143/73/73 147/80/73 148/81/73
f 143/73/73 148/81/73 128/56/73
f 151/82/79 148/83/79 147/79/79
f 148/81/73 149/84/73 128/56/73
f 148/83/80 150/85/80 149/86/80
f 148/83/80 152/87/80 150/85/80
f 151/82/79 152/87/79 148/83/79
f 153/88/81 154/89/81 152/90/81
f 153/88/81 152/90/81 151/91/81
f 154/89/81 150/92/81 152/90/81
f 153/88/82 155/93/82 154/89/82
f 156/94/83 154/89/83 155/93/83
f 154/89/81 156/94/81 150/92/81
f 156/94/83 155/93/83 157/95/83
f 156/94/74 157/95/74 159/96/74
f 156/94/74 159/96/74 158/97/74
f 158/97/81 150/92/81 156/94/81
f 158/97/71 159/96/71 160/98/71
f 160/98/81 159/96/81 157/95/81
f 161/99/81 160/98/81 157/95/81
f 161/99/81 162/100/81 160/98/81
f 163/101/72 160/98/72 162/100/72
f 158/97/71 160/98/71 163/101/71
f 163/101/81 165/102/81 164/103/81
f 163/101/81 164/103/81 158/97/81
f 163/101/81 167/104/81 165/102/81
f 163/101/81 166/105/81 167/104/81
f 163/101/72 162/100/72 166/105/72
f 166/105/81 168/106/81 167/104/81
f 165/107/84 167/108/84 169/109/84
f 167/108/85 168/110/85 170/111/85
f 167/108/85 170/111/85 169/109/85
f 168/110/86 171/112/86 170/111/86
f 169/113/73 170/114/73 171/115/73
f 168/110/86 172/116/86 171/112/86
f 172/116/87 173/117/87 171/112/87
f 171/115/73 173/118/73 174/119/73
f 171/115/73 174/119/73 129/57/73
f 128/56/73 171/115/73 129/57/73
f 128/56/73 169/113/73 171/115/73
f 175/120/88 176/121/88 174/122/88
f 175/120/88 174/122/88 173/117/88
f 176/121/89 177/123/89 174/122/89
f 174/119/73 177/124/73 129/57/73
f 178/125/90 129/126/90 177/123/90
f 176/121/89 178/125/89 177/123/89
f 179/127/81 180/128/81 178/129/81
f 179/127/81 178/129/81 176/130/81
f 181/131/81 178/129/81 180/128/81
f 178/125/90 182/132/90 129/126/90
f 181/131/81 182/133/81 178/129/81
f 182/132/91 183/134/91 129/126/91
f 182/132/91 185/135/91 183/134/91
f 184/136/81 185/137/81 182/133/81
f 184/136/81 182/133/81 181/131/81
f 186/138/81 188/139/81 185/137/81
f 186/138/81 185/137/81 184/136/81
f 185/135/92 187/140/92 183/134/92
f 185/135/92 188/141/92 187/140/92
f 189/142/81 188/139/81 186/138/81
f 189/142/81 191/143/81 188/139/81
f 188/141/93 190/144/93 187/140/93
f 188/141/93 191/145/93 190/144/93
f 192/146/81 191/143/81 189/142/81
f 191/145/94 134/147/94 190/144/94
f 191/145/94 193/148/94 134/147/94
f 192/146/81 193/149/81 191/143/81
f 193/148/95 194/150/95 134/147/95
f 193/148/95 195/151/95 194/150/95
f 192/146/81 195/152/81 193/149/81
f 192/146/81 197/153/81 195/152/81
f 196/154/81 198/155/81 195/152/81
f 196/154/81 195/152/81 197/153/81
f 195/151/82 132/156/82 194/150/82
f 195/151/82 198/157/82 132/156/82
f 199/158/81 198/155/81 196/154/81
f 198/157/83 130/59/83 131/60/83
f 199/158/81 130/159/81 198/155/81
f 198/157/83 131/60/83 132/156/83
f 200/160/81 130/159/81 199/158/81
f 199/158/96 201/161/96 200/160/96
f 199/158/96 202/162/96 201/161/96
f 196/154/80 202/162/80 199/158/80
f 203/163/81 201/161/81 202/162/81
f 196/154/80 205/164/80 202/162/80
f 206/165/81 203/163/81 202/162/81
f 202/162/81 204/166/81 207/167/81
f 202/162/81 205/164/81 204/166/81
f 206/165/81 202/162/81 207/167/81
f 186/138/97 208/168/97 207/167/97
f 207/167/81 208/168/98 211/169/81
f 206/165/81 207/167/81 161/99/81
f 186/138/97 207/167/97 189/142/97
f 189/142/77 207/167/77 209/170/77
f 204/166/81 209/170/99 207/167/81
f 207/167/81 210/171/81 161/99/81
f 207/167/81 211/169/81 210/171/81
f 211/169/81 212/172/81 210/171/81
f 181/131/76 212/172/76 211/169/76
f 181/131/76 211/169/76 184/136/76
f 184/136/100 211/169/100 208/168/100
f 180/128/75 210/171/75 212/172/75
f 180/128/75 212/172/75 181/131/75
f 210/171/81 213/173/81 161/99/81
f 210/171/81 214/174/81 213/173/81
f 179/127/101 214/174/101 210/171/101
f 179/127/101 210/171/101 180/128/101
f 179/127/102 213/173/102 214/174/102
f 179/127/102 216/175/102 213/173/102
f 213/173/81 217/176/81 161/99/81
f 215/177/103 217/176/103 213/173/103
f 215/177/103 213/173/103 216/175/103
f 218/178/104 161/99/104 217/176/104
f 218/178/104 217/176/104 215/177/104
f 166/105/105 161/99/105 218/178/105
f 166/105/81 218/178/81 168/106/81
f 215/177/81 168/106/81 218/178/81
f 216/175/81 175/179/81 172/180/81
f 216/175/81 172/180/81 215/177/81
f 179/127/81 175/179/81 216/175/81
f 215/177/81 172/180/81 168/106/81
f 189/142/77 209/170/77 192/146/77
f 192/146/78 209/170/78 204/166/78
f 184/136/100 208/168/100 186/138/100
f 161/99/81 219/181/81 206/165/81
f 219/181/81 225/182/81 206/165/81
f 220/183/85 226/184/85 206/165/85
f 220/183/85 206/165/85 221/185/85
f 222/186/86 221/185/86 206/165/86
f 222/186/86 206/165/86 223/187/86
f 224/188/81 223/187/81 206/165/81
f 225/182/81 224/188/81 206/165/81
f 206/165/81 226/184/81 203/163/81
f 227/189/84 203/163/84 226/184/84
f 227/189/84 226/184/84 220/183/84
f 200/160/106 203/163/106 227/189/106
f 227/189/81 126/190/81 200/160/81
f 227/189/81 220/183/81 228/191/81
f 227/189/81 228/191/81 124/192/81
f 227/189/81 124/192/81 126/190/81
f 220/183/81 229/193/81 228/191/81
f 228/194/105 229/195/105 230/196/105
f 124/47/72 228/194/72 125/48/72
f 228/194/105 230/196/105 125/48/105
f 125/52/73 230/197/73 133/54/73
f 230/196/104 229/195/104 231/198/104
f 230/196/104 231/198/104 133/199/104
f 221/185/81 222/186/81 231/200/81
f 221/185/81 231/200/81 229/193/81
f 231/198/103 232/201/103 133/199/103
f 231/198/103 234/202/103 232/201/103
f 233/203/81 234/204/81 231/200/81
f 233/203/81 231/200/81 222/186/81
f 235/205/81 236/206/81 234/204/81
f 235/205/81 234/204/81 233/203/81
f 234/202/102 136/207/102 232/201/102
f 234/202/102 236/208/102 136/207/102
f 136/207/101 236/208/101 137/65/101
f 235/205/81 137/209/81 236/206/81
f 233/203/88 237/210/88 235/205/88
f 235/205/89 237/210/89 225/182/89
f 235/205/89 225/182/89 238/211/89
f 235/205/81 238/211/81 137/209/81
f 238/211/81 139/212/81 137/209/81
f 238/211/81 239/213/81 139/212/81
f 238/211/90 240/214/90 239/213/90
f 238/211/90 225/182/90 240/214/90
f 239/213/91 240/214/91 241/215/91
f 241/215/81 240/214/99 225/182/81
f 239/213/91 241/215/91 242/216/91
f 242/216/92 241/215/92 243/217/92
f 219/181/81 241/215/81 225/182/81
f 219/181/81 243/217/81 241/215/81
f 242/216/92 243/217/92 244/218/92
f 244/218/93 243/217/93 219/181/93
f 242/216/81 244/218/81 246/219/81
f 244/218/93 219/181/93 245/220/93
f 244/218/81 245/220/81 144/221/81
f 244/218/81 144/221/81 246/219/81
f 142/222/97 246/223/97 144/75/97
f 140/72/100 141/69/100 246/223/100
f 140/72/100 246/223/100 142/222/100
f 242/216/81 246/219/81 141/224/81
f 245/220/94 219/181/94 248/225/94
f 245/220/94 248/225/94 247/226/94
f 247/226/81 144/221/81 245/220/81
f 247/226/95 248/225/95 249/227/95
f 249/227/81 248/225/81 219/181/81
f 153/88/82 249/227/82 155/93/82
f 247/226/95 249/227/95 153/88/95
f 157/95/81 249/227/81 219/181/81
f 157/95/81 155/93/81 249/227/81
f 247/226/81 146/228/81 144/221/81
f 247/226/81 151/91/81 146/228/81
f 247/226/81 153/88/81 151/91/81
f 242/216/81 139/212/81 239/213/81
f 242/216/81 141/224/81 139/212/81
f 233/203/88 224/188/88 237/210/88
f 225/182/81 237/210/81 224/188/81
f 222/186/87 224/188/87 233/203/87
f 133/54/73 232/229/73 136/63/73
f 220/183/81 221/185/81 229/193/81
f 222/186/87 223/187/87 224/188/87
f 161/99/81 157/95/81 219/181/81
f 197/153/79 204/166/79 205/164/79
f 197/153/79 205/164/79 196/154/79
f 192/146/78 204/166/78 197/153/78
f 200/160/106 201/161/106 203/163/106
f 200/160/81 126/190/81 130/159/81
f 134/58/73 194/230/73 132/61/73
f 187/231/73 190/232/73 134/58/73
f 129/57/73 187/231/73 134/58/73
f 129/57/73 183/233/73 187/231/73
f 179/127/81 176/130/81 175/179/81
f 172/116/87 175/120/87 173/117/87
f 128/56/73 250/234/73 169/113/73
f 165/107/84 169/109/84 250/235/84
f 164/236/106 165/107/106 250/235/106
f 164/236/106 250/235/106 128/237/106
f 166/105/105 162/100/105 161/99/105
f 158/97/81 164/103/81 150/92/81
f 149/86/96 150/85/96 164/236/96
f 149/86/96 164/236/96 128/237/96
f 146/76/78 151/82/78 147/79/78
f 142/222/97 144/75/97 145/78/97
f 136/207/101 137/65/101 138/68/101
f 251/238/11 254/239/11 252/240/11
f 252/240/3 253/239/3 251/238/3
f 251/238/73 253/239/73 258/239/73
f 251/238/11 255/239/11 254/239/11
f 256/241/11 255/239/11 251/238/11
f 251/238/3 257/239/3 256/241/3
f 251/238/3 260/239/3 257/239/3
f 251/238/73 258/239/73 259/238/73
f 259/238/81 260/239/81 251/238/81
f 259/238/81 261/239/81 260/239/81
f 260/239/39 262/239/39 257/239/39
f 260/239/39 261/239/39 262/239/39
f 256/241/73 257/239/73 262/239/73
f 263/240/11 262/239/11 261/239/11
f 256/241/73 262/239/73 263/240/73
f 264/238/11 263/240/11 259/238/11
f 263/240/11 261/239/11 259/238/11
f 263/240/81 268/239/81 256/241/81
f 264/238/11 265/239/11 263/240/11
f 265/239/11 266/239/11 263/240/11
f 263/240/11 266/239/11 267/239/11
f 263/240/11 267/239/11 269/239/11
f 263/240/81 269/239/81 268/239/81
f 268/239/39 269/239/39 267/239/39
f 268/239/39 267/239/39 270/239/39
f 256/241/3 268/239/3 270/239/3
f 271/240/73 270/239/73 267/239/73
f 256/241/3 270/239/3 271/240/3
f 271/240/73 267/239/73 266/239/73
f 271/240/39 266/239/39 273/239/39
f 256/241/11 271/240/11 277/239/11
f 272/238/11 274/239/11 271/240/11
f 271/240/39 273/239/39 272/238/39
f 271/240/81 274/239/81 276/239/81
f 275/238/73 277/239/73 271/240/73
f 271/240/81 276/239/81 275/238/81
f 275/238/73 278/239/73 277/239/73
f 278/239/39 279/239/39 277/239/39
f 256/241/11 277/239/11 279/239/11
f 278/239/39 280/239/39 279/239/39
f 256/241/81 279/239/81 280/239/81
f 281/238/3 280/239/3 278/239/3
f 256/241/81 280/239/81 281/238/81
f 281/238/3 278/239/3 275/238/3
f 283/239/39 281/238/39 275/238/39
f 282/239/73 285/239/73 281/238/73
f 283/239/39 282/239/39 281/238/39
f 281/238/73 284/239/73 256/241/73
f 281/238/73 285/239/73 284/239/73
f 282/239/73 287/239/73 285/239/73
f 285/239/39 286/239/39 255/239/39
f 285/239/39 255/239/39 284/239/39
f 287/239/39 286/239/39 285/239/39
f 288/238/73 287/239/73 282/239/73
f 288/238/73 289/239/73 287/239/73
f 287/239/39 290/239/39 286/239/39
f 289/239/39 290/239/39 287/239/39
f 290/239/39 293/239/39 286/239/39
f 289/239/39 291/239/39 290/239/39
f 291/239/39 292/239/39 290/239/39
f 290/239/39 292/239/39 293/239/39
f 294/239/81 293/239/81 292/239/81
f 252/240/81 293/239/81 294/239/81
f 252/240/81 254/239/81 293/239/81
f 286/239/39 293/239/39 254/239/39
f 294/239/81 292/239/81 297/239/81
f 295/239/81 294/239/81 297/239/81
f 295/239/81 296/239/81 294/239/81
f 296/239/81 252/240/81 294/239/81
f 297/239/81 292/239/81 300/239/81
f 298/238/81 295/239/81 297/239/81
f 298/238/81 297/239/81 299/239/81
f 297/239/81 300/239/81 299/239/81
f 291/239/39 300/239/39 292/239/39
f 299/239/81 300/239/81 301/239/81
f 302/239/39 301/239/39 300/239/39
f 302/239/39 300/239/39 291/239/39
f 303/239/3 302/239/3 304/239/3
f 303/239/3 301/239/3 302/239/3
f 304/239/3 302/239/3 305/239/3
f 305/239/39 302/239/39 291/239/39
f 306/238/73 305/239/73 289/239/73
f 304/239/3 305/239/3 306/238/3
f 305/239/39 291/239/39 289/239/39
f 306/238/73 289/239/73 288/238/73
f 288/238/81 307/239/81 306/238/81
f 306/238/3 307/239/3 308/239/3
f 306/238/3 308/239/3 310/238/3
f 306/238/3 311/238/3 304/239/3
f 306/238/3 309/239/3 311/238/3
f 310/238/3 309/239/3 306/238/3
f 311/238/107 312/239/107 298/238/107
f 309/239/108 312/239/109 311/238/110
f 311/238/3 303/239/3 304/239/3
f 311/238/3 313/239/3 303/239/3
f 311/238/111 298/238/111 313/239/111
f 313/239/81 299/239/81 303/239/81
f 313/239/81 298/238/81 299/239/81
f 314/239/112 298/238/112 312/239/112
f 316/239/49 314/239/49 312/239/49
f 309/239/108 315/239/113 312/239/109
f 316/239/49 312/239/49 315/239/49
f 317/239/49 314/239/49 316/239/49
f 318/239/49 317/239/49 316/239/49
f 318/239/49 316/239/49 319/239/49
f 319/239/49 316/239/49 315/239/49
f 320/239/49 318/239/49 319/239/49
f 320/239/49 319/239/49 322/239/49
f 319/239/49 315/239/49 321/239/49
f 322/239/49 319/239/49 321/239/49
f 322/239/49 321/239/49 323/239/49
f 324/239/49 322/239/49 323/239/49
f 325/239/49 322/239/49 324/239/49
f 325/239/49 320/239/49 322/239/49
f 328/239/49 325/239/49 326/239/49
f 326/239/49 325/239/49 324/239/49
f 327/239/49 320/239/49 325/239/49
f 328/239/49 327/239/49 325/239/49
f 328/239/114 329/239/114 327/239/114
f 328/239/114 330/239/114 329/239/114
f 331/239/114 330/239/114 328/239/114
f 331/239/49 328/239/49 326/239/49
f 331/239/114 332/239/114 330/239/114
f 334/239/114 332/239/114 331/239/114
f 331/239/49 326/239/49 333/239/49
f 334/239/49 331/239/49 333/239/49
f 334/239/49 333/239/49 336/239/49
f 335/239/114 337/239/114 334/239/114
f 335/239/49 334/239/49 336/239/49
f 334/239/114 337/239/114 332/239/114
f 335/239/114 340/239/114 337/239/114
f 332/239/11 337/239/11 338/238/11
f 337/239/11 339/238/11 338/238/11
f 337/239/11 340/239/11 339/238/11
f 341/238/114 343/239/114 340/239/114
f 341/238/114 340/239/114 335/239/114
f 340/239/11 343/239/11 342/239/11
f 340/239/11 342/239/11 339/238/11
f 344/240/73 342/239/73 343/239/73
f 344/240/73 343/239/73 341/238/73
f 345/238/11 347/239/11 344/240/11
s 0
f 345/238/115 344/240/115 346/238/115
f 344/240/81 352/239/81 346/238/81
s 1
f 344/240/11 347/239/11 350/239/11
f 344/240/11 350/239/11 348/241/11
f 348/241/3 349/239/3 344/240/3
f 344/240/73 349/239/73 351/239/73
f 344/240/73 351/239/73 342/239/73
s 0
f 344/240/81 341/238/81 352/239/81
f 341/238/116 353/238/117 352/239/81
s 1
f 353/238/118 354/239/118 352/239/118
f 346/238/81 352/239/81 354/239/81
f 353/238/119 356/239/119 354/239/119
f 355/239/11 354/239/11 356/239/11
f 346/238/81 354/239/81 355/239/81
f 353/238/73 357/239/73 356/239/73
f 355/239/11 356/239/11 357/239/11
f 357/239/11 358/239/11 355/239/11
f 357/239/11 359/239/11 358/239/11
f 353/238/73 360/238/73 357/239/73
f 360/238/73 359/239/73 357/239/73
s 0
f 362/238/81 360/238/81 353/238/81
f 362/238/81 345/238/81 360/238/81
f 345/238/115 346/238/115 360/238/115
s 1
f 360/238/73 361/239/73 359/239/73
f 346/238/3 361/239/3 360/238/3
f 362/238/120 341/238/120 363/239/120
s 0
f 341/238/121 362/238/81 353/238/122
s 1
f 362/238/120 363/239/120 365/239/120
f 362/238/73 364/239/73 345/238/73
f 362/238/73 365/239/73 364/239/73
f 365/239/73 367/239/73 366/239/73
f 365/239/73 366/239/73 364/239/73
f 365/239/120 368/239/120 367/239/120
f 365/239/120 363/239/120 368/239/120
f 367/239/120 368/239/120 369/239/120
f 368/239/49 370/239/49 369/239/49
f 368/239/49 371/239/49 370/239/49
f 363/239/49 371/239/49 368/239/49
f 371/239/49 372/239/49 370/239/49
f 371/239/49 374/239/49 372/239/49
f 363/239/49 373/239/49 371/239/49
f 373/239/49 374/239/49 371/239/49
f 374/239/49 375/239/49 372/239/49
f 374/239/49 376/239/49 375/239/49
f 373/239/49 336/239/49 374/239/49
f 336/239/49 376/239/49 374/239/49
f 376/239/49 377/239/49 375/239/49
f 376/239/49 378/239/49 377/239/49
f 336/239/49 333/239/49 376/239/49
f 333/239/49 378/239/49 376/239/49
f 326/239/49 324/239/49 378/239/49
f 378/239/49 324/239/49 379/239/49
f 378/239/49 379/239/49 377/239/49
f 333/239/49 326/239/49 378/239/49
f 381/239/123 379/239/124 380/239/125
f 380/239/125 379/239/124 323/239/126
f 324/239/49 323/239/49 379/239/49
f 381/239/127 377/239/127 379/239/127
f 375/239/127 377/239/127 381/239/127
f 383/239/3 381/239/3 382/238/3
f 382/238/3 381/239/3 380/239/3
f 375/239/128 381/239/128 383/239/128
f 383/239/3 382/238/3 385/238/3
f 372/239/113 375/239/113 383/239/113
f 372/239/113 383/239/113 384/239/113
f 384/239/3 383/239/3 385/238/3
f 382/238/3 386/239/3 385/238/3
f 384/239/3 385/238/3 387/238/3
f 385/238/73 386/239/73 391/239/73
f 385/238/3 388/239/3 387/238/3
f 385/238/3 389/239/3 388/239/3
f 390/238/81 389/239/81 385/238/81
f 385/238/73 391/239/73 390/238/73
f 390/238/11 391/239/11 392/239/11
f 386/239/39 392/239/39 391/239/39
f 390/238/11 392/239/11 394/238/11
f 386/239/39 393/239/39 392/239/39
f 394/238/81 392/239/81 393/239/81
f 382/238/39 395/238/39 394/238/39
f 394/238/81 393/239/81 382/238/81
f 394/238/39 395/238/39 397/239/39
f 390/238/39 394/238/39 396/239/39
f 394/238/39 397/239/39 396/239/39
f 396/239/39 397/239/39 398/239/39
f 395/238/39 400/239/39 397/239/39
f 397/239/39 399/238/39 398/239/39
f 397/239/39 400/239/39 399/238/39
f 400/239/39 283/239/39 275/238/39
f 400/239/39 275/238/39 399/238/39
f 401/238/39 283/239/39 400/239/39
f 395/238/39 401/238/39 400/239/39
f 401/238/39 402/238/39 283/239/39
f 401/238/11 403/239/11 402/238/11
f 401/238/11 407/239/11 403/239/11
f 395/238/11 404/239/11 401/238/11
f 401/238/81 404/239/81 406/239/81
f 405/238/73 407/239/73 401/238/73
f 401/238/81 406/239/81 405/238/81
f 405/238/73 408/239/73 407/239/73
f 408/239/39 403/239/39 407/239/39
f 310/238/3 408/239/3 405/238/3
f 408/239/39 409/239/39 403/239/39
f 310/238/3 409/239/3 408/239/3
f 402/238/81 403/239/81 409/239/81
f 402/238/81 409/239/81 310/238/81
f 405/238/3 406/239/3 410/239/3
f 410/239/39 406/239/39 404/239/39
f 405/238/3 410/239/3 411/238/3
f 410/239/39 404/239/39 412/239/39
f 411/238/73 410/239/73 412/239/73
f 395/238/11 412/239/11 404/239/11
f 411/238/73 412/239/73 395/238/73
f 382/238/39 411/238/39 395/238/39
f 411/238/3 413/239/3 405/238/3
f 382/238/3 380/239/3 411/238/3
f 411/238/3 380/239/3 413/239/3
f 380/239/129 323/239/129 413/239/129
f 405/238/3 413/239/3 414/239/3
f 413/239/130 323/239/131 321/239/132
f 413/239/130 321/239/132 414/239/133
f 414/239/134 315/239/134 309/239/134
f 414/239/133 321/239/132 315/239/135
f 310/238/3 414/239/3 309/239/3
f 405/238/3 414/239/3 310/238/3
f 310/238/73 415/239/73 402/238/73
f 288/238/11 402/238/11 415/239/11
f 402/238/39 288/238/39 282/239/39
f 402/238/39 282/239/39 283/239/39
f 288/238/11 415/239/11 416/239/11
f 310/238/73 308/239/73 415/239/73
f 308/239/39 416/239/39 415/239/39
f 288/238/81 416/239/81 307/239/81
f 308/239/39 307/239/39 416/239/39
f 275/238/3 418/239/3 399/238/3
f 398/239/39 399/238/39 272/238/39
f 399/238/73 418/239/73 417/239/73
f 399/238/73 417/239/73 272/238/73
f 275/238/3 276/239/3 418/239/3
f 418/239/39 276/239/39 274/239/39
f 418/239/39 274/239/39 417/239/39
f 272/238/11 417/239/11 274/239/11
f 396/239/39 398/239/39 419/239/39
f 419/239/39 398/239/39 420/239/39
f 398/239/39 272/238/39 420/239/39
f 272/238/39 421/239/39 420/239/39
f 420/239/39 421/239/39 423/239/39
f 419/239/39 420/239/39 422/239/39
f 420/239/39 423/239/39 422/239/39
f 422/239/39 423/239/39 424/239/39
f 330/239/11 424/239/11 423/239/11
f 329/239/11 330/239/11 423/239/11
f 329/239/11 423/239/11 421/239/11
f 422/239/39 424/239/39 425/239/39
f 330/239/11 332/239/11 424/239/11
f 332/239/11 338/238/11 424/239/11
f 425/239/39 424/239/39 338/238/39
f 428/239/39 422/239/39 425/239/39
f 425/239/39 338/238/39 426/238/39
f 427/238/39 425/239/39 426/238/39
f 427/238/39 428/239/39 425/239/39
f 428/239/39 419/239/39 422/239/39
f 429/239/39 428/239/39 427/238/39
f 429/239/39 430/239/39 428/239/39
f 430/239/39 419/239/39 428/239/39
f 390/238/39 396/239/39 430/239/39
f 430/239/39 396/239/39 419/239/39
f 431/238/39 390/238/39 430/239/39
f 431/238/39 430/239/39 429/239/39
f 431/238/11 436/239/11 390/238/11
f 432/238/39 431/238/39 429/239/39
f 432/238/11 433/239/11 431/238/11
f 431/238/81 433/239/81 434/239/81
f 431/238/81 434/239/81 387/238/81
f 431/238/11 435/239/11 436/239/11
f 387/238/73 435/239/73 431/238/73
f 388/239/39 389/239/39 436/239/39
f 388/239/39 436/239/39 435/239/39
f 390/238/81 436/239/81 389/239/81
f 387/238/73 388/239/73 435/239/73
f 437/239/39 434/239/39 433/239/39
f 387/238/3 434/239/3 437/239/3
f 437/239/39 433/239/39 438/239/39
f 439/238/73 437/239/73 438/239/73
f 387/238/3 437/239/3 439/238/3
f 441/239/3 440/239/3 439/238/3
f 440/239/3 387/238/3 439/238/3
f 441/239/3 439/238/3 442/239/3
f 439/238/3 444/239/3 442/239/3
f 432/238/81 443/239/81 439/238/81
f 439/238/73 438/239/73 432/238/73
f 439/238/3 443/239/3 444/239/3
f 445/239/39 444/239/39 446/239/39
f 442/239/3 444/239/3 445/239/3
f 444/239/39 447/239/39 446/239/39
f 444/239/39 443/239/39 447/239/39
f 446/239/39 447/239/39 448/239/39
f 449/239/81 448/239/81 447/239/81
f 449/239/81 447/239/81 432/238/81
f 432/238/81 447/239/81 443/239/81
f 449/239/39 427/238/39 450/238/39
f 450/238/81 448/239/81 449/239/81
f 449/239/39 429/239/39 427/238/39
f 432/238/39 429/239/39 449/239/39
f 348/241/81 451/239/81 450/238/81
f 450/238/81 451/239/81 448/239/81
f 427/238/3 453/239/3 450/238/3
f 450/238/73 452/239/73 348/241/73
f 450/238/73 453/239/73 452/239/73
f 453/239/39 454/239/39 452/239/39
f 453/239/39 455/239/39 454/239/39
f 427/238/3 455/239/3 453/239/3
f 426/238/81 454/239/81 455/239/81
f 426/238/81 455/239/81 427/238/81
f 348/241/11 454/239/11 426/238/11
f 348/241/11 452/239/11 454/239/11
f 348/241/81 350/239/81 451/239/81
f 456/239/39 451/239/39 350/239/39
f 457/239/39 451/239/39 456/239/39
f 457/239/39 448/239/39 451/239/39
f 458/239/39 457/239/39 459/239/39
f 458/239/39 446/239/39 457/239/39
f 446/239/39 448/239/39 457/239/39
f 459/239/39 457/239/39 456/239/39
f 460/239/73 459/239/73 366/239/73
f 366/239/73 459/239/73 461/239/73
f 460/239/73 458/239/73 459/239/73
f 459/239/39 456/239/39 461/239/39
f 461/239/39 456/239/39 347/239/39
f 364/239/73 461/239/73 462/239/73
f 461/239/39 347/239/39 462/239/39
f 366/239/73 461/239/73 364/239/73
f 364/239/73 462/239/73 345/238/73
f 345/238/11 462/239/11 347/239/11
f 464/239/73 458/239/73 460/239/73
f 367/239/73 460/239/73 366/239/73
f 367/239/73 463/239/73 460/239/73
f 463/239/73 464/239/73 460/239/73
f 463/239/73 465/239/73 464/239/73
f 442/239/3 445/239/3 464/239/3
f 465/239/3 442/239/3 464/239/3
f 464/239/73 445/239/73 458/239/73
f 465/239/3 441/239/3 442/239/3
f 463/239/136 441/239/136 465/239/136
f 367/239/120 369/239/120 463/239/120
f 463/239/137 369/239/137 441/239/137
f 445/239/39 446/239/39 458/239/39
f 456/239/39 350/239/39 347/239/39
f 369/239/113 440/239/113 441/239/113
f 369/239/113 370/239/113 440/239/113
f 370/239/113 384/239/113 440/239/113
f 440/239/3 384/239/3 387/238/3
f 432/238/11 438/239/11 433/239/11
f 426/238/3 466/239/3 467/239/3
f 338/238/81 466/239/81 426/238/81
f 426/238/3 467/239/3 348/241/3
f 466/239/39 468/239/39 467/239/39
f 348/241/73 467/239/73 468/239/73
f 466/239/39 469/239/39 468/239/39
f 348/241/73 468/239/73 339/238/73
f 339/238/11 468/239/11 469/239/11
f 338/238/81 469/239/81 466/239/81
f 339/238/11 469/239/11 338/238/11
f 470/239/11 421/239/11 273/239/11
f 272/238/39 273/239/39 421/239/39
f 470/239/11 329/239/11 421/239/11
f 471/239/11 470/239/11 273/239/11
f 472/239/114 470/239/114 471/239/114
f 327/239/114 470/239/114 472/239/114
f 327/239/114 329/239/114 470/239/114
f 472/239/49 473/239/49 318/239/49
f 472/239/114 471/239/114 473/239/114
f 472/239/49 318/239/49 320/239/49
f 327/239/49 472/239/49 320/239/49
f 473/239/49 317/239/49 318/239/49
f 473/239/49 474/239/49 317/239/49
f 473/239/114 265/239/114 474/239/114
f 473/239/114 471/239/114 265/239/114
f 474/239/114 265/239/114 264/238/114
f 474/239/114 264/238/114 476/239/114
f 474/239/49 475/239/49 317/239/49
f 474/239/49 476/239/49 475/239/49
f 477/239/138 476/239/138 264/238/138
f 476/239/112 477/239/112 296/239/112
f 476/239/112 296/239/112 475/239/112
f 477/239/139 264/238/139 478/239/139
f 296/239/81 477/239/81 252/240/81
f 252/240/81 477/239/81 478/239/81
f 259/238/11 478/239/11 264/238/11
f 259/238/11 479/239/11 478/239/11
f 252/240/81 478/239/81 479/239/81
f 259/238/11 480/239/11 479/239/11
f 479/239/81 480/239/81 481/239/81
f 479/239/81 481/239/81 252/240/81
f 481/239/39 480/239/39 258/239/39
f 481/239/39 258/239/39 253/239/39
f 252/240/3 481/239/3 253/239/3
f 259/238/11 258/239/11 480/239/11
f 317/239/49 475/239/49 314/239/49
f 475/239/112 295/239/112 314/239/112
f 475/239/112 296/239/112 295/239/112
f 265/239/11 471/239/11 266/239/11
f 471/239/11 273/239/11 266/239/11
f 382/238/3 393/239/3 386/239/3
f 370/239/113 372/239/113 384/239/113
f 341/238/49 373/239/49 363/239/49
f 341/238/49 335/239/49 373/239/49
f 335/239/49 336/239/49 373/239/49
f 346/238/3 482/239/3 361/239/3
f 482/239/39 359/239/39 361/239/39
f 355/239/81 358/239/81 482/239/81
f 355/239/81 482/239/81 346/238/81
f 482/239/39 358/239/39 359/239/39
f 484/239/39 483/239/39 351/239/39
f 342/239/11 351/239/11 483/239/11
f 484/239/39 351/239/39 349/239/39
f 339/238/81 483/239/81 484/239/81
f 348/241/3 484/239/3 349/239/3
f 339/238/81 484/239/81 348/241/81
f 342/239/11 483/239/11 339/238/11
f 314/239/112 295/239/112 298/238/112
f 299/239/81 301/239/81 303/239/81
f 286/239/39 254/239/39 255/239/39
f 256/241/11 284/239/11 255/239/11
f 485/242/11 488/242/11 486/243/11
f 486/243/3 487/244/3 485/242/3
f 485/242/81 487/244/81 492/242/81
f 485/242/11 489/244/11 488/242/11
f 490/245/11 489/244/11 485/242/11
f 485/242/3 491/244/3 490/245/3
f 485/242/3 494/242/3 491/244/3
f 485/242/81 492/242/81 493/242/81
f 493/242/73 494/242/73 485/242/73
f 493/242/73 496/244/73 494/242/73
f 494/242/49 495/242/49 491/244/49
f 494/242/49 496/244/49 495/242/49
f 497/243/11 496/244/11 493/242/11
f 497/243/11 495/242/11 496/244/11
f 498/244/11 497/243/11 493/242/11
f 498/244/11 499/244/11 497/243/11
f 499/244/11 500/244/11 497/243/11
f 497/243/11 500/244/11 501/244/11
f 497/243/11 501/244/11 503/244/11
f 497/243/73 502/242/73 490/245/73
f 497/243/73 503/244/73 502/242/73
f 490/245/81 495/242/81 497/243/81
f 502/242/49 503/244/49 501/244/49
f 502/242/49 501/244/49 504/244/49
f 490/245/3 502/242/3 504/244/3
f 505/243/81 504/244/81 501/244/81
f 490/245/3 504/244/3 505/243/3
f 506/244/11 508/242/11 505/243/11
f 505/243/49 507/244/49 506/244/49
f 505/243/49 500/244/49 507/244/49
f 505/243/73 508/242/73 510/244/73
f 509/242/81 511/242/81 505/243/81
f 505/243/73 510/244/73 509/242/73
f 490/245/11 505/243/11 511/242/11
f 505/243/81 501/244/81 500/244/81
f 509/242/81 512/242/81 511/242/81
f 512/242/49 513/244/49 511/242/49
f 490/245/11 511/242/11 513/244/11
f 512/242/49 514/244/49 513/244/49
f 490/245/73 513/244/73 514/244/73
f 490/245/73 514/244/73 515/244/73
f 515/244/3 514/244/3 512/242/3
f 519/244/49 516/244/49 515/244/49
f 516/244/81 517/244/81 515/244/81
f 515/244/81 517/244/81 518/244/81
f 515/244/3 512/242/3 509/242/3
f 519/244/49 515/244/49 509/242/49
f 515/244/81 518/244/81 490/245/81
f 520/244/49 519/244/49 509/242/49
f 521/242/49 519/244/49 520/244/49
f 521/242/49 522/244/49 519/244/49
f 522/244/49 516/244/49 519/244/49
f 523/242/81 527/242/81 522/244/81
f 522/244/73 525/244/73 523/242/73
f 522/244/73 524/242/73 525/244/73
f 521/242/11 524/242/11 522/244/11
f 522/244/49 526/244/49 516/244/49
f 526/244/11 522/244/11 527/242/11
f 526/244/11 527/242/11 528/244/11
f 529/242/49 528/244/49 527/242/49
f 523/242/81 529/242/81 527/242/81
f 530/242/3 529/242/3 523/242/3
f 530/242/3 531/244/3 529/242/3
f 529/242/49 531/244/49 528/244/49
f 526/244/73 531/244/73 530/242/73
f 526/244/73 528/244/73 531/244/73
f 530/242/3 533/244/3 532/244/3
f 530/242/3 532/244/3 536/242/3
f 523/242/3 533/244/3 530/242/3
f 530/242/81 534/244/81 526/244/81
f 530/242/81 535/242/81 534/244/81
f 536/242/3 535/242/3 530/242/3
f 536/242/3 537/244/3 535/242/3
f 538/244/3 537/244/3 536/242/3
f 532/244/3 538/244/3 536/242/3
f 538/244/3 539/244/3 537/244/3
f 541/244/73 539/244/73 538/244/73
f 532/244/3 540/244/3 538/244/3
f 540/244/73 541/244/73 538/244/73
f 540/244/73 542/244/73 541/244/73
f 542/244/73 543/244/73 541/244/73
f 543/244/73 544/244/73 541/244/73
f 541/244/73 544/244/73 539/244/73
f 546/244/49 544/244/49 545/244/49
f 543/244/73 545/244/73 544/244/73
f 537/244/49 539/244/49 544/244/49
f 537/244/49 544/244/49 546/244/49
f 546/244/49 545/244/49 547/244/49
f 535/242/49 537/244/49 546/244/49
f 535/242/49 546/244/49 534/244/49
f 534/244/49 546/244/49 547/244/49
f 547/244/49 545/244/49 549/244/49
f 547/244/49 549/244/49 548/244/49
f 550/244/49 547/244/49 548/244/49
f 534/244/49 547/244/49 550/244/49
f 516/244/81 550/244/81 517/244/81
f 526/244/81 550/244/81 516/244/81
f 526/244/81 534/244/81 550/244/81
f 550/244/49 548/244/49 517/244/49
f 551/244/73 549/244/73 545/244/73
f 548/244/49 549/244/49 488/242/49
f 486/243/73 549/244/73 551/244/73
f 486/243/73 488/242/73 549/244/73
f 552/244/73 486/243/73 551/244/73
f 553/244/73 552/244/73 551/244/73
f 553/244/73 551/244/73 543/244/73
f 551/244/73 545/244/73 543/244/73
f 554/244/140 552/244/140 553/244/140
f 554/244/140 553/244/140 555/244/140
f 555/244/140 553/244/140 542/244/140
f 542/244/73 553/244/73 543/244/73
f 558/244/39 554/244/39 555/244/39
f 555/244/140 542/244/140 557/244/140
f 558/244/39 555/244/39 556/244/39
f 556/244/39 555/244/39 557/244/39
f 559/244/39 561/244/39 558/244/39
f 559/244/39 558/244/39 560/244/39
f 560/244/39 558/244/39 556/244/39
f 561/244/39 554/244/39 558/244/39
f 561/244/141 499/244/141 498/244/141
f 559/244/141 499/244/141 561/244/141
f 561/244/141 498/244/141 562/242/141
f 561/244/39 562/242/39 554/244/39
f 563/242/142 562/242/142 498/244/142
f 562/242/140 552/244/140 554/244/140
f 562/242/140 563/242/140 552/244/140
f 563/242/143 498/244/143 564/242/143
f 486/243/73 563/242/73 564/242/73
f 552/244/73 563/242/73 486/243/73
f 493/242/11 565/242/11 564/242/11
f 486/243/73 564/242/73 565/242/73
f 493/242/11 564/242/11 498/244/11
f 493/242/11 567/244/11 565/242/11
f 565/242/73 567/244/73 566/242/73
f 565/242/73 566/242/73 486/243/73
f 493/242/11 492/242/11 567/244/11
f 566/242/49 567/244/49 492/242/49
f 566/242/49 492/242/49 487/244/49
f 486/243/3 566/242/3 487/244/3
f 568/244/39 560/244/39 569/244/39
f 568/244/39 559/244/39 560/244/39
f 569/244/39 560/244/39 570/244/39
f 560/244/39 556/244/39 570/244/39
f 569/244/39 570/244/39 571/244/39
f 571/244/39 570/244/39 573/244/39
f 570/244/39 556/244/39 572/244/39
f 570/244/39 572/244/39 573/244/39
f 574/244/144 573/244/145 572/244/146
f 575/244/147 573/244/145 574/244/144
f 571/244/39 573/244/39 576/244/39
f 575/244/147 576/244/148 573/244/145
f 577/244/149 576/244/149 575/244/149
f 579/244/39 571/244/39 576/244/39
f 577/244/150 578/244/151 576/244/152
f 579/244/39 576/244/39 578/244/39
f 580/244/39 571/244/39 579/244/39
f 581/244/39 580/244/39 579/244/39
f 581/244/39 579/244/39 582/244/39
f 582/244/39 579/244/39 578/244/39
f 582/244/39 578/244/39 583/242/39
f 584/244/39 582/244/39 583/242/39
f 585/244/39 582/244/39 584/244/39
f 585/244/39 581/244/39 582/244/39
f 586/244/39 581/244/39 585/244/39
f 588/244/39 586/244/39 585/244/39
f 587/244/39 585/244/39 584/244/39
f 588/244/39 585/244/39 587/244/39
f 588/244/141 589/244/141 586/244/141
f 588/244/141 591/244/141 589/244/141
f 590/244/141 591/244/141 588/244/141
f 590/244/39 588/244/39 587/244/39
f 589/244/11 591/244/11 592/244/11
f 591/244/11 593/242/11 592/244/11
f 591/244/11 594/244/11 593/242/11
f 590/244/141 594/244/141 591/244/141
f 595/242/141 596/244/141 594/244/141
f 595/242/141 594/244/141 590/244/141
f 594/244/11 596/244/11 597/244/11
f 594/244/11 597/244/11 593/242/11
f 597/244/11 600/244/11 593/242/11
f 598/245/81 599/242/81 597/244/81
f 598/245/81 597/244/81 596/244/81
f 597/244/11 599/242/11 600/244/11
f 601/242/49 600/244/49 599/242/49
f 593/242/73 600/244/73 601/242/73
f 601/242/49 599/242/49 603/244/49
f 602/245/3 601/242/3 603/244/3
f 593/242/73 601/242/73 602/245/73
f 602/245/3 603/244/3 598/245/3
f 598/245/81 603/244/81 599/242/81
f 602/245/81 604/244/81 606/242/81
f 611/244/3 604/244/3 602/245/3
f 602/245/11 607/244/11 605/242/11
f 602/245/11 605/242/11 611/244/11
f 602/245/81 606/242/81 593/242/81
f 608/244/81 607/244/81 602/245/81
f 602/245/73 609/244/73 608/244/73
f 602/245/73 610/242/73 609/244/73
f 598/245/11 610/242/11 602/245/11
f 592/244/73 612/242/73 611/244/73
f 615/244/49 592/244/49 611/244/49
f 611/244/3 612/242/3 604/244/3
f 611/244/73 614/244/73 613/244/73
f 613/244/49 615/244/49 611/244/49
f 611/244/73 605/242/73 614/244/73
f 618/244/49 616/244/49 615/244/49
f 616/244/49 617/244/49 615/244/49
f 615/244/49 617/244/49 592/244/49
f 613/244/49 618/244/49 615/244/49
f 619/244/49 618/244/49 613/244/49
f 619/244/49 620/244/49 618/244/49
f 620/244/49 621/244/49 618/244/49
f 618/244/49 621/244/49 616/244/49
f 620/244/49 623/244/49 621/244/49
f 621/244/49 622/244/49 616/244/49
f 621/244/49 624/244/49 622/244/49
f 623/244/49 624/244/49 621/244/49
f 625/244/49 626/244/49 624/244/49
f 623/244/49 625/244/49 624/244/49
f 624/244/49 626/244/49 506/244/49
f 624/244/49 506/244/49 622/244/49
f 625/244/49 520/244/49 626/244/49
f 626/244/81 627/244/81 506/244/81
f 626/244/81 628/242/81 627/244/81
f 520/244/49 509/242/49 626/244/49
f 509/242/3 628/242/3 626/244/3
f 509/242/3 510/244/3 628/242/3
f 628/242/49 508/242/49 627/244/49
f 628/242/49 510/244/49 508/242/49
f 506/244/11 627/244/11 508/242/11
f 629/244/49 520/244/49 625/244/49
f 630/244/49 629/244/49 625/244/49
f 630/244/49 625/244/49 623/244/49
f 631/242/49 629/244/49 630/244/49
f 630/244/73 634/244/73 631/242/73
f 632/242/49 630/244/49 623/244/49
f 632/242/11 633/242/11 630/244/11
f 630/244/73 633/242/73 634/244/73
f 631/242/3 634/244/3 635/242/3
f 635/242/49 634/244/49 633/242/49
f 631/242/3 635/242/3 636/242/3
f 636/242/81 635/242/81 637/244/81
f 635/242/49 633/242/49 637/244/49
f 636/242/81 637/244/81 632/242/81
f 632/242/11 637/244/11 633/242/11
f 638/244/3 631/242/3 636/242/3
f 639/244/3 638/244/3 636/242/3
f 639/244/3 636/242/3 640/242/3
f 636/242/3 641/242/3 640/242/3
f 636/242/3 642/244/3 641/242/3
f 632/242/73 642/244/73 636/242/73
f 641/242/49 642/244/49 643/242/49
f 632/242/73 643/242/73 642/244/73
f 644/242/11 643/242/11 632/242/11
f 644/242/11 645/244/11 643/242/11
f 641/242/49 643/242/49 645/244/49
f 640/242/81 645/244/81 644/242/81
f 640/242/81 641/242/81 645/244/81
f 644/242/49 620/244/49 619/244/49
f 648/244/49 644/242/49 619/244/49
f 644/242/73 646/242/73 647/244/73
f 648/244/11 646/242/11 644/242/11
f 644/242/49 632/242/49 620/244/49
f 644/242/73 647/244/73 640/242/73
f 648/244/49 619/244/49 649/244/49
f 649/244/73 650/244/73 648/244/73
f 648/244/73 650/244/73 652/244/73
f 651/242/81 653/244/81 648/244/81
f 648/244/73 652/244/73 651/242/73
f 648/244/11 653/244/11 646/242/11
f 654/242/49 646/242/49 653/244/49
f 651/242/81 654/242/81 653/244/81
f 654/242/49 647/244/49 646/242/49
f 640/242/3 654/242/3 651/242/3
f 640/242/3 647/244/3 654/242/3
f 655/244/49 652/244/49 650/244/49
f 651/242/3 652/244/3 655/244/3
f 655/244/49 650/244/49 656/244/49
f 657/242/49 655/244/49 656/244/49
f 658/244/3 655/244/3 657/242/3
f 651/242/3 655/244/3 658/244/3
f 658/244/3 657/242/3 661/244/3
f 660/244/3 651/242/3 658/244/3
f 659/244/3 658/244/3 661/244/3
f 659/244/3 660/244/3 658/244/3
f 661/244/81 657/242/81 664/244/81
f 662/244/81 659/244/81 661/244/81
f 662/244/81 661/244/81 663/244/81
f 661/244/81 664/244/81 663/244/81
f 664/244/49 665/244/49 666/244/49
f 664/244/49 656/244/49 665/244/49
f 657/242/49 656/244/49 664/244/49
f 663/244/81 664/244/81 666/244/81
f 666/244/49 667/244/49 669/244/49
f 666/244/49 665/244/49 667/244/49
f 663/244/81 666/244/81 668/244/81
f 668/244/81 666/244/81 669/244/81
f 669/244/49 671/244/49 670/244/49
f 672/244/81 669/244/81 670/244/81
f 668/244/81 669/244/81 672/244/81
f 669/244/49 667/244/49 671/244/49
f 673/244/81 668/244/81 672/244/81
f 675/244/81 673/244/81 672/244/81
f 672/244/81 670/244/81 674/244/81
f 675/244/81 672/244/81 674/244/81
f 675/244/153 676/244/153 673/244/153
f 675/244/153 595/242/153 676/244/153
s 0
f 595/242/121 675/244/81 677/244/122
f 675/244/81 678/244/81 677/244/81
f 675/244/81 674/244/81 678/244/81
s 1
f 678/244/81 679/244/81 680/242/81
f 682/244/3 679/244/3 678/244/3
f 678/244/81 680/242/81 681/244/81
f 677/244/81 678/244/81 681/244/81
s 0
f 674/244/115 682/244/115 678/244/115
s 1
f 682/244/73 683/242/73 685/242/73
s 0
f 598/245/81 683/242/81 682/244/81
f 674/244/115 598/245/115 682/244/115
s 1
f 682/244/3 686/242/3 679/244/3
f 684/244/73 686/242/73 682/244/73
f 682/244/73 685/242/73 684/244/73
f 686/242/49 680/242/49 679/244/49
f 686/242/49 687/244/49 680/242/49
f 684/244/73 687/244/73 686/242/73
f 681/244/11 687/244/11 684/244/11
f 681/244/11 680/242/11 687/244/11
f 677/244/154 688/244/154 685/242/154
f 684/244/11 685/242/11 688/244/11
f 677/244/155 685/242/155 683/242/155
f 677/244/81 681/244/81 688/244/81
f 684/244/11 688/244/11 681/244/11
s 0
f 595/242/116 677/244/117 683/242/81
f 598/245/81 595/242/81 683/242/81
s 1
f 673/244/153 676/244/153 689/244/153
f 676/244/39 690/244/39 689/244/39
f 676/244/39 691/244/39 690/244/39
f 595/242/39 691/244/39 676/244/39
f 691/244/39 692/244/39 690/244/39
f 691/244/39 587/244/39 692/244/39
f 595/242/39 590/244/39 691/244/39
f 590/244/39 587/244/39 691/244/39
f 587/244/39 584/244/39 692/244/39
f 692/244/39 584/244/39 693/244/39
f 692/244/39 693/244/39 694/244/39
f 690/244/39 692/244/39 694/244/39
f 694/244/156 693/244/156 638/244/156
f 694/244/156 638/244/156 639/244/156
f 695/244/156 694/244/156 639/244/156
f 690/244/39 694/244/39 695/244/39
f 697/244/156 695/244/156 696/244/157
f 695/244/156 639/244/156 696/244/157
f 689/244/39 695/244/39 697/244/39
f 689/244/39 690/244/39 695/244/39
f 697/244/156 696/244/157 660/244/157
f 662/244/158 697/244/158 660/244/158
f 698/244/153 697/244/153 662/244/153
f 698/244/153 689/244/153 697/244/153
f 673/244/153 689/244/153 698/244/153
f 673/244/81 698/244/81 668/244/81
f 698/244/81 663/244/81 668/244/81
f 698/244/81 662/244/81 663/244/81
f 660/244/3 696/244/3 651/242/3
f 696/244/3 640/242/3 651/242/3
f 696/244/3 639/244/3 640/242/3
f 584/244/39 583/242/39 693/244/39
f 693/244/159 699/244/159 638/244/159
f 693/244/160 583/242/160 699/244/160
f 631/242/3 699/244/3 577/244/3
f 638/244/3 699/244/3 631/242/3
f 699/244/161 578/244/151 577/244/150
f 699/244/160 583/242/160 578/244/160
f 674/244/11 670/244/11 671/244/11
f 674/244/11 671/244/11 598/245/11
f 667/244/49 610/242/49 671/244/49
f 598/245/11 671/244/11 610/242/11
f 665/244/49 609/244/49 667/244/49
f 667/244/49 609/244/49 610/242/49
f 656/244/49 700/244/49 665/244/49
f 665/244/49 700/244/49 609/244/49
f 649/244/73 700/244/73 650/244/73
f 608/244/73 700/244/73 649/244/73
f 608/244/73 609/244/73 700/244/73
f 656/244/49 650/244/49 700/244/49
f 662/244/162 660/244/162 659/244/162
f 649/244/49 619/244/49 613/244/49
f 649/244/49 613/244/49 608/244/49
f 632/242/49 623/244/49 620/244/49
f 631/242/49 701/244/49 629/244/49
f 631/242/3 577/244/3 701/244/3
f 701/244/81 702/244/81 629/244/81
f 701/244/81 703/242/81 702/244/81
f 704/242/3 703/242/3 701/244/3
f 701/244/3 575/244/3 704/242/3
f 701/244/3 577/244/3 575/244/3
f 704/242/3 575/244/3 574/244/3
f 704/242/81 706/242/81 705/244/81
f 704/242/81 705/244/81 521/242/81
f 523/242/3 706/242/3 704/242/3
f 704/242/3 574/244/3 523/242/3
f 521/242/73 707/244/73 704/242/73
f 704/242/3 707/244/3 703/242/3
f 703/242/49 707/244/49 708/242/49
f 521/242/73 708/242/73 707/244/73
f 629/244/11 708/242/11 521/242/11
f 629/244/11 702/244/11 708/242/11
f 703/242/49 708/242/49 702/244/49
f 523/242/3 525/244/3 706/242/3
f 706/242/49 524/242/49 705/244/49
f 706/242/49 525/244/49 524/242/49
f 521/242/11 705/244/11 524/242/11
f 629/244/49 521/242/49 520/244/49
f 506/244/49 710/244/49 622/244/49
f 622/244/49 709/244/49 616/244/49
f 622/244/49 710/244/49 709/244/49
f 506/244/49 507/244/49 710/244/49
f 711/244/11 710/244/11 507/244/11
f 711/244/11 712/244/11 710/244/11
f 712/244/11 709/244/11 710/244/11
f 714/244/141 712/244/141 711/244/141
f 712/244/11 713/244/11 709/244/11
f 715/244/141 713/244/141 712/244/141
f 715/244/141 712/244/141 714/244/141
f 715/244/39 714/244/39 580/244/39
f 715/244/39 580/244/39 581/244/39
f 586/244/39 715/244/39 581/244/39
f 586/244/141 713/244/141 715/244/141
f 714/244/141 711/244/141 568/244/141
f 714/244/39 569/244/39 580/244/39
f 714/244/39 568/244/39 569/244/39
f 586/244/141 589/244/141 713/244/141
f 713/244/11 617/244/11 709/244/11
f 713/244/11 589/244/11 617/244/11
f 568/244/141 711/244/141 716/244/141
f 716/244/11 711/244/11 507/244/11
f 568/244/141 716/244/141 559/244/141
f 559/244/141 716/244/141 499/244/141
f 499/244/11 716/244/11 500/244/11
f 716/244/11 507/244/11 500/244/11
f 616/244/49 709/244/49 617/244/49
f 589/244/11 592/244/11 617/244/11
f 717/242/49 614/244/49 605/242/49
f 613/244/3 614/244/3 717/242/3
f 717/242/49 605/242/49 607/244/49
f 608/244/81 717/242/81 607/244/81
f 613/244/3 717/242/3 608/244/3
f 592/244/73 718/244/73 612/242/73
f 612/242/49 718/244/49 606/242/49
f 612/242/49 606/242/49 604/244/49
f 593/242/11 718/244/11 592/244/11
f 593/242/11 606/242/11 718/244/11
f 598/245/81 596/244/81 595/242/81
f 580/244/39 569/244/39 571/244/39
f 523/242/3 574/244/3 533/244/3
f 574/244/163 572/244/163 533/244/163
f 533/244/164 572/244/157 557/244/165
f 556/244/39 557/244/39 572/244/39
f 532/244/166 557/244/166 542/244/166
f 533/244/164 557/244/165 532/244/167
f 517/244/49 548/244/49 489/244/49
f 548/244/49 488/242/49 489/244/49
f 532/244/168 542/244/168 540/244/168
f 517/244/49 489/244/49 518/244/49
f 490/245/11 518/244/11 489/244/11
f 490/245/81 491/244/81 495/242/81
f 720/246/1 719/246/1 723/247/1
f 720/246/1 721/248/1 719/246/1
f 721/248/2 722/248/2 719/246/2
f 723/247/3 719/246/3 722/248/3
f 723/247/3 722/248/3 724/249/3
f 723/247/4 729/248/4 720/246/4
f 723/247/3 724/249/3 726/250/3
f 725/247/3 727/247/3 723/247/3
f 723/247/3 726/250/3 725/247/3
f 727/247/3 728/249/3 723/247/3
f 728/249/3 731/249/3 723/247/3
f 723/247/4 730/246/4 729/248/4
f 732/248/3 730/246/3 723/247/3
f 731/249/3 732/248/3 723/247/3
f 733/246/16 732/248/16 731/249/16
f 732/248/3 735/246/3 730/246/3
f 733/246/16 734/250/16 732/248/16
f 734/250/14 735/246/14 732/248/14
f 734/250/14 736/246/14 735/246/14
f 735/246/17 736/246/17 729/248/17
f 735/246/17 729/248/17 730/246/17
f 734/250/11 729/248/11 736/246/11
f 721/248/11 720/246/11 734/250/11
f 734/250/11 720/246/11 729/248/11
f 737/247/11 721/248/11 734/250/11
f 737/247/11 734/250/11 739/247/11
f 734/250/11 733/246/11 738/249/11
f 734/250/11 738/249/11 739/247/11
f 737/247/11 739/247/11 740/247/11
f 739/247/11 741/250/11 740/247/11
f 739/247/11 742/249/11 741/250/11
f 739/247/11 743/246/11 742/249/11
f 744/249/15 743/246/15 739/247/15
f 744/249/15 739/247/15 745/246/15
f 739/247/14 746/246/14 745/246/14
f 739/247/14 747/246/14 746/246/14
f 739/247/11 748/246/11 747/246/11
f 739/247/11 749/246/11 748/246/11
f 738/249/11 749/246/11 739/247/11
f 749/246/19 750/248/19 728/249/19
f 728/249/4 748/246/4 749/246/4
f 749/246/19 738/249/19 750/248/19
f 750/248/3 752/246/3 731/249/3
f 728/249/3 750/248/3 731/249/3
f 738/249/14 751/246/14 750/248/14
f 750/248/3 751/246/3 752/246/3
f 731/249/4 752/246/4 754/246/4
f 753/246/18 752/246/18 751/246/18
f 753/246/18 754/246/18 752/246/18
f 731/249/4 754/246/4 733/246/4
f 738/249/11 754/246/11 753/246/11
f 738/249/11 733/246/11 754/246/11
f 738/249/14 753/246/14 751/246/14
f 728/249/4 755/246/4 748/246/4
f 747/246/20 748/246/20 755/246/20
f 747/246/20 755/246/20 746/246/20
f 745/246/3 746/246/3 755/246/3
f 745/246/3 755/246/3 728/249/3
f 744/249/3 745/246/3 728/249/3
f 744/249/4 756/246/4 743/246/4
f 744/249/4 758/246/4 756/246/4
f 727/247/3 744/249/3 728/249/3
f 727/247/3 757/248/3 744/249/3
f 757/248/3 758/246/3 744/249/3
f 759/246/21 756/246/21 758/246/21
f 759/246/21 758/246/21 760/246/21
f 757/248/3 760/246/3 758/246/3
f 742/249/14 759/246/14 760/246/14
f 742/249/14 760/246/14 757/248/14
f 742/249/11 756/246/11 759/246/11
f 761/246/22 757/248/22 727/247/22
f 761/246/22 742/249/22 757/248/22
f 742/249/11 761/246/11 741/250/11
f 741/250/11 761/246/11 762/246/11
f 727/247/4 762/246/4 761/246/4
f 741/250/11 762/246/11 763/246/11
f 763/246/23 762/246/23 764/246/23
f 727/247/4 764/246/4 762/246/4
f 765/248/3 764/246/3 727/247/3
f 765/248/3 766/246/3 764/246/3
f 763/246/23 764/246/23 766/246/23
f 741/250/14 766/246/14 765/248/14
f 741/250/14 763/246/14 766/246/14
f 768/248/24 741/250/24 765/248/24
f 767/249/3 765/248/3 727/247/3
f 768/248/24 765/248/24 767/249/24
f 768/248/11 770/246/11 769/249/11
f 741/250/11 768/248/11 769/249/11
f 768/248/11 771/246/11 770/246/11
f 767/249/4 771/246/4 768/248/4
f 770/246/25 771/246/25 772/246/25
f 767/249/4 772/246/4 771/246/4
f 767/249/3 773/246/3 772/246/3
f 770/246/25 772/246/25 773/246/25
f 769/249/14 770/246/14 773/246/14
f 769/249/14 773/246/14 774/246/14
f 767/249/3 774/246/3 773/246/3
f 775/247/3 774/246/3 767/249/3
f 775/247/26 769/249/26 774/246/26
f 775/247/3 776/246/3 780/246/3
f 781/249/3 776/246/3 775/247/3
f 775/247/26 777/246/26 769/249/26
f 775/247/4 778/246/4 777/246/4
f 775/247/3 767/249/3 727/247/3
f 775/247/4 779/246/4 778/246/4
f 775/247/3 780/246/3 779/246/3
f 725/247/3 775/247/3 727/247/3
f 725/247/3 781/249/3 775/247/3
f 781/249/4 786/246/4 782/248/4
f 782/248/13 776/246/13 781/249/13
f 725/247/3 783/246/3 781/249/3
f 781/249/3 783/246/3 784/246/3
f 781/249/3 784/246/3 785/246/3
f 781/249/4 785/246/4 786/246/4
f 782/248/11 786/246/11 787/246/11
f 787/246/28 786/246/28 785/246/28
f 788/249/14 787/246/14 784/246/14
f 782/248/11 787/246/11 788/249/11
f 787/246/28 785/246/28 784/246/28
f 789/246/29 788/249/29 783/246/29
f 788/249/11 789/246/11 790/249/11
f 740/247/11 782/248/11 788/249/11
f 740/247/11 788/249/11 790/249/11
f 788/249/14 784/246/14 783/246/14
f 740/247/11 790/249/11 795/247/11
f 791/249/10 790/249/10 794/246/10
f 791/249/10 793/246/10 790/249/10
f 790/249/12 789/246/12 725/247/12
f 790/249/12 725/247/12 794/246/12
f 790/249/11 793/246/11 792/248/11
f 790/249/11 792/248/11 795/247/11
f 795/247/7 796/249/7 799/246/7
f 795/247/7 798/246/7 796/249/7
f 797/249/35 800/246/35 795/247/35
f 797/249/35 795/247/35 799/246/35
f 792/248/11 798/246/11 795/247/11
f 740/247/11 795/247/11 737/247/11
f 795/247/11 802/249/11 737/247/11
f 795/247/11 800/246/11 801/248/11
f 795/247/11 801/248/11 802/249/11
f 802/249/5 726/250/5 804/246/5
f 802/249/5 803/246/5 726/250/5
f 801/248/11 803/246/11 802/249/11
f 806/246/34 802/249/34 804/246/34
f 802/249/11 805/248/11 737/247/11
f 802/249/11 806/246/11 805/248/11
f 806/246/34 804/246/34 807/248/34
f 805/248/32 806/246/32 807/248/32
f 807/248/3 804/246/3 726/250/3
f 724/249/3 808/246/3 807/248/3
f 724/249/3 807/248/3 726/250/3
f 805/248/32 807/248/32 808/246/32
f 809/246/33 808/246/33 724/249/33
f 809/246/33 805/248/33 808/246/33
f 805/248/11 809/246/11 737/247/11
f 737/247/31 809/246/31 724/249/31
f 803/246/6 810/246/6 726/250/6
f 803/246/6 801/248/6 810/246/6
f 726/250/3 810/246/3 797/249/3
f 801/248/36 797/249/36 810/246/36
f 801/248/36 800/246/36 797/249/36
f 797/249/3 799/246/3 796/249/3
f 798/246/8 811/246/8 796/249/8
f 798/246/8 792/248/8 811/246/8
f 796/249/3 811/246/3 791/249/3
f 792/248/9 791/249/9 811/246/9
f 726/250/3 797/249/3 796/249/3
f 796/249/3 791/249/3 725/247/3
f 726/250/3 796/249/3 725/247/3
f 791/249/3 794/246/3 725/247/3
f 792/248/9 793/246/9 791/249/9
f 789/246/29 783/246/29 725/247/29
f 782/248/13 740/247/13 776/246/13
f 740/247/14 780/246/14 776/246/14
f 740/247/14 812/246/14 780/246/14
f 812/246/27 779/246/27 780/246/27
f 777/246/11 812/246/11 740/247/11
f 777/246/11 778/246/11 812/246/11
f 812/246/27 778/246/27 779/246/27
f 769/249/11 777/246/11 740/247/11
f 741/250/11 769/249/11 740/247/11
f 742/249/11 743/246/11 756/246/11
f 737/247/11 813/246/11 721/248/11
f 813/246/30 737/247/30 814/246/30
f 737/247/31 724/249/31 814/246/31
f 813/246/30 814/246/30 722/248/30
f 722/248/3 814/246/3 724/249/3
f 721/248/2 813/246/2 722/248/2
f 816/251/39 815/251/39 818/251/39
f 816/251/39 817/251/39 815/251/39
f 821/251/169 815/251/169 817/251/169
f 815/251/11 819/251/11 818/251/11
f 815/251/11 820/251/11 819/251/11
f 821/251/169 820/251/169 815/251/169
f 822/251/170 820/251/170 821/251/170
f 823/251/3 821/251/3 817/251/3
f 824/251/3 822/251/3 821/251/3
f 824/251/3 821/251/3 823/251/3
f 825/251/73 826/251/73 824/251/73
f 825/251/73 824/251/73 827/251/73
f 827/251/171 824/251/171 823/251/171
f 826/251/3 822/251/3 824/251/3
f 827/251/171 823/251/171 819/251/171
f 820/251/11 827/251/11 819/251/11
f 820/251/11 828/251/11 827/251/11
f 828/251/11 825/251/11 827/251/11
f 822/251/170 828/251/170 820/251/170
f 829/251/172 828/251/172 822/251/172
f 828/251/11 830/251/11 825/251/11
f 829/251/172 830/251/172 828/251/172
f 825/251/49 830/251/49 829/251/49
f 825/251/49 829/251/49 826/251/49
f 826/251/3 829/251/3 822/251/3
f 819/251/173 823/251/173 816/251/173
f 823/251/3 817/251/3 816/251/3
f 819/251/173 816/251/173 818/251/173
