# Blender 4.4.3
# www.blender.org
mtllib player.mtl
o player
v -2.808507 -1.607127 -4.270649
v -4.191493 -1.607127 -4.270649
v -2.808507 -1.355566 -4.174330
v -4.191493 -1.355566 -4.174330
v -2.808507 -1.113672 -3.889074
v -4.191493 -1.113672 -3.889074
v -2.808507 -0.890742 -3.425844
v -4.191493 -0.890742 -3.425844
v -2.808507 -0.695342 -2.802441
v -4.191493 -0.695342 -2.802441
v -2.808507 -0.534981 -2.042823
v -4.191493 -0.534981 -2.042823
v -2.808507 -0.415822 -1.176180
v -4.191493 -0.415822 -1.176180
v -2.808507 -0.342444 -0.235818
v -4.191493 -0.342444 -0.235818
v -2.808507 -0.317667 0.742126
v -4.191493 -0.317668 0.742126
v -2.808507 -0.342444 1.720070
v -4.191493 -0.342444 1.720070
v -2.808507 -0.415822 2.660432
v -4.191493 -0.415822 2.660432
v -2.808507 -0.534981 3.527074
v -4.191493 -0.534981 3.527074
v -2.808507 -0.695342 4.286693
v -4.191493 -0.695342 4.286693
v -2.808507 -0.890742 4.910096
v -4.191493 -0.890742 4.910096
v -2.808507 -1.113672 5.373326
v -4.191493 -1.113672 5.373326
v -2.808507 -1.355566 5.658581
v -4.191493 -1.355566 5.658581
v -2.808507 -1.607127 5.754900
v -4.191493 -1.607127 5.754900
v -2.808507 -1.858689 5.658581
v -4.191493 -1.858689 5.658581
v -2.808507 -2.100582 5.373326
v -4.191493 -2.100583 5.373326
v -2.808507 -2.323513 4.910096
v -4.191493 -2.323513 4.910096
v -2.808507 -2.518913 4.286693
v -4.191493 -2.518913 4.286693
v -2.808507 -2.679274 3.527074
v -4.191493 -2.679274 3.527074
v -2.808507 -2.798433 2.660432
v -4.191493 -2.798433 2.660432
v -2.808507 -2.871811 1.720070
v -4.191493 -2.871811 1.720070
v -2.808507 -2.896587 0.742126
v -4.191493 -2.896587 0.742126
v -2.808507 -2.871811 -0.235818
v -4.191493 -2.871811 -0.235818
v -2.808507 -2.798433 -1.176180
v -4.191493 -2.798433 -1.176180
v -2.808507 -2.679274 -2.042823
v -4.191493 -2.679274 -2.042823
v -2.808507 -2.518913 -2.802441
v -4.191493 -2.518913 -2.802441
v -2.808507 -2.323513 -3.425844
v -4.191493 -2.323513 -3.425844
v -2.808507 -2.100582 -3.889074
v -4.191493 -2.100583 -3.889074
v -2.808507 -1.858689 -4.174330
v -4.191493 -1.858689 -4.174330
v 2.604746 -1.034703 5.719051
v 2.604746 -0.172031 5.719051
v 2.604746 -1.034703 -4.628379
v 2.604746 -0.496394 -4.628379
v 4.337560 -1.034703 5.719051
v 4.337560 -0.479309 5.719051
v 4.337560 -1.034703 -4.628379
v 4.337560 -0.487138 -4.628379
v 3.471153 -1.034703 -4.628379
v 3.471153 -0.496394 -4.628379
v 4.337560 -1.725700 -4.345834
v 3.471153 -0.172031 5.719051
v 3.037950 -1.034703 -4.628379
v 3.037950 -0.172031 5.719051
v 3.037950 -0.496394 -4.628379
v 2.604746 -1.725700 -4.628379
v 3.904356 -0.496394 -4.628379
v 3.037950 -1.725700 -4.628379
v 3.904356 -1.034703 -4.628379
v 3.904356 -0.172031 5.719051
v 2.604746 -1.034703 0.545336
v 2.604746 -0.172031 0.545336
v 4.337560 -1.034703 0.545336
v 4.337560 -0.368627 0.545336
v 3.471153 -0.172031 0.545336
v 3.471153 -1.034703 0.545336
v 3.037950 -1.034703 0.545336
v 3.037950 -0.172031 0.545336
v 3.904356 -0.172031 0.545336
v 3.904356 -1.034703 0.545336
v 2.604746 -1.034703 3.149762
v 4.337560 -0.376174 3.149762
v 3.471153 -0.172031 3.149762
v 3.471153 -1.034703 3.149762
v 3.037950 -1.034703 3.149762
v 3.037950 -0.172031 3.149762
v 3.904356 -0.172031 3.149762
v 3.904356 -1.034703 3.149762
v 2.604746 -0.172031 3.149762
v 4.337560 -1.034703 3.149762
v 2.604746 -1.034703 4.449886
v 4.337560 -0.459092 4.449886
v 3.471153 -0.172031 4.449886
v 3.471153 -1.034703 4.449886
v 3.037950 -1.034703 4.449886
v 3.037950 -0.172031 4.449886
v 3.904356 -0.172031 4.449886
v 3.904356 -1.034703 4.449886
v 2.604746 -0.172031 4.449886
v 4.337560 -1.034703 4.449886
v 2.604746 -1.034703 5.084469
v 4.337560 -0.463827 5.084469
v 3.471153 -0.172031 5.084469
v 3.471153 -1.034703 5.084469
v 3.037950 -1.034703 5.084469
v 3.037950 -0.172031 5.084469
v 3.904356 -0.172031 5.084469
v 3.904356 -1.034703 5.084469
v 2.604746 -0.172031 5.084469
v 4.337560 -1.034703 5.084469
v 2.604746 -1.034703 5.401760
v 4.337560 -0.477428 5.401760
v 3.471153 -0.172031 5.401760
v 3.471153 -1.034703 5.401760
v 3.037950 -1.034703 5.401760
v 3.037950 -0.172031 5.401760
v 3.904356 -0.172031 5.401760
v 3.904356 -1.034703 5.401760
v 2.604746 -0.172031 5.401760
v 4.337560 -1.034703 5.401760
v 2.604746 -0.172031 -2.041522
v 4.337560 -1.034703 -2.041522
v 2.604746 -1.034703 -2.041522
v 4.337560 -0.477413 -2.041522
v 3.471153 -0.172031 -2.041522
v 3.471153 -1.034703 -2.041522
v 3.037950 -1.034703 -2.041522
v 3.037950 -0.172031 -2.041522
v 3.904356 -0.172031 -2.041522
v 3.904356 -1.034703 -2.041522
v 2.604746 -0.172031 -3.428187
v 4.337560 -1.034703 -3.428187
v 2.604746 -1.034703 -3.428187
v 4.337560 -0.477413 -3.428187
v 3.471153 -0.172031 -3.428187
v 3.471153 -1.034703 -3.428187
v 3.037950 -1.034703 -3.428187
v 3.037950 -0.172031 -3.428187
v 3.904356 -0.172031 -3.428187
v 3.904356 -1.034703 -3.428187
v 2.604746 -0.172031 -4.063289
v 4.337560 -1.034703 -4.063289
v 2.604746 -1.034703 -4.063289
v 4.337560 -0.477413 -4.063289
v 3.471153 -0.172031 -4.063289
v 3.471153 -1.034703 -4.063289
v 3.037950 -1.034703 -4.063289
v 3.037950 -0.172031 -4.063289
v 3.904356 -0.172031 -4.063289
v 3.904356 -1.034703 -4.063289
v 2.604746 -0.172031 -4.345834
v 4.337560 -1.034703 -4.345834
v 2.604746 -1.034703 -4.345834
v 4.337560 -0.477413 -4.345834
v 3.471153 -0.172031 -4.345834
v 4.337560 -1.428793 -3.428187
v 3.904356 -1.428793 -3.428187
v 3.037950 -0.172031 -4.345834
v 3.904356 -0.172031 -4.345834
v 3.904356 -1.428793 -4.063289
v 2.604746 -1.034703 6.010481
v 2.604746 -0.476998 6.010481
v 4.337560 -0.476998 6.010481
v 4.337560 -1.034703 6.010481
v 3.904356 -1.034703 6.010481
v 3.037950 -0.476998 6.010481
v 3.037950 -1.034703 6.010481
v 3.471153 -1.034703 6.010481
v 3.904356 -0.476998 6.010481
v 3.471153 -0.476998 6.010481
v 2.604746 -1.600355 5.401760
v 2.604746 -1.600355 5.719051
v 3.904356 -1.600355 5.719051
v 4.337560 -1.600355 5.719051
v 3.037950 -1.600355 5.719051
v 3.471153 -1.600355 5.719051
v 3.471153 -1.600355 5.401760
v 2.604746 -1.600355 6.010481
v 3.037950 -1.600355 5.401760
v 3.904356 -1.600355 5.401760
v 4.337560 -1.600355 5.401760
v 3.904356 -1.600355 6.010481
v 4.337560 -1.600355 6.010481
v 3.037950 -1.600355 6.010481
v 3.471153 -1.600355 6.010481
v 4.337560 -1.725700 -4.628379
v 3.904356 -1.725700 -4.628379
v 3.471153 -1.725700 -4.628379
v 2.604746 -1.725700 -4.345834
v 2.604746 -1.725700 -4.063289
v 3.471153 -1.725700 -4.345834
v 3.471153 -1.725700 -4.063289
v 3.037950 -1.725700 -4.345834
v 3.037950 -1.725700 -4.063289
v 3.904356 -1.725700 -4.345834
v 3.904356 -1.725700 -4.063289
v 4.337560 -1.725700 -4.063289
v 4.337560 -1.428793 -4.063289
v 4.337560 -1.354992 5.401760
v 4.337560 -1.354992 5.084469
v 3.904356 -1.354992 5.084469
v 3.904356 -1.354992 5.401760
v 2.604746 -1.425607 -4.063289
v 2.604746 -1.425607 -3.428187
v 3.037950 -1.425607 -4.063289
v 3.037950 -1.425607 -3.428187
v 3.037950 -1.340584 5.084469
v 2.604746 -1.340584 5.084469
v 2.604746 -1.340584 5.401760
v 3.037950 -1.340584 5.401760
v 3.037950 -1.196619 4.449886
v 2.604746 -1.196619 4.449886
v 2.604746 -1.196619 5.084469
v 3.037950 -1.196619 5.084469
v 4.337560 -1.201084 5.084469
v 4.337560 -1.201084 4.449886
v 3.904356 -1.201084 4.449886
v 3.904356 -1.201084 5.084469
v 4.337560 -1.118454 4.449886
v 4.337560 -1.118454 3.149762
v 3.904356 -1.118454 3.149762
v 3.904356 -1.118454 4.449886
v 3.904356 -1.249104 -3.428187
v 3.904356 -1.249104 -2.041522
v 4.337560 -1.249104 -2.041522
v 4.337560 -1.249104 -3.428187
v 3.904356 -1.138480 -2.041522
v 3.904356 -1.138480 0.545336
v 4.337560 -1.138480 0.545336
v 4.337560 -1.138480 -2.041522
v 2.604746 -0.172031 -4.345834
v 2.604746 -0.496394 -4.628379
v 2.604746 -1.034703 -4.628379
v 2.604746 -1.034703 -4.345834
v 2.254182 -1.034703 5.401760
v 2.254182 -1.034703 5.719051
v 2.254182 -0.478574 5.719051
v 2.254182 -1.034703 6.010481
v 2.254182 -0.478574 6.010481
v 2.254182 -1.034703 -2.041522
v 2.254182 -1.034703 0.545336
v 2.254182 -0.478574 3.149762
v 2.254182 -0.478574 0.545336
v 2.254182 -1.034703 3.149762
v 2.254182 -0.478574 4.449886
v 2.254182 -1.034703 4.449886
v 2.254182 -0.478574 5.084469
v 2.254182 -1.034703 5.084469
v 2.254182 -0.478574 5.401760
v 2.254182 -0.478574 -2.041522
v 2.254182 -1.034703 -3.428187
v 2.254182 -0.478574 -3.428187
v 2.254182 -1.034703 -4.063289
v 2.254182 -0.478574 -4.063289
v 2.254182 -1.034703 -4.345834
v 2.254182 -0.478574 -4.345834
v 2.254182 -0.478574 -4.345834
v 2.254182 -0.487739 -4.628379
v 2.254182 -1.034703 -4.628379
v 2.254182 -1.034703 -4.345834
v 2.604746 -1.326541 5.719051
v 2.604746 -1.326541 6.010481
v 2.254182 -1.326541 5.719051
v 2.254182 -1.326541 6.010481
v 2.604746 -1.218456 5.401760
v 2.604746 -1.218456 5.719051
v 2.254182 -1.218456 5.401760
v 2.254182 -1.218456 5.719051
v 2.604746 -1.140779 5.084469
v 2.604746 -1.140779 5.401760
v 2.254182 -1.140779 5.084469
v 2.254182 -1.140779 5.401760
v 2.254182 -1.424620 -4.628379
v 2.604746 -1.424620 -4.628379
v 2.604746 -1.424620 -4.345834
v 2.254182 -1.424620 -4.345834
v 2.254182 -1.232304 -4.063289
v 2.604746 -1.232304 -4.063289
v 2.604746 -1.232304 -4.345834
v 2.254182 -1.232304 -4.345834
v 2.254182 -1.113445 -4.063289
v 2.604746 -1.113445 -4.063289
v 2.604746 -1.113445 -3.428187
v 2.254182 -1.113445 -3.428187
v -2.605200 -1.034703 5.719051
v -2.605200 -0.172031 5.719051
v -2.605200 -1.034703 -4.628379
v -2.605200 -0.496394 -4.628379
v -4.337200 -1.034703 5.719051
v -4.337200 -0.479309 5.719051
v -4.337200 -1.034703 -4.628379
v -4.337200 -0.487138 -4.628379
v -3.471200 -1.034703 -4.628379
v -3.471200 -0.496394 -4.628379
v -4.337200 -1.725700 -4.345834
v -3.471200 -0.172031 5.719051
v -3.038200 -1.034703 -4.628379
v -3.038200 -0.172031 5.719051
v -3.038200 -0.496394 -4.628379
v -2.605200 -1.725700 -4.628379
v -3.904200 -0.496394 -4.628379
v -3.038200 -1.725700 -4.628379
v -3.904200 -1.034703 -4.628379
v -3.904200 -0.172031 5.719051
v -2.605200 -1.034703 0.545336
v -2.605200 -0.172031 0.545336
v -4.337200 -1.034703 0.545336
v -4.337200 -0.368627 0.545336
v -3.471200 -0.172031 0.545336
v -3.471200 -1.034703 0.545336
v -3.038200 -1.034703 0.545336
v -3.038200 -0.172031 0.545336
v -3.904200 -0.172031 0.545336
v -3.904200 -1.034703 0.545336
v -2.605200 -1.034703 3.149762
v -4.337200 -0.376174 3.149762
v -3.471200 -0.172031 3.149762
v -3.471200 -1.034703 3.149762
v -3.038200 -1.034703 3.149762
v -3.038200 -0.172031 3.149762
v -3.904200 -0.172031 3.149762
v -3.904200 -1.034703 3.149762
v -2.605200 -0.172031 3.149762
v -4.337200 -1.034703 3.149762
v -2.605200 -1.034703 4.449886
v -4.337200 -0.459092 4.449886
v -3.471200 -0.172031 4.449886
v -3.471200 -1.034703 4.449886
v -3.038200 -1.034703 4.449886
v -3.038200 -0.172031 4.449886
v -3.904200 -0.172031 4.449886
v -3.904200 -1.034703 4.449886
v -2.605200 -0.172031 4.449886
v -4.337200 -1.034703 4.449886
v -2.605200 -1.034703 5.084469
v -4.337200 -0.463827 5.084469
v -3.471200 -0.172031 5.084469
v -3.471200 -1.034703 5.084469
v -3.038200 -1.034703 5.084469
v -3.038200 -0.172031 5.084469
v -3.904200 -0.172031 5.084469
v -3.904200 -1.034703 5.084469
v -2.605200 -0.172031 5.084469
v -4.337200 -1.034703 5.084469
v -2.605200 -1.034703 5.401760
v -4.337200 -0.477428 5.401760
v -3.471200 -0.172031 5.401760
v -3.471200 -1.034703 5.401760
v -3.038200 -1.034703 5.401760
v -3.038200 -0.172031 5.401760
v -3.904200 -0.172031 5.401760
v -3.904200 -1.034703 5.401760
v -2.605200 -0.172031 5.401760
v -4.337200 -1.034703 5.401760
v -2.605200 -0.172031 -2.041522
v -4.337200 -1.034703 -2.041522
v -2.605200 -1.034703 -2.041522
v -4.337200 -0.477413 -2.041522
v -3.471200 -0.172031 -2.041522
v -3.471200 -1.034703 -2.041522
v -3.038200 -1.034703 -2.041522
v -3.038200 -0.172031 -2.041522
v -3.904200 -0.172031 -2.041522
v -3.904200 -1.034703 -2.041522
v -2.605200 -0.172031 -3.428187
v -4.337200 -1.034703 -3.428187
v -2.605200 -1.034703 -3.428187
v -4.337200 -0.477413 -3.428187
v -3.471200 -0.172031 -3.428187
v -3.471200 -1.034703 -3.428187
v -3.038200 -1.034703 -3.428187
v -3.038200 -0.172031 -3.428187
v -3.904200 -0.172031 -3.428187
v -3.904200 -1.034703 -3.428187
v -2.605200 -0.172031 -4.063289
v -4.337200 -1.034703 -4.063289
v -2.605200 -1.034703 -4.063289
v -4.337200 -0.477413 -4.063289
v -3.471200 -0.172031 -4.063289
v -3.471200 -1.034703 -4.063289
v -3.038200 -1.034703 -4.063289
v -3.038200 -0.172031 -4.063289
v -3.904200 -0.172031 -4.063289
v -3.904200 -1.034703 -4.063289
v -2.605200 -0.172031 -4.345834
v -4.337200 -1.034703 -4.345834
v -2.605200 -1.034703 -4.345834
v -4.337200 -0.477413 -4.345834
v -3.471200 -0.172031 -4.345834
v -4.337200 -1.428793 -3.428187
v -3.904200 -1.428793 -3.428187
v -3.038200 -0.172031 -4.345834
v -3.904200 -0.172031 -4.345834
v -3.904200 -1.428793 -4.063289
v -2.605200 -1.034703 6.010481
v -2.605200 -0.476998 6.010481
v -4.337200 -0.476998 6.010481
v -4.337200 -1.034703 6.010481
v -3.904200 -1.034703 6.010481
v -3.038200 -0.476998 6.010481
v -3.038200 -1.034703 6.010481
v -3.471200 -1.034703 6.010481
v -3.904200 -0.476998 6.010481
v -3.471200 -0.476998 6.010481
v -2.605200 -1.600355 5.401760
v -2.605200 -1.600355 5.719051
v -3.904200 -1.600355 5.719051
v -4.337200 -1.600355 5.719051
v -3.038200 -1.600355 5.719051
v -3.471200 -1.600355 5.719051
v -3.471200 -1.600355 5.401760
v -2.605200 -1.600355 6.010481
v -3.038200 -1.600355 5.401760
v -3.904200 -1.600355 5.401760
v -4.337200 -1.600355 5.401760
v -3.904200 -1.600355 6.010481
v -4.337200 -1.600355 6.010481
v -3.038200 -1.600355 6.010481
v -3.471200 -1.600355 6.010481
v -4.337200 -1.725700 -4.628379
v -3.904200 -1.725700 -4.628379
v -3.471200 -1.725700 -4.628379
v -2.605200 -1.725700 -4.345834
v -2.605200 -1.725700 -4.063289
v -3.471200 -1.725700 -4.345834
v -3.471200 -1.725700 -4.063289
v -3.038200 -1.725700 -4.345834
v -3.038200 -1.725700 -4.063289
v -3.904200 -1.725700 -4.345834
v -3.904200 -1.725700 -4.063289
v -4.337200 -1.725700 -4.063289
v -4.337200 -1.428793 -4.063289
v -4.337200 -1.354992 5.401760
v -4.337200 -1.354992 5.084469
v -3.904200 -1.354992 5.084469
v -3.904200 -1.354992 5.401760
v -2.605200 -1.425607 -4.063289
v -2.605200 -1.425607 -3.428187
v -3.038200 -1.425607 -4.063289
v -3.038200 -1.425607 -3.428187
v -3.038200 -1.340584 5.084469
v -2.605200 -1.340584 5.084469
v -2.605200 -1.340584 5.401760
v -3.038200 -1.340584 5.401760
v -3.038200 -1.196619 4.449886
v -2.605200 -1.196619 4.449886
v -2.605200 -1.196619 5.084469
v -3.038200 -1.196619 5.084469
v -4.337200 -1.201084 5.084469
v -4.337200 -1.201084 4.449886
v -3.904200 -1.201084 4.449886
v -3.904200 -1.201084 5.084469
v -4.337200 -1.118454 4.449886
v -4.337200 -1.118454 3.149762
v -3.904200 -1.118454 3.149762
v -3.904200 -1.118454 4.449886
v -3.904200 -1.249104 -3.428187
v -3.904200 -1.249104 -2.041522
v -4.337200 -1.249104 -2.041522
v -4.337200 -1.249104 -3.428187
v -3.904200 -1.138480 -2.041522
v -3.904200 -1.138480 0.545336
v -4.337200 -1.138480 0.545336
v -4.337200 -1.138480 -2.041522
v -2.605200 -0.172031 -4.345834
v -2.605200 -0.496394 -4.628379
v -2.605200 -1.034703 -4.628379
v -2.605200 -1.034703 -4.345834
v -2.254801 -1.034703 5.401760
v -2.254801 -1.034703 5.719051
v -2.254801 -0.478574 5.719051
v -2.254801 -1.034703 6.010481
v -2.254801 -0.478574 6.010481
v -2.254801 -1.034703 -2.041522
v -2.254801 -1.034703 0.545336
v -2.254801 -0.478574 3.149762
v -2.254801 -0.478574 0.545336
v -2.254801 -1.034703 3.149762
v -2.254801 -0.478574 4.449886
v -2.254801 -1.034703 4.449886
v -2.254801 -0.478574 5.084469
v -2.254801 -1.034703 5.084469
v -2.254801 -0.478574 5.401760
v -2.254801 -0.478574 -2.041522
v -2.254801 -1.034703 -3.428187
v -2.254801 -0.478574 -3.428187
v -2.254801 -1.034703 -4.063289
v -2.254801 -0.478574 -4.063289
v -2.254801 -1.034703 -4.345834
v -2.254801 -0.478574 -4.345834
v -2.254801 -0.478574 -4.345834
v -2.254801 -0.487739 -4.628379
v -2.254801 -1.034703 -4.628379
v -2.254801 -1.034703 -4.345834
v -2.605200 -1.326541 5.719051
v -2.605200 -1.326541 6.010481
v -2.254801 -1.326541 5.719051
v -2.254801 -1.326541 6.010481
v -2.605200 -1.218456 5.401760
v -2.605200 -1.218456 5.719051
v -2.254801 -1.218456 5.401760
v -2.254801 -1.218456 5.719051
v -2.605200 -1.140779 5.084469
v -2.605200 -1.140779 5.401760
v -2.254801 -1.140779 5.084469
v -2.254801 -1.140779 5.401760
v -2.254801 -1.424620 -4.628379
v -2.605200 -1.424620 -4.628379
v -2.605200 -1.424620 -4.345834
v -2.254801 -1.424620 -4.345834
v -2.254801 -1.232304 -4.063289
v -2.605200 -1.232304 -4.063289
v -2.605200 -1.232304 -4.345834
v -2.254801 -1.232304 -4.345834
v -2.254801 -1.113445 -4.063289
v -2.605200 -1.113445 -4.063289
v -2.605200 -1.113445 -3.428187
v -2.254801 -1.113445 -3.428187
v 4.191493 -1.607127 -4.270649
v 4.191493 -1.355566 -4.174330
v 2.808508 -1.607128 -4.270649
v 4.191493 -1.858689 -4.174330
v 4.191493 -2.100583 -3.889075
v 2.808508 -1.858689 -4.174330
v 2.808508 -2.100583 -3.889075
v 2.808508 -2.323513 -3.425845
v 2.808508 -2.518914 -2.802442
v 4.191493 -2.323513 -3.425845
v 4.191493 -2.518913 -2.802442
v 4.191493 -2.679274 -2.042823
v 4.191493 -2.798433 -1.176181
v 2.808508 -2.679275 -2.042823
v 2.808508 -2.798433 -1.176181
v 2.808508 -2.871811 -0.235818
v 2.808508 -2.896587 0.742126
v 4.191493 -2.871811 -0.235818
v 4.191493 -2.896587 0.742126
v 4.191493 -2.871811 1.720070
v 4.191493 -2.798433 2.660432
v 2.808508 -2.871811 1.720070
v 2.808508 -2.798433 2.660432
v 2.808508 -2.679275 3.527075
v 2.808508 -2.518914 4.286693
v 4.191493 -2.679274 3.527075
v 4.191493 -2.518913 4.286693
v 4.191493 -2.323513 4.910097
v 4.191493 -2.100583 5.373327
v 2.808508 -2.323513 4.910097
v 2.808508 -2.100583 5.373327
v 2.808508 -1.858689 5.658582
v 2.808508 -1.607128 5.754901
v 4.191493 -1.858689 5.658582
v 4.191493 -1.607127 5.754901
v 4.191493 -1.355566 5.658582
v 4.191493 -1.113672 5.373327
v 2.808508 -1.355566 5.658582
v 2.808508 -1.113672 5.373327
v 2.808508 -0.890742 4.910097
v 2.808508 -0.695342 4.286693
v 4.191493 -0.890742 4.910097
v 4.191493 -0.695342 4.286693
v 4.191493 -0.534981 3.527075
v 4.191493 -0.415822 2.660432
v 2.808508 -0.534981 3.527075
v 2.808508 -0.415822 2.660432
v 2.808508 -0.342444 1.720070
v 2.808508 -0.317667 0.742126
v 4.191493 -0.342444 1.720070
v 4.191493 -0.317667 0.742126
v 4.191493 -0.342444 -0.235818
v 4.191493 -0.415822 -1.176181
v 2.808508 -0.342444 -0.235818
v 2.808508 -0.415822 -1.176181
v 2.808508 -0.534981 -2.042823
v 2.808508 -0.695342 -2.802442
v 4.191493 -0.534981 -2.042823
v 4.191493 -0.695342 -2.802442
v 4.191493 -0.890742 -3.425845
v 4.191493 -1.113672 -3.889075
v 2.808508 -0.890742 -3.425845
v 2.808508 -1.113672 -3.889075
v 2.808508 -1.355566 -4.174330
v -2.826288 -2.327928 1.671969
v -2.826288 -2.327928 -2.306001
v -2.826288 -0.480230 4.918484
v 2.826289 -2.327928 1.671969
v 2.826289 -2.327928 -2.306001
v 2.826289 -0.480230 4.918484
v 2.826289 -0.480230 -3.920352
v -2.826288 -0.480230 -3.920352
v -2.826288 -1.528212 4.661750
v 2.826289 -1.528212 4.661750
v 2.826289 -1.528212 -3.920352
v -2.826288 -1.528212 -3.920352
v 2.826289 -1.928070 3.790730
v 2.826289 -1.928070 -3.519473
v -2.826288 -1.928070 -3.519473
v -2.826288 -1.928070 3.790730
v -4.191493 -1.753581 5.766388
v -2.808507 -1.753581 5.766388
v -2.808507 -2.005142 5.670069
v -4.191493 -2.005142 5.670069
v -4.191493 -2.247036 5.384814
v -2.808507 -2.247036 5.384814
v -2.808507 -2.469967 4.921584
v -4.191493 -2.469967 4.921584
v -4.191493 -2.665367 4.298181
v -2.808507 -2.665367 4.298181
v -2.808507 -2.825728 3.538563
v -4.191493 -2.825728 3.538563
v -4.191493 -2.944887 2.671920
v -2.808507 -2.944886 2.671920
v -2.808507 -3.018264 1.731558
v -4.191493 -3.018265 1.731558
v -4.191493 -3.043041 0.753614
v -2.808507 -3.043041 0.753614
v -2.808507 -3.018264 -0.224330
v -4.191493 -3.018265 -0.224330
v -4.191493 -2.944887 -1.164692
v -2.808507 -2.944886 -1.164692
v -2.808507 -2.825728 -2.031335
v -4.191493 -2.825728 -2.031335
v -4.191493 -2.665367 -2.790953
v -2.808507 -2.665367 -2.790953
v -2.808507 -2.469967 -3.414356
v -4.191493 -2.469967 -3.414356
v -4.191493 -2.247036 -3.877586
v -2.808507 -2.247036 -3.877586
v -2.808507 -2.005142 -4.162842
v -4.191493 -2.005142 -4.162842
v 4.191493 -2.247036 -3.877587
v 4.191493 -2.005142 -4.162842
v 2.808508 -2.005142 -4.162842
v 2.808508 -2.247036 -3.877587
v 2.808508 -2.469967 -3.414357
v 2.808508 -2.665367 -2.790953
v 4.191493 -2.469967 -3.414357
v 4.191493 -2.665367 -2.790953
v 4.191493 -2.944887 -1.164693
v 4.191493 -2.825728 -2.031335
v 2.808508 -2.825728 -2.031335
v 2.808508 -2.944887 -1.164693
v 2.808508 -3.018265 -0.224330
v 2.808508 -3.043041 0.753614
v 4.191493 -3.018265 -0.224330
v 4.191493 -3.043041 0.753614
v 4.191493 -2.944887 2.671920
v 4.191493 -3.018265 1.731558
v 2.808508 -3.018265 1.731558
v 2.808508 -2.944887 2.671920
v 2.808508 -2.825728 3.538563
v 2.808508 -2.665367 4.298181
v 4.191493 -2.825728 3.538563
v 4.191493 -2.665367 4.298181
v 4.191493 -2.247036 5.384815
v 4.191493 -2.469967 4.921585
v 2.808508 -2.469967 4.921585
v 2.808508 -2.247036 5.384815
v 2.808508 -2.005142 5.670070
v 2.808508 -1.753581 5.766389
v 4.191493 -2.005142 5.670070
v 4.191493 -1.753581 5.766389
vn -0.0000 0.3576 -0.9339
vn -0.0000 0.7627 -0.6468
vn -0.0000 0.9011 -0.4336
vn -0.0000 0.9542 -0.2991
vn -0.0000 0.9784 -0.2066
vn -0.0000 0.9907 -0.1362
vn -0.0000 0.9970 -0.0778
vn -0.0000 0.9997 -0.0253
vn -0.0000 0.9997 0.0253
vn -0.0000 0.9970 0.0778
vn -0.0000 0.9907 0.1362
vn -0.0000 0.9784 0.2066
vn -0.0000 0.9542 0.2991
vn -0.0000 0.9011 0.4336
vn -0.0000 0.7627 0.6468
vn -0.0000 0.3576 0.9339
vn -0.0000 0.0782 0.9969
vn -0.0000 -0.7627 0.6468
vn -1.0000 -0.0000 -0.0000
vn -0.0000 -0.9542 0.2991
vn 1.0000 -0.0000 -0.0000
vn -0.0000 -0.9907 0.1362
vn -0.0000 -0.0782 -0.9969
vn -0.0000 -0.9997 0.0253
vn -0.0000 -0.9970 -0.0778
vn -0.0000 -0.9784 -0.2066
vn -0.0000 -0.9011 -0.4336
vn -0.0000 -0.3576 -0.9339
vn -0.0000 1.0000 -0.0000
vn -0.0000 -0.0000 -1.0000
vn -0.0000 -0.0000 1.0000
vn -0.0000 0.6909 0.7230
vn -0.6583 0.7528 -0.0000
vn 0.5785 0.8156 0.0048
vn -0.0000 -1.0000 -0.0000
vn 0.5758 0.8168 -0.0344
vn 0.4263 0.9046 0.0026
vn 0.5516 0.8324 0.0531
vn 0.5587 0.8294 0.0062
vn 0.5758 0.8168 0.0350
vn 0.5762 0.8173 -0.0000
vn -0.0213 0.9992 -0.0344
vn -0.0000 0.6568 -0.7540
vn -0.0000 1.0000 -0.0079
vn -0.0045 1.0000 -0.0000
vn -0.4980 0.5696 -0.6539
vn -0.0000 -0.6909 -0.7230
vn -0.6584 -0.7526 -0.0000
vn 0.5787 -0.8155 -0.0048
vn 0.5760 -0.8167 0.0343
vn 0.4264 -0.9045 -0.0026
vn 0.5518 -0.8323 -0.0531
vn 0.5588 -0.8293 -0.0062
vn 0.5760 -0.8167 -0.0350
vn 0.5763 -0.8172 -0.0000
vn -0.0214 -0.9992 0.0344
vn -0.0000 -0.6568 0.7540
vn -0.0000 -1.0000 0.0079
vn -0.0045 -1.0000 -0.0000
vn -0.4982 -0.5695 0.6538
vn -0.0000 -0.2379 0.9713
vn -0.0000 -0.7080 -0.7062
vn -0.0000 -0.9088 0.4172
vn -0.0000 -0.9827 0.1854
vn -0.0000 -0.9498 -0.3130
vn -0.0000 -0.3576 0.9339
vn -0.0000 -0.9011 0.4336
vn -0.0000 -0.9784 0.2066
vn -0.0000 -0.9970 0.0778
vn -0.0000 -0.9997 -0.0253
vn -0.0000 -0.9907 -0.1362
vn -0.0000 -0.9542 -0.2991
vn -0.0000 -0.7627 -0.6468
vn 0.4133 0.9106 -0.0000
vn 0.4263 0.9046 -0.0000
vn 0.5524 0.8336 -0.0000
vn 0.5587 0.8294 -0.0000
vn 0.4202 0.5960 -0.6843
vn 0.4401 0.6204 0.6492
vn -0.5171 0.5913 0.6188
vn 0.0247 0.9992 -0.0324
vn 0.5764 -0.8172 -0.0000
vn 0.4134 -0.9105 -0.0000
vn 0.4264 -0.9045 -0.0000
vn 0.5526 -0.8335 -0.0000
vn 0.5588 -0.8293 -0.0000
vn 0.4203 -0.5960 0.6842
vn 0.4402 -0.6203 -0.6491
vn -0.5173 -0.5913 -0.6187
vn 0.0247 -0.9992 0.0324
vt 0.709736 0.011453
vt 0.640096 0.027352
vt 0.639658 0.013702
vt 0.710084 0.025419
vt 0.640683 0.046268
vt 0.710743 0.070809
vt 0.641443 0.072151
vt 0.642358 0.104784
vt 0.710935 0.142236
vt 0.643406 0.143082
vt 0.710669 0.184821
vt 0.644578 0.185467
vt 0.645872 0.230062
vt 0.710103 0.229580
vt 0.647302 0.274859
vt 0.709224 0.274502
vt 0.648886 0.317881
vt 0.708044 0.317610
vt 0.650640 0.357345
vt 0.706586 0.357121
vt 0.652576 0.391804
vt 0.704887 0.391591
vt 0.654694 0.420264
vt 0.702985 0.420029
vt 0.656977 0.442271
vt 0.698708 0.457603
vt 0.659395 0.457965
vt 0.661906 0.468163
vt 0.696387 0.467708
vt 0.664481 0.474614
vt 0.653174 0.543030
vt 0.645703 0.540378
vt 0.644478 0.538954
vt 0.682937 0.483054
vt 0.673276 0.481816
vt 0.674246 0.479466
vt 0.520403 0.699161
vt 0.523409 0.700574
vt 0.520738 0.700191
vt 0.679707 0.489980
vt 0.670227 0.490060
vt 0.671926 0.486384
vt 0.491223 0.691917
vt 0.488162 0.689799
vt 0.490945 0.690828
vt 0.675456 0.499636
vt 0.665168 0.499759
vt 0.668053 0.495076
vt 0.674780 0.497955
vt 0.669288 0.509861
vt 0.659546 0.510544
vt 0.662473 0.505724
vt 0.526730 0.701167
vt 0.525044 0.706710
vt 0.524046 0.707653
vt 0.663519 0.520245
vt 0.654028 0.520948
vt 0.656714 0.516307
vt 0.493343 0.686859
vt 0.494303 0.686359
vt 0.658514 0.530376
vt 0.648953 0.530589
vt 0.651153 0.526457
vt 0.676702 0.494208
vt 0.678008 0.493656
vt 0.645993 0.535721
vt 0.282186 0.059309
vt 0.361748 0.012649
vt 0.550342 0.037589
vt 0.490633 0.685424
vt 0.490258 0.684496
vt 0.652997 0.548387
vt 0.639658 0.545887
vt 0.640614 0.543475
vt 0.761787 0.015415
vt 0.808447 0.128023
vt 0.783507 0.298954
vt 0.327093 0.134816
vt 0.311800 0.133028
vt 0.327069 0.134797
vt 0.332246 0.167042
vt 0.321027 0.182673
vt 0.318244 0.170495
vt 0.536708 0.431087
vt 0.558341 0.415989
vt 0.551027 0.433902
vt 0.541496 0.450156
vt 0.600554 0.449145
vt 0.582368 0.462432
vt 0.587405 0.445211
vt 0.580823 0.369165
vt 0.579626 0.383682
vt 0.572909 0.378057
vt 0.565088 0.387460
vt 0.564764 0.401996
vt 0.557583 0.397313
vt 0.511958 0.454844
vt 0.519431 0.479388
vt 0.501801 0.468613
vt 0.572118 0.393054
vt 0.573178 0.409692
vt 0.327834 0.145303
vt 0.315751 0.158823
vt 0.313482 0.146818
vt 0.311782 0.133031
vt 0.569214 0.458633
vt 0.574151 0.441193
vt 0.533306 0.323126
vt 0.570799 0.340646
vt 0.561165 0.350415
vt 0.586774 0.375008
vt 0.589172 0.390996
vt 0.549118 0.411421
vt 0.534590 0.457156
vt 0.522599 0.443892
vt 0.329741 0.156131
vt 0.354942 0.271000
vt 0.401305 0.334898
vt 0.346451 0.279426
vt 0.394086 0.232484
vt 0.436591 0.300990
vt 0.381672 0.243223
vt 0.413816 0.215124
vt 0.457522 0.282152
vt 0.404027 0.223793
vt 0.336670 0.289030
vt 0.382373 0.353991
vt 0.327849 0.298186
vt 0.391880 0.344530
vt 0.447591 0.291153
vt 0.423462 0.206441
vt 0.467365 0.273099
vt 0.408008 0.322001
vt 0.409103 0.326497
vt 0.420752 0.314272
vt 0.369929 0.254306
vt 0.288672 0.277949
vt 0.295731 0.269897
vt 0.440202 0.414587
vt 0.374610 0.361547
vt 0.460438 0.397635
vt 0.505060 0.352199
vt 0.494615 0.363438
vt 0.514493 0.342284
vt 0.450684 0.405849
vt 0.477134 0.264004
vt 0.523899 0.332599
vt 0.469885 0.389255
vt 0.481104 0.377970
vt 0.306537 0.123987
vt 0.321600 0.117524
vt 0.314765 0.124556
vt 0.487755 0.430102
vt 0.534842 0.379595
vt 0.523993 0.392347
vt 0.543596 0.369502
vt 0.464350 0.444793
vt 0.477083 0.440414
vt 0.552345 0.359793
vt 0.510065 0.405414
vt 0.481924 0.381467
vt 0.379476 0.156535
vt 0.394528 0.153782
vt 0.384677 0.162485
vt 0.497029 0.419066
vt 0.503500 0.446587
vt 0.550000 0.391869
vt 0.540523 0.405446
vt 0.557979 0.381734
vt 0.490634 0.459192
vt 0.475829 0.445533
vt 0.566133 0.372173
vt 0.525322 0.421382
vt 0.511415 0.412436
vt 0.158138 0.020844
vt 0.152162 0.017429
vt 0.155758 0.016189
vt 0.514304 0.433357
vt 0.489161 0.470073
vt 0.574454 0.363049
vt 0.524582 0.431253
vt 0.354123 0.209646
vt 0.341700 0.221274
vt 0.343747 0.230741
vt 0.396478 0.176058
vt 0.386997 0.184197
vt 0.377299 0.192195
vt 0.367264 0.200055
vt 0.315634 0.244666
vt 0.303731 0.254514
vt 0.326959 0.235788
vt 0.487565 0.254184
vt 0.313640 0.216805
vt 0.301904 0.226840
vt 0.356593 0.185134
vt 0.342984 0.192371
vt 0.375444 0.170399
vt 0.366115 0.178052
vt 0.285807 0.246695
vt 0.289597 0.236080
vt 0.326859 0.216098
vt 0.325200 0.201911
vt 0.315906 0.126813
vt 0.313791 0.126196
vt 0.339603 0.184908
vt 0.323117 0.191402
vt 0.305074 0.197592
vt 0.370380 0.164416
vt 0.361334 0.172085
vt 0.352567 0.178966
vt 0.303734 0.192355
vt 0.289014 0.208669
vt 0.294852 0.152061
vt 0.583889 0.353660
vt 0.299980 0.174151
vt 0.345003 0.171353
vt 0.335667 0.177837
vt 0.362617 0.155431
vt 0.353634 0.163277
vt 0.297607 0.163056
vt 0.306526 0.123983
vt 0.285027 0.130560
vt 0.297762 0.119442
vt 0.371669 0.147561
vt 0.288147 0.134765
vt 0.293922 0.268311
vt 0.605608 0.432290
vt 0.613665 0.453046
vt 0.579542 0.424383
vt 0.592541 0.428367
vt 0.566741 0.420209
vt 0.560569 0.436922
vt 0.527012 0.467490
vt 0.154857 0.027701
vt 0.146529 0.039699
vt 0.147629 0.028088
vt 0.513460 0.491185
vt 0.498271 0.485272
vt 0.581196 0.400616
vt 0.542406 0.462528
vt 0.542671 0.478035
vt 0.535212 0.473166
vt 0.528037 0.484416
vt 0.521663 0.495659
vt 0.529092 0.499986
vt 0.548161 0.452163
vt 0.549914 0.466935
vt 0.535564 0.489005
vt 0.595491 0.466293
vt 0.161300 0.030094
vt 0.151515 0.040466
vt 0.555977 0.455031
vt 0.298192 0.202147
vt 0.294771 0.196447
vt 0.285121 0.202120
vt 0.278918 0.214899
vt 0.274974 0.207957
vt 0.267754 0.220660
vt 0.264170 0.213585
vt 0.291501 0.190012
vt 0.281454 0.195546
vt 0.271276 0.201130
vt 0.260592 0.206617
vt 0.301880 0.185394
vt 0.291365 0.141278
vt 0.276170 0.238955
vt 0.326076 0.221593
vt 0.323846 0.217690
vt 0.329203 0.220058
vt 0.523973 0.433212
vt 0.522848 0.432285
vt 0.525416 0.432419
vt 0.283088 0.263212
vt 0.276767 0.247724
vt 0.283380 0.125041
vt 0.284832 0.117083
vt 0.290744 0.255163
vt 0.487608 0.482409
vt 0.480600 0.475307
vt 0.163140 0.036831
vt 0.158820 0.034259
vt 0.477308 0.469914
vt 0.492719 0.473213
vt 0.473241 0.465402
vt 0.465358 0.448248
vt 0.174145 0.037914
vt 0.164281 0.034841
vt 0.165620 0.032666
vt 0.483228 0.458320
vt 0.512905 0.427176
vt 0.504044 0.418218
vt 0.519457 0.421897
vt 0.496158 0.414739
vt 0.473424 0.389008
vt 0.506260 0.405795
vt 0.352419 0.260251
vt 0.335355 0.236469
vt 0.361203 0.253835
vt 0.371380 0.260457
vt 0.359907 0.270756
vt 0.416458 0.314449
vt 0.596504 0.380503
vt 0.596381 0.366968
vt 0.603085 0.372439
vt 0.316204 0.106301
vt 0.371678 0.147553
vt 0.379485 0.156527
vt 0.162685 0.010603
vt 0.165188 0.013358
vt 0.200861 0.037333
vt 0.233027 0.069549
vt 0.195685 0.045307
vt 0.182220 0.025231
vt 0.177043 0.033205
vt 0.173121 0.019324
vt 0.167940 0.028122
vt 0.168919 0.016341
vt 0.163590 0.024368
vt 0.238203 0.061575
vt 0.270117 0.093628
vt 0.275293 0.085654
vt 0.289999 0.106535
vt 0.295175 0.098562
vt 0.299145 0.113298
vt 0.304612 0.104469
vt 0.303646 0.114986
vt 0.326158 0.123604
vt 0.166491 0.028437
vt 0.406502 0.167179
vt 0.320469 0.305941
vt 0.159392 0.024139
vt 0.543460 0.313154
vt 0.309167 0.107621
vt 0.316181 0.106307
vt 0.301666 0.118353
vt 0.590256 0.360217
vt 0.433691 0.197080
vt 0.383725 0.144368
vt 0.629272 0.439408
vt 0.624255 0.456208
vt 0.432029 0.421671
vt 0.147883 0.021407
vt 0.153761 0.020627
vt 0.152075 0.022922
vt 0.611032 0.461863
vt 0.158119 0.026058
vt 0.160885 0.025446
vt 0.159824 0.027277
vt 0.162883 0.029394
vt 0.164932 0.030878
vt 0.164232 0.027091
vt 0.313799 0.126185
vt 0.313778 0.126195
vt 0.313780 0.126178
vt 0.300192 0.117591
vt 0.302019 0.116580
vt 0.300801 0.115988
vt 0.285248 0.115120
vt 0.297787 0.113814
vt 0.296567 0.117788
vt 0.289394 0.107334
vt 0.191153 0.264270
vt 0.175860 0.262484
vt 0.191128 0.264252
vt 0.196301 0.296482
vt 0.185080 0.312107
vt 0.182299 0.299933
vt 0.400762 0.560523
vt 0.422396 0.545423
vt 0.415082 0.563336
vt 0.405553 0.579592
vt 0.464593 0.578569
vt 0.446414 0.591861
vt 0.451449 0.574638
vt 0.444860 0.498618
vt 0.443668 0.513130
vt 0.436951 0.507505
vt 0.429134 0.516904
vt 0.428814 0.531435
vt 0.421633 0.526752
vt 0.376022 0.584273
vt 0.383501 0.608811
vt 0.365870 0.598036
vt 0.436164 0.522497
vt 0.437228 0.539129
vt 0.191893 0.274753
vt 0.179808 0.288267
vt 0.177541 0.276267
vt 0.175842 0.262487
vt 0.433266 0.588065
vt 0.438201 0.570623
vt 0.397343 0.452579
vt 0.434834 0.470101
vt 0.425202 0.479868
vt 0.450812 0.504461
vt 0.453214 0.520443
vt 0.413171 0.540856
vt 0.398651 0.586590
vt 0.386659 0.573325
vt 0.193798 0.285575
vt 0.218999 0.400431
vt 0.265366 0.464326
vt 0.210512 0.408854
vt 0.258133 0.361922
vt 0.300643 0.430425
vt 0.245723 0.372658
vt 0.277854 0.344570
vt 0.321566 0.411595
vt 0.268070 0.353235
vt 0.200736 0.418453
vt 0.246443 0.483410
vt 0.191919 0.427604
vt 0.255945 0.473953
vt 0.311639 0.420592
vt 0.287496 0.335891
vt 0.331405 0.402546
vt 0.272065 0.451433
vt 0.273160 0.455928
vt 0.284804 0.443708
vt 0.233980 0.383741
vt 0.152746 0.407362
vt 0.159802 0.399314
vt 0.304275 0.544008
vt 0.238683 0.490962
vt 0.324501 0.527063
vt 0.369110 0.481639
vt 0.358669 0.492873
vt 0.378538 0.471728
vt 0.314752 0.535273
vt 0.341169 0.393455
vt 0.387941 0.462048
vt 0.333943 0.518687
vt 0.345158 0.507406
vt 0.170600 0.253444
vt 0.185660 0.246982
vt 0.178824 0.254015
vt 0.351818 0.559530
vt 0.398892 0.509034
vt 0.388047 0.521782
vt 0.407642 0.498946
vt 0.328425 0.574213
vt 0.341152 0.569835
vt 0.416387 0.489242
vt 0.374120 0.534850
vt 0.345978 0.510903
vt 0.243511 0.285985
vt 0.258559 0.283234
vt 0.248711 0.291934
vt 0.361088 0.548499
vt 0.367563 0.576015
vt 0.414050 0.521309
vt 0.404577 0.534881
vt 0.422026 0.511178
vt 0.354703 0.588614
vt 0.339898 0.574954
vt 0.430175 0.501621
vt 0.389376 0.550817
vt 0.375471 0.541873
vt 0.022217 0.150255
vt 0.016241 0.146839
vt 0.019838 0.145600
vt 0.378362 0.562791
vt 0.353230 0.599496
vt 0.438492 0.492502
vt 0.388638 0.560689
vt 0.218175 0.339080
vt 0.205751 0.350708
vt 0.207799 0.360177
vt 0.260512 0.305508
vt 0.251035 0.313643
vt 0.241342 0.321637
vt 0.231312 0.329493
vt 0.179695 0.374094
vt 0.167798 0.383937
vt 0.191015 0.365220
vt 0.351598 0.383637
vt 0.177696 0.346235
vt 0.165965 0.356266
vt 0.220641 0.314572
vt 0.207036 0.321806
vt 0.239483 0.299845
vt 0.230159 0.307494
vt 0.149874 0.376118
vt 0.153663 0.365503
vt 0.190913 0.345532
vt 0.189252 0.331345
vt 0.179965 0.256272
vt 0.177851 0.255654
vt 0.203656 0.314342
vt 0.187169 0.320836
vt 0.169125 0.327024
vt 0.234419 0.293862
vt 0.225378 0.301526
vt 0.216616 0.308404
vt 0.167786 0.321788
vt 0.153074 0.338096
vt 0.158911 0.281508
vt 0.447924 0.483115
vt 0.164034 0.303588
vt 0.209052 0.300791
vt 0.199720 0.307272
vt 0.226657 0.284877
vt 0.217679 0.292720
vt 0.161663 0.292498
vt 0.170589 0.253440
vt 0.149090 0.260011
vt 0.161827 0.248897
vt 0.235704 0.277011
vt 0.152209 0.264218
vt 0.157994 0.397728
vt 0.469645 0.561715
vt 0.477697 0.582468
vt 0.443591 0.553813
vt 0.456584 0.557794
vt 0.430796 0.549643
vt 0.424625 0.566356
vt 0.391077 0.596919
vt 0.018935 0.157111
vt 0.010602 0.169107
vt 0.011706 0.157496
vt 0.377533 0.620603
vt 0.362344 0.614690
vt 0.445242 0.530058
vt 0.406467 0.591961
vt 0.406737 0.607462
vt 0.399278 0.602593
vt 0.392107 0.613839
vt 0.385736 0.625077
vt 0.393166 0.629404
vt 0.412218 0.581599
vt 0.413976 0.596366
vt 0.399635 0.618427
vt 0.459531 0.595718
vt 0.025377 0.159505
vt 0.015589 0.169875
vt 0.420035 0.584466
vt 0.162247 0.331577
vt 0.158826 0.325877
vt 0.149181 0.331546
vt 0.142983 0.344322
vt 0.139039 0.337381
vt 0.131824 0.350081
vt 0.128240 0.343006
vt 0.155557 0.319441
vt 0.145514 0.324972
vt 0.135340 0.330554
vt 0.124662 0.336038
vt 0.165932 0.314827
vt 0.155426 0.270730
vt 0.140242 0.368376
vt 0.190131 0.351024
vt 0.187901 0.347122
vt 0.193255 0.349490
vt 0.388030 0.562645
vt 0.386906 0.561720
vt 0.389471 0.561854
vt 0.147158 0.392631
vt 0.140838 0.377145
vt 0.147442 0.254490
vt 0.148898 0.246532
vt 0.154810 0.384586
vt 0.351680 0.611828
vt 0.344673 0.604726
vt 0.027215 0.166244
vt 0.022896 0.163670
vt 0.341382 0.599333
vt 0.356788 0.602636
vt 0.337314 0.594821
vt 0.329433 0.577668
vt 0.038221 0.167329
vt 0.028357 0.164254
vt 0.029697 0.162079
vt 0.347297 0.587741
vt 0.376962 0.556609
vt 0.368102 0.547652
vt 0.383511 0.551333
vt 0.360216 0.544171
vt 0.337483 0.518440
vt 0.370314 0.535230
vt 0.216475 0.389682
vt 0.199411 0.365902
vt 0.225254 0.383269
vt 0.235432 0.389892
vt 0.223964 0.400188
vt 0.280510 0.443884
vt 0.460541 0.509954
vt 0.460416 0.496423
vt 0.467120 0.501894
vt 0.180272 0.235760
vt 0.235713 0.277003
vt 0.243520 0.285977
vt 0.026767 0.140015
vt 0.029269 0.142771
vt 0.064939 0.166757
vt 0.097099 0.198985
vt 0.059760 0.174730
vt 0.046299 0.154650
vt 0.041120 0.162623
vt 0.037201 0.148740
vt 0.032017 0.157537
vt 0.033000 0.145755
vt 0.027668 0.153781
vt 0.102278 0.191012
vt 0.134186 0.223076
vt 0.139365 0.215102
vt 0.154067 0.235989
vt 0.159246 0.228016
vt 0.163212 0.242755
vt 0.168681 0.233927
vt 0.167713 0.244444
vt 0.190219 0.253064
vt 0.030567 0.157852
vt 0.270533 0.296631
vt 0.184542 0.435356
vt 0.023470 0.153551
vt 0.407495 0.442609
vt 0.173237 0.237080
vt 0.180249 0.235766
vt 0.165731 0.247809
vt 0.454291 0.489672
vt 0.297722 0.326533
vt 0.247756 0.273821
vt 0.493298 0.568826
vt 0.488283 0.585627
vt 0.296106 0.551088
vt 0.011962 0.150815
vt 0.017839 0.150037
vt 0.016153 0.152330
vt 0.475066 0.591284
vt 0.022197 0.155469
vt 0.024962 0.154858
vt 0.023901 0.156688
vt 0.026960 0.158806
vt 0.029009 0.160291
vt 0.028309 0.156505
vt 0.177858 0.255643
vt 0.177838 0.255653
vt 0.177840 0.255636
vt 0.164258 0.247047
vt 0.166084 0.246038
vt 0.164867 0.245445
vt 0.149314 0.244570
vt 0.161853 0.243270
vt 0.160632 0.247243
vt 0.153461 0.236788
vt 0.059309 0.484594
vt 0.012649 0.371986
vt 0.037589 0.201055
vt 0.011146 0.639565
vt 0.025648 0.710821
vt 0.011746 0.710938
vt 0.530646 0.701117
vt 0.529269 0.710938
vt 0.527476 0.710321
vt 0.670632 0.491148
vt 0.669316 0.494861
vt 0.180908 0.788243
vt 0.258005 0.737614
vt 0.447621 0.752972
vt 0.524319 0.700169
vt 0.521635 0.706655
vt 0.654194 0.538529
vt 0.654690 0.539798
vt 0.517312 0.697694
vt 0.517789 0.704666
vt 0.514699 0.703199
vt 0.497819 0.688307
vt 0.495695 0.693389
vt 0.494738 0.693865
vt 0.507102 0.699481
vt 0.513227 0.696185
vt 0.510581 0.701286
vt 0.501974 0.690518
vt 0.502801 0.697607
vt 0.499183 0.695632
vt 0.656314 0.534508
vt 0.654885 0.534901
vt 0.529395 0.701844
vt 0.527093 0.702478
vt 0.484676 0.688706
vt 0.487320 0.690094
vt 0.647424 0.535136
vt 0.482631 0.680472
vt 0.481362 0.687543
vt 0.479666 0.686741
vt 0.469059 0.666411
vt 0.474681 0.696021
vt 0.468623 0.698672
vt 0.459542 0.663591
vt 0.458878 0.701153
vt 0.443671 0.703383
vt 0.423139 0.657886
vt 0.422101 0.705297
vt 0.395119 0.655035
vt 0.393951 0.706857
vt 0.360873 0.652248
vt 0.359621 0.708059
vt 0.320080 0.708929
vt 0.278042 0.647144
vt 0.276780 0.709517
vt 0.232723 0.644980
vt 0.231537 0.709890
vt 0.187432 0.643165
vt 0.186377 0.710120
vt 0.144241 0.641737
vt 0.143369 0.710274
vt 0.105094 0.640705
vt 0.104450 0.710404
vt 0.071630 0.640043
vt 0.071256 0.710538
vt 0.044982 0.639688
vt 0.044909 0.710682
vt 0.025393 0.639556
vt 0.717589 0.730131
vt 0.778247 0.913441
vt 0.671881 0.881275
vt 0.521120 0.989224
vt 0.548590 0.747238
vt 0.573226 0.763810
vt 0.936196 0.740032
vt 0.955812 0.915064
vt 0.908975 0.761939
vt 0.680357 0.660032
vt 0.683833 0.696213
vt 0.731519 0.496419
vt 0.690286 0.709608
vt 0.581229 0.775364
vt 0.883539 0.767404
vt 0.924315 0.923911
vt 0.539026 0.966118
vt 0.563091 0.910253
vt 0.585575 0.806327
vt 0.855998 0.938681
vt 0.823955 0.762298
vt 0.687540 0.476761
vt 0.673273 0.478495
vt 0.669563 0.476548
vt 0.680557 0.486034
vt 0.673428 0.485928
vt 0.673828 0.483047
vt 0.671088 0.504635
vt 0.663642 0.505303
vt 0.665758 0.501096
vt 0.660089 0.511754
vt 0.663207 0.519197
vt 0.657851 0.515870
vt 0.654612 0.522130
vt 0.658149 0.529270
vt 0.652362 0.525969
vt 0.649687 0.531831
vt 0.651359 0.543444
vt 0.642736 0.542705
vt 0.526843 0.708798
vt 0.521160 0.705630
vt 0.518671 0.704089
vt 0.513524 0.697136
vt 0.514302 0.702333
vt 0.511424 0.700819
vt 0.505871 0.693456
vt 0.506745 0.698665
vt 0.503665 0.697170
vt 0.498099 0.689380
vt 0.498837 0.694793
vt 0.484739 0.682336
vt 0.484396 0.687583
vt 0.482289 0.687182
vt 0.477065 0.675607
vt 0.478362 0.686766
vt 0.476604 0.691001
vt 0.652081 0.546630
vt 0.672571 0.504319
vt 0.668974 0.508789
vt 0.486659 0.683696
vt 0.487614 0.683108
vt 0.484327 0.681274
vt 0.516517 0.697998
vt 0.666362 0.514681
vt 0.474870 0.669224
vt 0.665027 0.515003
vt 0.693981 0.474053
vt 0.479388 0.684196
vt 0.505592 0.692492
vt 0.508994 0.694643
vt 0.509748 0.694380
vt 0.678711 0.480050
vt 0.660834 0.524886
vt 0.659515 0.525232
vt 0.681967 0.485404
vt 0.501203 0.690783
vt 0.678846 0.488728
vt 0.710430 0.044639
vt 0.710938 0.103704
vt 0.700915 0.441984
vt 0.558402 0.044782
vt 0.560999 0.052116
vt 0.558034 0.059309
vt 0.549620 0.066084
vt 0.536082 0.072182
vt 0.517940 0.077368
vt 0.495890 0.081442
vt 0.470780 0.084249
vt 0.443575 0.085680
vt 0.415321 0.085680
vt 0.387102 0.084249
vt 0.360005 0.081442
vt 0.335069 0.077368
vt 0.313254 0.072182
vt 0.295397 0.066084
vt 0.274126 0.052116
vt 0.271529 0.044782
vt 0.274494 0.037589
vt 0.282907 0.030814
vt 0.296445 0.024716
vt 0.314588 0.019530
vt 0.336638 0.015455
vt 0.388953 0.011218
vt 0.417207 0.011218
vt 0.445425 0.012649
vt 0.472523 0.015455
vt 0.497459 0.019530
vt 0.519274 0.024716
vt 0.537130 0.030814
vt 0.652040 0.550799
vt 0.776314 0.301919
vt 0.768980 0.299322
vt 0.761787 0.291263
vt 0.755012 0.278051
vt 0.748914 0.260194
vt 0.743728 0.238379
vt 0.739654 0.213444
vt 0.736847 0.186346
vt 0.735416 0.158128
vt 0.735416 0.129873
vt 0.736847 0.102668
vt 0.739654 0.077559
vt 0.743728 0.055509
vt 0.748914 0.037366
vt 0.755012 0.023828
vt 0.768980 0.012450
vt 0.776314 0.015047
vt 0.783507 0.023106
vt 0.790282 0.036318
vt 0.796380 0.054175
vt 0.801566 0.075990
vt 0.805641 0.100926
vt 0.809878 0.156241
vt 0.809878 0.184496
vt 0.808447 0.211701
vt 0.805641 0.236811
vt 0.801566 0.258860
vt 0.796380 0.277003
vt 0.790283 0.290541
vt 0.389257 0.147848
vt 0.286864 0.276363
vt 0.618695 0.436198
vt 0.608604 0.470169
vt 0.158283 0.042158
vt 0.296310 0.127400
vt 0.172806 0.040089
vt 0.377424 0.139741
vt 0.456347 0.451350
vt 0.621623 0.465025
vt 0.253289 0.277300
vt 0.150938 0.405777
vt 0.482726 0.565619
vt 0.472638 0.599590
vt 0.022356 0.171570
vt 0.160371 0.256855
vt 0.036881 0.169505
vt 0.241455 0.269195
vt 0.320426 0.580768
vt 0.485652 0.594444
vt 0.044782 0.198089
vt 0.052116 0.200686
vt 0.059308 0.208746
vt 0.066084 0.221958
vt 0.072182 0.239814
vt 0.077368 0.261630
vt 0.081442 0.286565
vt 0.084249 0.313663
vt 0.085680 0.341881
vt 0.085680 0.370135
vt 0.084249 0.397340
vt 0.081443 0.422450
vt 0.077368 0.444500
vt 0.072182 0.462643
vt 0.066084 0.476181
vt 0.052116 0.487559
vt 0.044782 0.484962
vt 0.037589 0.476903
vt 0.030814 0.463691
vt 0.024716 0.445834
vt 0.019530 0.424019
vt 0.015455 0.399083
vt 0.011218 0.343767
vt 0.011218 0.315513
vt 0.012649 0.288308
vt 0.015455 0.263198
vt 0.019530 0.241148
vt 0.024715 0.223006
vt 0.030813 0.209468
vt 0.532439 0.701734
vt 0.456034 0.759747
vt 0.458999 0.766940
vt 0.456402 0.774274
vt 0.448343 0.781467
vt 0.435131 0.788243
vt 0.417274 0.794340
vt 0.395459 0.799526
vt 0.370523 0.803601
vt 0.343426 0.806407
vt 0.315207 0.807838
vt 0.286953 0.807838
vt 0.259748 0.806407
vt 0.234638 0.803601
vt 0.212588 0.799526
vt 0.194446 0.794340
vt 0.172495 0.781467
vt 0.169530 0.774274
vt 0.172127 0.766940
vt 0.180186 0.759747
vt 0.193398 0.752972
vt 0.211254 0.746874
vt 0.233070 0.741688
vt 0.285103 0.734807
vt 0.313321 0.733376
vt 0.341575 0.733376
vt 0.368780 0.734807
vt 0.393890 0.737614
vt 0.415940 0.741688
vt 0.434083 0.746874
vt 0.444538 0.660748
vt 0.321364 0.649592
vt 0.490727 0.989398
vt 0.987358 0.905298
vt 0.987358 0.576419
s 0
usemtl マテリアル
f 2/1/1 3/2/1 1/3/1
f 4/4/2 5/5/2 3/2/2
f 5/5/3 8/6/3 7/7/3
f 8/6/4 9/8/4 7/7/4
f 9/8/5 12/9/5 11/10/5
f 11/10/6 14/11/6 13/12/6
f 14/11/7 15/13/7 13/12/7
f 16/14/8 17/15/8 15/13/8
f 18/16/9 19/17/9 17/15/9
f 20/18/10 21/19/10 19/17/10
f 22/20/11 23/21/11 21/19/11
f 24/22/12 25/23/12 23/21/12
f 26/24/13 27/25/13 25/23/13
f 27/25/14 30/26/14 29/27/14
f 30/26/15 31/28/15 29/27/15
f 32/29/16 33/30/16 31/28/16
f 62/31/17 642/32/17 61/33/17
f 36/34/18 37/35/18 35/36/18
f 541/37/19 649/38/19 650/39/19
f 40/40/20 41/41/20 39/42/20
f 558/43/21 668/44/21 667/45/21
f 44/46/22 45/47/22 43/48/22
f 43/48/23 624/49/23 44/46/23
f 48/50/24 49/51/24 47/52/24
f 539/53/17 645/54/17 537/55/17
f 52/56/25 53/57/25 51/58/25
f 558/43/23 665/59/23 556/60/23
f 56/61/26 57/62/26 55/63/26
f 44/46/19 621/64/19 42/65/19
f 59/66/27 62/31/27 61/33/27
f 38/67/19 22/68/19 6/69/19
f 556/60/19 666/70/19 557/71/19
f 64/72/28 1/73/28 63/74/28
f 31/75/21 47/76/21 63/77/21
f 68/78/29 247/79/29 246/80/29
f 81/81/30 71/82/30 83/83/30
f 134/84/21 70/85/21 69/86/21
f 69/86/21 195/87/21 134/84/21
f 181/88/31 199/89/31 182/90/31
f 133/91/29 78/92/29 130/93/29
f 127/94/29 84/95/29 131/96/29
f 128/97/30 193/98/30 129/99/30
f 76/100/32 183/101/32 84/95/32
f 79/102/30 73/103/30 77/104/30
f 68/78/30 77/104/30 67/105/30
f 182/90/31 196/106/31 179/107/31
f 130/93/29 76/100/29 127/94/29
f 103/108/33 259/109/33 113/110/33
f 66/111/32 180/112/32 78/92/32
f 126/113/34 84/95/34 70/85/34
f 134/84/30 194/114/30 132/115/30
f 74/116/30 83/83/30 73/103/30
f 144/117/35 90/118/35 140/119/35
f 143/120/36 88/121/36 138/122/36
f 142/123/29 89/124/29 139/125/29
f 141/126/35 85/127/35 137/128/35
f 140/119/35 91/129/35 141/126/35
f 139/125/29 93/130/29 143/120/29
f 135/131/29 92/132/29 142/123/29
f 144/117/19 242/133/19 94/134/19
f 138/122/21 87/135/21 136/136/21
f 137/128/35 265/137/35 147/138/35
f 95/139/35 255/140/35 85/127/35
f 94/134/35 98/141/35 90/118/35
f 88/121/37 101/142/37 96/143/37
f 92/132/29 97/144/29 89/124/29
f 91/129/35 95/139/35 85/127/35
f 90/118/35 99/145/35 91/129/35
f 89/124/29 101/142/29 93/130/29
f 86/146/29 100/147/29 92/132/29
f 87/135/35 102/148/35 94/134/35
f 87/135/21 96/143/21 104/149/21
f 248/150/31 271/151/31 274/152/31
f 102/148/35 108/153/35 98/141/35
f 96/143/38 111/154/38 106/155/38
f 100/147/29 107/156/29 97/144/29
f 99/145/35 105/157/35 95/139/35
f 98/141/35 109/158/35 99/145/35
f 97/144/29 111/154/29 101/142/29
f 103/108/29 110/159/29 100/147/29
f 114/160/21 234/161/21 104/149/21
f 104/149/21 106/155/21 114/160/21
f 165/162/33 268/163/33 155/164/33
f 112/165/35 118/166/35 108/153/35
f 106/155/39 121/167/39 116/168/39
f 110/159/29 117/169/29 107/156/29
f 119/170/21 225/171/21 109/158/21
f 108/153/35 119/170/35 109/158/35
f 107/156/29 121/167/29 111/154/29
f 113/110/29 120/172/29 110/159/29
f 124/173/21 230/174/21 114/160/21
f 114/160/21 116/168/21 124/173/21
f 250/175/19 278/176/19 252/177/19
f 122/178/35 128/97/35 118/166/35
f 116/168/40 131/96/40 126/113/40
f 120/172/29 127/94/29 117/169/29
f 129/99/21 221/179/21 119/170/21
f 118/166/35 129/99/35 119/170/35
f 117/169/29 131/96/29 121/167/29
f 123/180/29 130/93/29 120/172/29
f 134/84/21 214/181/21 124/173/21
f 124/173/21 126/113/21 134/84/21
f 148/182/21 136/136/21 146/183/21
f 136/136/21 240/184/21 146/183/21
f 145/185/29 142/123/29 152/186/29
f 149/187/29 143/120/29 153/188/29
f 150/189/35 141/126/35 151/190/35
f 151/190/35 137/128/35 147/138/35
f 152/186/29 139/125/29 149/187/29
f 153/188/41 138/122/41 148/182/41
f 154/191/35 140/119/35 150/189/35
f 135/131/33 257/192/33 86/146/33
f 164/193/35 150/189/35 160/194/35
f 163/195/41 148/182/41 158/196/41
f 162/197/29 149/187/29 159/198/29
f 151/190/21 219/199/21 161/200/21
f 160/194/35 151/190/35 161/200/35
f 159/198/29 153/188/29 163/195/29
f 155/164/29 152/186/29 162/197/29
f 146/183/21 212/201/21 156/202/21
f 158/196/21 146/183/21 156/202/21
f 273/203/19 290/204/19 274/152/19
f 168/205/21 156/202/21 166/206/21
f 164/193/31 211/207/31 156/202/31
f 165/162/29 162/197/29 172/208/29
f 169/209/29 163/195/29 173/210/29
f 156/202/21 75/211/21 166/206/21
f 161/200/31 206/212/31 160/194/31
f 172/208/29 159/198/29 169/209/29
f 173/210/41 158/196/41 168/205/41
f 73/103/30 82/213/30 77/104/30
f 113/110/33 261/214/33 123/180/33
f 71/82/30 201/215/30 83/83/30
f 81/216/42 168/205/42 72/217/42
f 79/218/43 169/209/43 74/219/43
f 83/83/30 202/220/30 73/103/30
f 167/221/19 204/222/19 157/223/19
f 74/219/43 173/210/43 81/216/43
f 68/224/43 172/208/43 79/218/43
f 67/105/19 203/225/19 167/221/19
f 72/217/21 166/206/21 71/82/21
f 265/137/31 297/226/31 147/138/31
f 180/227/31 175/228/31 181/88/31
f 183/229/31 182/90/31 179/107/31
f 184/230/31 181/88/31 182/90/31
f 177/231/31 179/107/31 178/232/31
f 70/85/21 178/232/21 69/86/21
f 132/115/30 191/233/30 128/97/30
f 65/234/19 192/235/19 175/236/19
f 70/85/44 183/101/44 177/231/44
f 129/99/30 185/237/30 125/238/30
f 78/92/32 184/239/32 76/100/32
f 187/240/35 199/241/35 190/242/35
f 195/87/35 187/240/35 194/114/35
f 191/233/35 189/243/35 193/98/35
f 193/98/35 186/244/35 185/237/35
f 194/114/35 190/242/35 191/233/35
f 189/243/35 192/245/35 186/244/35
f 188/246/35 196/247/35 187/240/35
f 190/242/35 198/248/35 189/243/35
f 178/232/21 188/246/21 69/86/21
f 175/228/31 198/249/31 181/88/31
f 125/250/19 186/251/19 65/234/19
f 179/107/31 197/252/31 178/232/31
f 75/211/35 210/253/35 209/254/35
f 205/255/35 208/256/35 207/257/35
f 207/257/35 204/258/35 203/259/35
f 209/254/35 206/212/35 205/255/35
f 201/260/35 205/255/35 202/261/35
f 82/262/35 203/259/35 80/263/35
f 202/261/35 207/257/35 82/262/35
f 200/264/35 209/254/35 201/260/35
f 160/194/31 210/253/31 164/193/31
f 166/206/21 200/264/21 71/82/21
f 77/104/30 80/265/30 67/105/30
f 157/266/31 208/256/31 161/200/31
f 212/201/35 171/267/35 174/268/35
f 154/191/31 170/269/31 146/183/31
f 164/193/19 171/267/19 154/191/19
f 156/202/30 174/268/30 164/193/30
f 214/181/35 216/270/35 215/271/35
f 124/173/30 215/271/30 122/178/30
f 132/115/19 215/271/19 216/270/19
f 132/115/31 213/272/31 134/84/31
f 219/199/35 218/273/35 217/274/35
f 157/223/19 218/275/19 147/276/19
f 147/138/31 220/277/31 151/190/31
f 161/200/30 217/274/30 157/266/30
f 221/179/35 223/278/35 222/279/35
f 125/250/19 222/280/19 223/281/19
f 119/170/30 222/279/30 115/282/30
f 125/238/31 224/283/31 129/99/31
f 225/171/35 227/284/35 226/285/35
f 105/286/19 227/287/19 115/288/19
f 109/158/30 226/285/30 105/157/30
f 115/282/31 228/289/31 119/170/31
f 230/174/35 232/290/35 231/291/35
f 114/160/30 231/291/30 112/165/30
f 112/165/19 232/290/19 122/178/19
f 122/178/31 229/292/31 124/173/31
f 234/161/35 236/293/35 235/294/35
f 104/149/30 235/294/30 102/148/30
f 102/148/19 236/293/19 112/165/19
f 112/165/31 233/295/31 114/160/31
f 240/184/35 238/296/35 237/297/35
f 146/183/30 237/297/30 154/191/30
f 144/117/31 239/298/31 136/136/31
f 154/191/19 238/296/19 144/117/19
f 244/299/35 242/133/35 241/300/35
f 136/136/30 241/300/30 144/117/30
f 94/134/31 243/301/31 87/135/31
f 87/135/21 244/299/21 136/136/21
f 176/302/45 251/303/45 253/304/45
f 167/221/29 245/305/29 248/150/29
f 165/162/29 246/306/29 245/307/29
f 67/105/29 248/150/29 247/79/29
f 250/175/19 253/308/19 251/309/19
f 256/310/19 255/311/19 258/312/19
f 259/313/19 258/312/19 260/314/19
f 261/315/19 260/314/19 262/316/19
f 263/317/19 262/316/19 249/318/19
f 251/309/19 249/318/19 250/175/19
f 257/319/19 254/320/19 255/311/19
f 264/321/19 265/322/19 254/320/19
f 266/323/19 267/324/19 265/322/19
f 268/325/19 269/326/19 267/324/19
f 274/152/19 272/327/19 273/203/19
f 115/288/30 285/328/30 262/316/30
f 133/91/33 251/303/33 66/111/33
f 155/164/33 266/329/33 145/185/33
f 85/127/35 254/330/35 137/128/35
f 115/288/35 260/314/35 105/286/35
f 249/318/19 282/331/19 250/175/19
f 86/146/33 256/332/33 103/108/33
f 167/221/30 270/333/30 165/334/30
f 157/223/21 293/335/21 167/221/21
f 123/180/33 263/336/33 133/91/33
f 145/185/33 264/337/33 135/131/33
f 246/306/46 271/338/46 245/307/46
f 175/228/31 253/339/31 252/340/31
f 246/80/30 273/203/30 272/327/30
f 105/157/35 258/341/35 95/139/35
f 276/342/35 277/343/35 275/344/35
f 252/340/31 276/345/31 175/228/31
f 175/236/21 275/344/21 65/234/21
f 65/234/30 277/343/30 250/175/30
f 280/346/35 281/347/35 279/348/35
f 125/250/30 281/347/30 249/318/30
f 65/234/21 279/348/21 125/250/21
f 250/175/31 280/346/31 65/234/31
f 284/349/35 285/328/35 283/350/35
f 125/250/21 283/350/21 115/288/21
f 249/318/19 285/328/19 286/351/19
f 249/318/31 284/349/31 125/250/31
f 289/352/35 287/353/35 288/354/35
f 248/150/21 288/354/21 247/79/21
f 247/79/30 287/353/30 273/203/30
f 274/152/31 289/352/31 248/150/31
f 292/355/35 294/356/35 293/335/35
f 167/221/30 294/356/30 269/326/30
f 267/324/31 292/355/31 157/223/31
f 269/326/19 291/357/19 267/324/19
f 297/358/35 295/359/35 296/360/35
f 147/276/21 296/360/21 157/223/21
f 267/324/19 298/361/19 265/322/19
f 157/223/30 295/359/30 267/324/30
f 302/362/29 481/363/29 480/364/29
f 315/365/31 305/366/31 317/367/31
f 368/368/21 304/369/21 303/370/21
f 303/370/21 429/371/21 368/368/21
f 415/372/30 433/373/30 416/374/30
f 367/375/35 312/376/35 364/377/35
f 361/378/35 318/379/35 365/380/35
f 362/381/31 427/382/31 363/383/31
f 310/384/47 417/385/47 318/379/47
f 313/386/31 307/387/31 311/388/31
f 302/362/31 311/388/31 301/389/31
f 416/374/30 430/390/30 413/391/30
f 364/377/35 310/384/35 361/378/35
f 337/392/48 493/393/48 347/394/48
f 300/395/47 414/396/47 312/376/47
f 360/397/49 318/379/49 304/369/49
f 368/368/31 428/398/31 366/399/31
f 308/400/31 317/367/31 307/387/31
f 378/401/29 324/402/29 374/403/29
f 377/404/50 322/405/50 372/406/50
f 376/407/35 323/408/35 373/409/35
f 375/410/29 319/411/29 371/412/29
f 374/403/29 325/413/29 375/410/29
f 373/409/35 327/414/35 377/404/35
f 369/415/35 326/416/35 376/407/35
f 378/401/19 476/417/19 328/418/19
f 372/406/21 321/419/21 370/420/21
f 371/412/29 499/421/29 381/422/29
f 329/423/29 489/424/29 319/411/29
f 328/418/29 332/425/29 324/402/29
f 322/405/51 335/426/51 330/427/51
f 326/416/35 331/428/35 323/408/35
f 325/413/29 329/423/29 319/411/29
f 324/402/29 333/429/29 325/413/29
f 323/408/35 335/426/35 327/414/35
f 320/430/35 334/431/35 326/416/35
f 321/419/29 336/432/29 328/418/29
f 321/419/21 330/427/21 338/433/21
f 482/434/30 505/435/30 508/436/30
f 336/432/29 342/437/29 332/425/29
f 330/427/52 345/438/52 340/439/52
f 334/431/35 341/440/35 331/428/35
f 333/429/29 339/441/29 329/423/29
f 332/425/29 343/442/29 333/429/29
f 331/428/35 345/438/35 335/426/35
f 337/392/35 344/443/35 334/431/35
f 348/444/21 468/445/21 338/433/21
f 338/433/21 340/439/21 348/444/21
f 399/446/48 502/447/48 389/448/48
f 346/449/29 352/450/29 342/437/29
f 340/439/53 355/451/53 350/452/53
f 344/443/35 351/453/35 341/440/35
f 353/454/21 459/455/21 343/442/21
f 342/437/29 353/454/29 343/442/29
f 341/440/35 355/451/35 345/438/35
f 347/394/35 354/456/35 344/443/35
f 358/457/21 464/458/21 348/444/21
f 348/444/21 350/452/21 358/457/21
f 484/459/19 512/460/19 486/461/19
f 356/462/29 362/381/29 352/450/29
f 350/452/54 365/380/54 360/397/54
f 354/456/35 361/378/35 351/453/35
f 363/383/21 455/463/21 353/454/21
f 352/450/29 363/383/29 353/454/29
f 351/453/35 365/380/35 355/451/35
f 357/464/35 364/377/35 354/456/35
f 368/368/21 448/465/21 358/457/21
f 358/457/21 360/397/21 368/368/21
f 382/466/21 370/420/21 380/467/21
f 370/420/21 474/468/21 380/467/21
f 379/469/35 376/407/35 386/470/35
f 383/471/35 377/404/35 387/472/35
f 384/473/29 375/410/29 385/474/29
f 385/474/29 371/412/29 381/422/29
f 386/470/35 373/409/35 383/471/35
f 387/472/55 372/406/55 382/466/55
f 388/475/29 374/403/29 384/473/29
f 369/415/48 491/476/48 320/430/48
f 398/477/29 384/473/29 394/478/29
f 397/479/55 382/466/55 392/480/55
f 396/481/35 383/471/35 393/482/35
f 385/474/21 453/483/21 395/484/21
f 394/478/29 385/474/29 395/484/29
f 393/482/35 387/472/35 397/479/35
f 389/448/35 386/470/35 396/481/35
f 380/467/21 446/485/21 390/486/21
f 392/480/21 380/467/21 390/486/21
f 507/487/19 524/488/19 508/436/19
f 402/489/21 390/486/21 400/490/21
f 398/477/30 445/491/30 390/486/30
f 399/446/35 396/481/35 406/492/35
f 403/493/35 397/479/35 407/494/35
f 390/486/21 309/495/21 400/490/21
f 395/484/30 440/496/30 394/478/30
f 406/492/35 393/482/35 403/493/35
f 407/494/55 392/480/55 402/489/55
f 307/387/31 316/497/31 311/388/31
f 347/394/48 495/498/48 357/464/48
f 305/366/31 435/499/31 317/367/31
f 315/500/56 402/489/56 306/501/56
f 313/502/57 403/493/57 308/503/57
f 317/367/31 436/504/31 307/387/31
f 401/505/19 438/506/19 391/507/19
f 308/503/57 407/494/57 315/500/57
f 302/508/57 406/492/57 313/502/57
f 301/389/19 437/509/19 401/505/19
f 306/501/21 400/490/21 305/366/21
f 499/421/30 531/510/30 381/422/30
f 414/511/30 409/512/30 415/372/30
f 417/513/30 416/374/30 413/391/30
f 418/514/30 415/372/30 416/374/30
f 411/515/30 413/391/30 412/516/30
f 304/369/21 412/516/21 303/370/21
f 366/399/31 425/517/31 362/381/31
f 299/518/19 426/519/19 409/520/19
f 304/369/58 417/385/58 411/515/58
f 363/383/31 419/521/31 359/522/31
f 312/376/47 418/523/47 310/384/47
f 421/524/29 433/525/29 424/526/29
f 429/371/29 421/524/29 428/398/29
f 425/517/29 423/527/29 427/382/29
f 427/382/29 420/528/29 419/521/29
f 428/398/29 424/526/29 425/517/29
f 423/527/29 426/529/29 420/528/29
f 422/530/29 430/531/29 421/524/29
f 424/526/29 432/532/29 423/527/29
f 412/516/21 422/530/21 303/370/21
f 409/512/30 432/533/30 415/372/30
f 359/534/19 420/535/19 299/518/19
f 413/391/30 431/536/30 412/516/30
f 309/495/29 444/537/29 443/538/29
f 439/539/29 442/540/29 441/541/29
f 441/541/29 438/542/29 437/543/29
f 443/538/29 440/496/29 439/539/29
f 435/544/29 439/539/29 436/545/29
f 316/546/29 437/543/29 314/547/29
f 436/545/29 441/541/29 316/546/29
f 434/548/29 443/538/29 435/544/29
f 394/478/30 444/537/30 398/477/30
f 400/490/21 434/548/21 305/366/21
f 311/388/31 314/549/31 301/389/31
f 391/550/30 442/540/30 395/484/30
f 446/485/29 405/551/29 408/552/29
f 388/475/30 404/553/30 380/467/30
f 398/477/19 405/551/19 388/475/19
f 390/486/31 408/552/31 398/477/31
f 448/465/29 450/554/29 449/555/29
f 358/457/31 449/555/31 356/462/31
f 366/399/19 449/555/19 450/554/19
f 366/399/30 447/556/30 368/368/30
f 453/483/29 452/557/29 451/558/29
f 391/507/19 452/559/19 381/560/19
f 381/422/30 454/561/30 385/474/30
f 395/484/31 451/558/31 391/550/31
f 455/463/29 457/562/29 456/563/29
f 359/534/19 456/564/19 457/565/19
f 353/454/31 456/563/31 349/566/31
f 359/522/30 458/567/30 363/383/30
f 459/455/29 461/568/29 460/569/29
f 339/570/19 461/571/19 349/572/19
f 343/442/31 460/569/31 339/441/31
f 349/566/30 462/573/30 353/454/30
f 464/458/29 466/574/29 465/575/29
f 348/444/31 465/575/31 346/449/31
f 346/449/19 466/574/19 356/462/19
f 356/462/30 463/576/30 358/457/30
f 468/445/29 470/577/29 469/578/29
f 338/433/31 469/578/31 336/432/31
f 336/432/19 470/577/19 346/449/19
f 346/449/30 467/579/30 348/444/30
f 474/468/29 472/580/29 471/581/29
f 380/467/31 471/581/31 388/475/31
f 378/401/30 473/582/30 370/420/30
f 388/475/19 472/580/19 378/401/19
f 478/583/29 476/417/29 475/584/29
f 370/420/31 475/584/31 378/401/31
f 328/418/30 477/585/30 321/419/30
f 321/419/21 478/583/21 370/420/21
f 410/586/59 485/587/59 487/588/59
f 401/505/29 479/589/29 482/434/29
f 399/446/29 480/590/29 479/591/29
f 301/389/29 482/434/29 481/363/29
f 484/459/19 487/592/19 485/593/19
f 490/594/19 489/595/19 492/596/19
f 493/597/19 492/596/19 494/598/19
f 495/599/19 494/598/19 496/600/19
f 497/601/19 496/600/19 483/602/19
f 485/593/19 483/602/19 484/459/19
f 491/603/19 488/604/19 489/595/19
f 498/605/19 499/606/19 488/604/19
f 500/607/19 501/608/19 499/606/19
f 502/609/19 503/610/19 501/608/19
f 508/436/19 506/611/19 507/487/19
f 349/572/31 519/612/31 496/600/31
f 367/375/48 485/587/48 300/395/48
f 389/448/48 500/613/48 379/469/48
f 319/411/29 488/614/29 371/412/29
f 349/572/29 494/598/29 339/570/29
f 483/602/19 516/615/19 484/459/19
f 320/430/48 490/616/48 337/392/48
f 401/505/31 504/617/31 399/618/31
f 391/507/21 527/619/21 401/505/21
f 357/464/48 497/620/48 367/375/48
f 379/469/48 498/621/48 369/415/48
f 480/590/60 505/622/60 479/591/60
f 409/512/30 487/623/30 486/624/30
f 480/364/31 507/487/31 506/611/31
f 339/441/29 492/625/29 329/423/29
f 510/626/29 511/627/29 509/628/29
f 486/624/30 510/629/30 409/512/30
f 409/520/21 509/628/21 299/518/21
f 299/518/31 511/627/31 484/459/31
f 514/630/29 515/631/29 513/632/29
f 359/534/31 515/631/31 483/602/31
f 299/518/21 513/632/21 359/534/21
f 484/459/30 514/630/30 299/518/30
f 518/633/29 519/612/29 517/634/29
f 359/534/21 517/634/21 349/572/21
f 483/602/19 519/612/19 520/635/19
f 483/602/30 518/633/30 359/534/30
f 523/636/29 521/637/29 522/638/29
f 482/434/21 522/638/21 481/363/21
f 481/363/31 521/637/31 507/487/31
f 508/436/30 523/636/30 482/434/30
f 526/639/29 528/640/29 527/619/29
f 401/505/31 528/640/31 503/610/31
f 501/608/30 526/639/30 391/507/30
f 503/610/19 525/641/19 501/608/19
f 531/642/29 529/643/29 530/644/29
f 381/560/21 530/644/21 391/507/21
f 501/608/19 532/645/19 499/606/19
f 391/507/31 529/643/31 501/608/31
f 568/646/21 552/647/21 536/648/21
f 535/649/1 534/650/1 533/651/1
f 538/652/28 533/653/28 536/654/28
f 43/48/21 622/655/21 623/656/21
f 563/657/19 579/658/19 595/659/19
f 540/660/27 537/55/27 542/661/27
f 59/66/23 640/662/23 60/663/23
f 546/664/26 543/665/26 544/666/26
f 555/667/17 661/668/17 553/669/17
f 550/670/25 547/671/25 545/672/25
f 42/65/17 622/655/17 41/41/17
f 554/673/24 551/674/24 552/675/24
f 58/676/19 640/662/19 637/677/19
f 556/60/22 553/669/22 558/43/22
f 539/53/19 647/678/19 648/679/19
f 560/680/20 557/71/20 559/681/20
f 57/62/21 639/682/21 59/66/21
f 564/683/18 561/684/18 566/685/18
f 536/654/23 647/678/23 538/652/23
f 570/686/16 567/687/16 568/688/16
f 571/689/15 568/688/15 569/690/15
f 574/691/14 571/689/14 569/690/14
f 573/692/13 574/691/13 575/693/13
f 578/694/12 575/693/12 576/695/12
f 579/696/11 576/695/11 577/697/11
f 582/698/10 579/696/10 577/697/10
f 581/699/9 582/698/9 583/700/9
f 586/701/8 583/700/8 584/702/8
f 587/703/7 584/702/7 585/704/7
f 588/705/6 585/704/6 590/706/6
f 589/707/5 590/706/5 591/708/5
f 594/709/4 591/708/4 592/710/4
f 595/711/3 592/710/3 593/712/3
f 596/713/2 593/712/2 534/650/2
f 601/714/35 597/715/35 598/716/35
f 605/717/19 604/718/19 608/719/19
f 602/720/61 605/721/61 606/722/61
f 603/723/21 606/722/21 607/724/21
f 604/725/29 602/720/29 603/723/29
f 604/718/30 607/724/30 608/719/30
f 608/719/62 610/726/62 611/727/62
f 607/724/21 609/728/21 610/726/21
f 606/722/63 612/729/63 609/728/63
f 612/730/19 608/719/19 611/727/19
f 597/731/19 611/727/19 598/732/19
f 609/728/64 597/733/64 600/734/64
f 610/726/21 600/734/21 601/714/21
f 611/727/65 601/714/65 598/732/65
f 613/735/66 615/736/66 614/737/66
f 617/738/67 619/739/67 618/740/67
f 621/64/68 623/656/68 622/655/68
f 625/741/69 627/742/69 626/743/69
f 630/744/70 632/745/70 631/746/70
f 634/747/71 636/748/71 635/749/71
f 637/677/72 639/682/72 638/750/72
f 641/751/73 643/752/73 642/32/73
f 645/54/73 647/678/73 646/753/73
f 650/39/72 651/754/72 652/755/72
f 656/756/71 654/757/71 653/758/71
f 658/759/70 659/760/70 660/761/70
f 664/762/69 662/763/69 661/668/69
f 666/70/68 667/45/68 668/44/68
f 672/764/67 670/765/67 669/766/67
f 674/767/66 675/768/66 676/769/66
f 542/661/23 649/38/23 540/660/23
f 61/33/21 643/752/21 63/74/21
f 543/665/21 651/754/21 542/661/21
f 62/31/19 644/770/19 641/751/19
f 46/771/17 626/743/17 45/47/17
f 557/71/17 668/44/17 559/681/17
f 63/74/23 644/770/23 64/72/23
f 45/47/21 627/742/21 47/52/21
f 560/680/21 669/766/21 670/765/21
f 46/771/19 628/772/19 625/741/19
f 560/680/23 671/773/23 562/774/23
f 541/37/17 652/755/17 543/665/17
f 47/52/23 628/772/23 48/50/23
f 562/774/19 672/764/19 563/775/19
f 545/672/21 654/757/21 544/666/21
f 544/666/23 655/776/23 546/664/23
f 547/671/19 655/776/19 656/756/19
f 50/777/17 630/744/17 49/51/17
f 563/775/17 669/766/17 561/684/17
f 49/51/21 631/746/21 51/58/21
f 564/683/19 674/767/19 565/778/19
f 50/777/19 632/745/19 629/779/19
f 34/780/17 614/737/17 33/30/17
f 566/685/23 673/781/23 564/683/23
f 547/671/17 653/758/17 545/672/17
f 51/58/23 632/745/23 52/56/23
f 35/36/21 614/737/21 615/736/21
f 566/685/21 676/769/21 675/768/21
f 549/782/19 657/783/19 658/759/19
f 36/34/19 613/735/19 34/780/19
f 550/670/23 657/783/23 548/784/23
f 35/36/23 616/785/23 36/34/23
f 551/674/21 659/760/21 550/670/21
f 54/786/17 634/747/17 53/57/17
f 565/778/17 676/769/17 567/687/17
f 53/57/21 635/749/21 55/63/21
f 54/786/19 636/748/19 633/787/19
f 38/788/17 618/740/17 37/35/17
f 549/782/17 660/761/17 551/674/17
f 55/63/23 636/748/23 56/61/23
f 39/42/21 618/740/21 619/739/21
f 553/669/21 662/763/21 552/675/21
f 40/40/19 617/738/19 38/788/19
f 552/675/23 663/789/23 554/673/23
f 39/42/23 620/790/23 40/40/23
f 555/667/19 663/789/19 664/762/19
f 537/55/21 646/753/21 536/654/21
f 58/676/17 638/750/17 57/62/17
f 2/1/1 4/4/1 3/2/1
f 4/4/2 6/791/2 5/5/2
f 5/5/3 6/791/3 8/6/3
f 8/6/4 10/792/4 9/8/4
f 9/8/5 10/792/5 12/9/5
f 11/10/6 12/9/6 14/11/6
f 14/11/7 16/14/7 15/13/7
f 16/14/8 18/16/8 17/15/8
f 18/16/9 20/18/9 19/17/9
f 20/18/10 22/20/10 21/19/10
f 22/20/11 24/22/11 23/21/11
f 24/22/12 26/24/12 25/23/12
f 26/24/13 28/793/13 27/25/13
f 27/25/14 28/793/14 30/26/14
f 30/26/15 32/29/15 31/28/15
f 32/29/16 34/780/16 33/30/16
f 62/31/17 641/751/17 642/32/17
f 36/34/18 38/788/18 37/35/18
f 541/37/19 540/660/19 649/38/19
f 40/40/20 42/65/20 41/41/20
f 558/43/21 559/681/21 668/44/21
f 44/46/22 46/771/22 45/47/22
f 43/48/23 623/656/23 624/49/23
f 48/50/24 50/777/24 49/51/24
f 539/53/17 648/679/17 645/54/17
f 52/56/25 54/786/25 53/57/25
f 558/43/23 667/45/23 665/59/23
f 56/61/26 58/676/26 57/62/26
f 44/46/19 624/49/19 621/64/19
f 59/66/27 60/663/27 62/31/27
f 6/69/19 4/794/19 2/795/19
f 2/795/19 64/796/19 62/797/19
f 62/797/19 60/798/19 58/799/19
f 58/799/19 56/800/19 54/801/19
f 54/801/19 52/802/19 50/803/19
f 50/803/19 48/804/19 46/805/19
f 46/805/19 44/806/19 42/807/19
f 42/807/19 40/808/19 38/67/19
f 38/67/19 36/809/19 34/810/19
f 34/810/19 32/811/19 30/812/19
f 30/812/19 28/813/19 26/814/19
f 26/814/19 24/815/19 22/68/19
f 22/68/19 20/816/19 18/817/19
f 18/817/19 16/818/19 14/819/19
f 14/819/19 12/820/19 10/821/19
f 10/821/19 8/822/19 6/69/19
f 6/69/19 2/795/19 62/797/19
f 62/797/19 58/799/19 54/801/19
f 54/801/19 50/803/19 46/805/19
f 46/805/19 42/807/19 38/67/19
f 38/67/19 34/810/19 30/812/19
f 30/812/19 26/814/19 22/68/19
f 22/68/19 18/817/19 14/819/19
f 14/819/19 10/821/19 6/69/19
f 6/69/19 62/797/19 54/801/19
f 54/801/19 46/805/19 38/67/19
f 38/67/19 30/812/19 22/68/19
f 22/68/19 14/819/19 6/69/19
f 6/69/19 54/801/19 38/67/19
f 556/60/19 665/59/19 666/70/19
f 64/72/28 2/823/28 1/73/28
f 63/77/21 1/824/21 3/825/21
f 3/825/21 5/826/21 7/827/21
f 7/827/21 9/828/21 11/829/21
f 11/829/21 13/830/21 15/831/21
f 15/831/21 17/832/21 19/833/21
f 19/833/21 21/834/21 23/835/21
f 23/835/21 25/836/21 27/837/21
f 27/837/21 29/838/21 31/75/21
f 31/75/21 33/839/21 35/840/21
f 35/840/21 37/841/21 39/842/21
f 39/842/21 41/843/21 43/844/21
f 43/844/21 45/845/21 47/76/21
f 47/76/21 49/846/21 51/847/21
f 51/847/21 53/848/21 55/849/21
f 55/849/21 57/850/21 59/851/21
f 59/851/21 61/852/21 63/77/21
f 63/77/21 3/825/21 7/827/21
f 7/827/21 11/829/21 15/831/21
f 15/831/21 19/833/21 23/835/21
f 23/835/21 27/837/21 31/75/21
f 31/75/21 35/840/21 39/842/21
f 39/842/21 43/844/21 47/76/21
f 47/76/21 51/847/21 55/849/21
f 55/849/21 59/851/21 63/77/21
f 63/77/21 7/827/21 15/831/21
f 15/831/21 23/835/21 31/75/21
f 31/75/21 39/842/21 47/76/21
f 47/76/21 55/849/21 63/77/21
f 63/77/21 15/831/21 31/75/21
f 68/78/29 67/105/29 247/79/29
f 81/81/30 72/217/30 71/82/30
f 134/84/21 126/113/21 70/85/21
f 69/86/21 188/246/21 195/87/21
f 181/88/31 198/249/31 199/89/31
f 133/91/29 66/111/29 78/92/29
f 127/94/29 76/100/29 84/95/29
f 128/97/30 191/233/30 193/98/30
f 76/100/32 184/239/32 183/101/32
f 79/102/30 74/116/30 73/103/30
f 68/78/30 79/102/30 77/104/30
f 182/90/31 199/89/31 196/106/31
f 130/93/29 78/92/29 76/100/29
f 103/108/33 256/332/33 259/109/33
f 66/111/32 176/302/32 180/112/32
f 126/113/41 131/96/41 84/95/41
f 134/84/30 195/87/30 194/114/30
f 74/116/30 81/81/30 83/83/30
f 144/117/35 94/134/35 90/118/35
f 143/120/74 93/130/74 88/121/74
f 142/123/29 92/132/29 89/124/29
f 141/126/35 91/129/35 85/127/35
f 140/119/35 90/118/35 91/129/35
f 139/125/29 89/124/29 93/130/29
f 135/131/29 86/146/29 92/132/29
f 144/117/19 241/300/19 242/133/19
f 138/122/21 88/121/21 87/135/21
f 137/128/35 254/330/35 265/137/35
f 95/139/35 258/341/35 255/140/35
f 94/134/35 102/148/35 98/141/35
f 88/121/74 93/130/74 101/142/74
f 92/132/29 100/147/29 97/144/29
f 91/129/35 99/145/35 95/139/35
f 90/118/35 98/141/35 99/145/35
f 89/124/29 97/144/29 101/142/29
f 86/146/29 103/108/29 100/147/29
f 87/135/35 104/149/35 102/148/35
f 87/135/21 88/121/21 96/143/21
f 248/150/31 245/305/31 271/151/31
f 102/148/35 112/165/35 108/153/35
f 96/143/75 101/142/75 111/154/75
f 100/147/29 110/159/29 107/156/29
f 99/145/35 109/158/35 105/157/35
f 98/141/35 108/153/35 109/158/35
f 97/144/29 107/156/29 111/154/29
f 103/108/29 113/110/29 110/159/29
f 114/160/21 233/295/21 234/161/21
f 104/149/21 96/143/21 106/155/21
f 165/162/33 270/853/33 268/163/33
f 112/165/35 122/178/35 118/166/35
f 106/155/76 111/154/76 121/167/76
f 110/159/29 120/172/29 117/169/29
f 119/170/21 228/289/21 225/171/21
f 108/153/35 118/166/35 119/170/35
f 107/156/29 117/169/29 121/167/29
f 113/110/29 123/180/29 120/172/29
f 124/173/21 229/292/21 230/174/21
f 114/160/21 106/155/21 116/168/21
f 250/175/19 277/343/19 278/176/19
f 122/178/35 132/115/35 128/97/35
f 116/168/77 121/167/77 131/96/77
f 120/172/29 130/93/29 127/94/29
f 129/99/21 224/283/21 221/179/21
f 118/166/35 128/97/35 129/99/35
f 117/169/29 127/94/29 131/96/29
f 123/180/29 133/91/29 130/93/29
f 134/84/21 213/272/21 214/181/21
f 124/173/21 116/168/21 126/113/21
f 148/182/21 138/122/21 136/136/21
f 136/136/21 239/298/21 240/184/21
f 145/185/29 135/131/29 142/123/29
f 149/187/29 139/125/29 143/120/29
f 150/189/35 140/119/35 141/126/35
f 151/190/35 141/126/35 137/128/35
f 152/186/29 142/123/29 139/125/29
f 153/188/41 143/120/41 138/122/41
f 154/191/35 144/117/35 140/119/35
f 135/131/33 264/337/33 257/192/33
f 164/193/35 154/191/35 150/189/35
f 163/195/41 153/188/41 148/182/41
f 162/197/29 152/186/29 149/187/29
f 151/190/21 220/277/21 219/199/21
f 160/194/35 150/189/35 151/190/35
f 159/198/29 149/187/29 153/188/29
f 155/164/29 145/185/29 152/186/29
f 146/183/21 170/269/21 212/201/21
f 158/196/21 148/182/21 146/183/21
f 273/203/19 287/353/19 290/204/19
f 168/205/21 158/196/21 156/202/21
f 164/193/31 210/253/31 211/207/31
f 165/162/29 155/164/29 162/197/29
f 169/209/29 159/198/29 163/195/29
f 156/202/21 211/207/21 75/211/21
f 161/200/31 208/256/31 206/212/31
f 172/208/29 162/197/29 159/198/29
f 173/210/41 163/195/41 158/196/41
f 73/103/30 202/220/30 82/213/30
f 113/110/33 259/109/33 261/214/33
f 71/82/30 200/264/30 201/215/30
f 81/216/78 173/210/78 168/205/78
f 79/218/43 172/208/43 169/209/43
f 83/83/30 201/215/30 202/220/30
f 167/221/19 203/225/19 204/222/19
f 74/219/43 169/209/43 173/210/43
f 68/224/43 165/162/43 172/208/43
f 67/105/19 80/265/19 203/225/19
f 72/217/21 168/205/21 166/206/21
f 265/137/31 298/854/31 297/226/31
f 180/227/31 176/855/31 175/228/31
f 183/229/31 184/230/31 182/90/31
f 184/230/31 180/227/31 181/88/31
f 177/231/31 183/229/31 179/107/31
f 70/85/21 177/231/21 178/232/21
f 132/115/30 194/114/30 191/233/30
f 65/234/19 186/251/19 192/235/19
f 70/85/79 84/95/79 183/101/79
f 129/99/30 193/98/30 185/237/30
f 78/92/32 180/112/32 184/239/32
f 187/240/35 196/247/35 199/241/35
f 195/87/35 188/246/35 187/240/35
f 191/233/35 190/242/35 189/243/35
f 193/98/35 189/243/35 186/244/35
f 194/114/35 187/240/35 190/242/35
f 189/243/35 198/248/35 192/245/35
f 188/246/35 197/252/35 196/247/35
f 190/242/35 199/241/35 198/248/35
f 178/232/21 197/252/21 188/246/21
f 175/228/31 192/856/31 198/249/31
f 125/250/19 185/857/19 186/251/19
f 179/107/31 196/106/31 197/252/31
f 75/211/35 211/207/35 210/253/35
f 205/255/35 206/212/35 208/256/35
f 207/257/35 208/256/35 204/258/35
f 209/254/35 210/253/35 206/212/35
f 201/260/35 209/254/35 205/255/35
f 82/262/35 207/257/35 203/259/35
f 202/261/35 205/255/35 207/257/35
f 200/264/35 75/211/35 209/254/35
f 160/194/31 206/212/31 210/253/31
f 166/206/21 75/211/21 200/264/21
f 77/104/30 82/213/30 80/265/30
f 157/266/31 204/258/31 208/256/31
f 212/201/35 170/269/35 171/267/35
f 154/191/31 171/267/31 170/269/31
f 164/193/19 174/268/19 171/267/19
f 156/202/30 212/201/30 174/268/30
f 214/181/35 213/272/35 216/270/35
f 124/173/30 214/181/30 215/271/30
f 132/115/19 122/178/19 215/271/19
f 132/115/31 216/270/31 213/272/31
f 219/199/35 220/277/35 218/273/35
f 157/223/19 217/858/19 218/275/19
f 147/138/31 218/273/31 220/277/31
f 161/200/30 219/199/30 217/274/30
f 221/179/35 224/283/35 223/278/35
f 125/250/19 115/288/19 222/280/19
f 119/170/30 221/179/30 222/279/30
f 125/238/31 223/278/31 224/283/31
f 225/171/35 228/289/35 227/284/35
f 105/286/19 226/859/19 227/287/19
f 109/158/30 225/171/30 226/285/30
f 115/282/31 227/284/31 228/289/31
f 230/174/35 229/292/35 232/290/35
f 114/160/30 230/174/30 231/291/30
f 112/165/19 231/291/19 232/290/19
f 122/178/31 232/290/31 229/292/31
f 234/161/35 233/295/35 236/293/35
f 104/149/30 234/161/30 235/294/30
f 102/148/19 235/294/19 236/293/19
f 112/165/31 236/293/31 233/295/31
f 240/184/35 239/298/35 238/296/35
f 146/183/30 240/184/30 237/297/30
f 144/117/31 238/296/31 239/298/31
f 154/191/19 237/297/19 238/296/19
f 244/299/35 243/301/35 242/133/35
f 136/136/30 244/299/30 241/300/30
f 94/134/31 242/133/31 243/301/31
f 87/135/21 243/301/21 244/299/21
f 176/302/80 66/111/80 251/303/80
f 167/221/29 165/334/29 245/305/29
f 165/162/29 68/224/29 246/306/29
f 67/105/29 167/221/29 248/150/29
f 250/175/19 252/177/19 253/308/19
f 256/310/19 257/319/19 255/311/19
f 259/313/19 256/310/19 258/312/19
f 261/315/19 259/313/19 260/314/19
f 263/317/19 261/315/19 262/316/19
f 251/309/19 263/317/19 249/318/19
f 257/319/19 264/321/19 254/320/19
f 264/321/19 266/323/19 265/322/19
f 266/323/19 268/325/19 267/324/19
f 268/325/19 270/333/19 269/326/19
f 274/152/19 271/151/19 272/327/19
f 115/288/30 283/350/30 285/328/30
f 133/91/33 263/336/33 251/303/33
f 155/164/33 268/163/33 266/329/33
f 85/127/35 255/140/35 254/330/35
f 115/288/35 262/316/35 260/314/35
f 249/318/19 281/347/19 282/331/19
f 86/146/33 257/192/33 256/332/33
f 167/221/30 269/326/30 270/333/30
f 157/223/21 292/355/21 293/335/21
f 123/180/33 261/214/33 263/336/33
f 145/185/33 266/329/33 264/337/33
f 246/306/81 272/860/81 271/338/81
f 175/228/31 176/855/31 253/339/31
f 246/80/30 247/79/30 273/203/30
f 105/157/35 260/861/35 258/341/35
f 276/342/35 278/176/35 277/343/35
f 252/340/31 278/862/31 276/345/31
f 175/236/21 276/342/21 275/344/21
f 65/234/30 275/344/30 277/343/30
f 280/346/35 282/331/35 281/347/35
f 125/250/30 279/348/30 281/347/30
f 65/234/21 280/346/21 279/348/21
f 250/175/31 282/331/31 280/346/31
f 284/349/35 286/351/35 285/328/35
f 125/250/21 284/349/21 283/350/21
f 249/318/19 262/316/19 285/328/19
f 249/318/31 286/351/31 284/349/31
f 289/352/35 290/204/35 287/353/35
f 248/150/21 289/352/21 288/354/21
f 247/79/30 288/354/30 287/353/30
f 274/152/31 290/204/31 289/352/31
f 292/355/35 291/357/35 294/356/35
f 167/221/30 293/335/30 294/356/30
f 267/324/31 291/357/31 292/355/31
f 269/326/19 294/356/19 291/357/19
f 297/358/35 298/361/35 295/359/35
f 147/276/21 297/358/21 296/360/21
f 267/324/19 295/359/19 298/361/19
f 157/223/30 296/360/30 295/359/30
f 302/362/29 301/389/29 481/363/29
f 315/365/31 306/501/31 305/366/31
f 368/368/21 360/397/21 304/369/21
f 303/370/21 422/530/21 429/371/21
f 415/372/30 432/533/30 433/373/30
f 367/375/35 300/395/35 312/376/35
f 361/378/35 310/384/35 318/379/35
f 362/381/31 425/517/31 427/382/31
f 310/384/47 418/523/47 417/385/47
f 313/386/31 308/400/31 307/387/31
f 302/362/31 313/386/31 311/388/31
f 416/374/30 433/373/30 430/390/30
f 364/377/35 312/376/35 310/384/35
f 337/392/48 490/616/48 493/393/48
f 300/395/47 410/586/47 414/396/47
f 360/397/82 365/380/82 318/379/82
f 368/368/31 429/371/31 428/398/31
f 308/400/31 315/365/31 317/367/31
f 378/401/29 328/418/29 324/402/29
f 377/404/83 327/414/83 322/405/83
f 376/407/35 326/416/35 323/408/35
f 375/410/29 325/413/29 319/411/29
f 374/403/29 324/402/29 325/413/29
f 373/409/35 323/408/35 327/414/35
f 369/415/35 320/430/35 326/416/35
f 378/401/19 475/584/19 476/417/19
f 372/406/21 322/405/21 321/419/21
f 371/412/29 488/614/29 499/421/29
f 329/423/29 492/625/29 489/424/29
f 328/418/29 336/432/29 332/425/29
f 322/405/83 327/414/83 335/426/83
f 326/416/35 334/431/35 331/428/35
f 325/413/29 333/429/29 329/423/29
f 324/402/29 332/425/29 333/429/29
f 323/408/35 331/428/35 335/426/35
f 320/430/35 337/392/35 334/431/35
f 321/419/29 338/433/29 336/432/29
f 321/419/21 322/405/21 330/427/21
f 482/434/30 479/589/30 505/435/30
f 336/432/29 346/449/29 342/437/29
f 330/427/84 335/426/84 345/438/84
f 334/431/35 344/443/35 341/440/35
f 333/429/29 343/442/29 339/441/29
f 332/425/29 342/437/29 343/442/29
f 331/428/35 341/440/35 345/438/35
f 337/392/35 347/394/35 344/443/35
f 348/444/21 467/579/21 468/445/21
f 338/433/21 330/427/21 340/439/21
f 399/446/48 504/863/48 502/447/48
f 346/449/29 356/462/29 352/450/29
f 340/439/85 345/438/85 355/451/85
f 344/443/35 354/456/35 351/453/35
f 353/454/21 462/573/21 459/455/21
f 342/437/29 352/450/29 353/454/29
f 341/440/35 351/453/35 355/451/35
f 347/394/35 357/464/35 354/456/35
f 358/457/21 463/576/21 464/458/21
f 348/444/21 340/439/21 350/452/21
f 484/459/19 511/627/19 512/460/19
f 356/462/29 366/399/29 362/381/29
f 350/452/86 355/451/86 365/380/86
f 354/456/35 364/377/35 361/378/35
f 363/383/21 458/567/21 455/463/21
f 352/450/29 362/381/29 363/383/29
f 351/453/35 361/378/35 365/380/35
f 357/464/35 367/375/35 364/377/35
f 368/368/21 447/556/21 448/465/21
f 358/457/21 350/452/21 360/397/21
f 382/466/21 372/406/21 370/420/21
f 370/420/21 473/582/21 474/468/21
f 379/469/35 369/415/35 376/407/35
f 383/471/35 373/409/35 377/404/35
f 384/473/29 374/403/29 375/410/29
f 385/474/29 375/410/29 371/412/29
f 386/470/35 376/407/35 373/409/35
f 387/472/55 377/404/55 372/406/55
f 388/475/29 378/401/29 374/403/29
f 369/415/48 498/621/48 491/476/48
f 398/477/29 388/475/29 384/473/29
f 397/479/55 387/472/55 382/466/55
f 396/481/35 386/470/35 383/471/35
f 385/474/21 454/561/21 453/483/21
f 394/478/29 384/473/29 385/474/29
f 393/482/35 383/471/35 387/472/35
f 389/448/35 379/469/35 386/470/35
f 380/467/21 404/553/21 446/485/21
f 392/480/21 382/466/21 380/467/21
f 507/487/19 521/637/19 524/488/19
f 402/489/21 392/480/21 390/486/21
f 398/477/30 444/537/30 445/491/30
f 399/446/35 389/448/35 396/481/35
f 403/493/35 393/482/35 397/479/35
f 390/486/21 445/491/21 309/495/21
f 395/484/30 442/540/30 440/496/30
f 406/492/35 396/481/35 393/482/35
f 407/494/55 397/479/55 392/480/55
f 307/387/31 436/504/31 316/497/31
f 347/394/48 493/393/48 495/498/48
f 305/366/31 434/548/31 435/499/31
f 315/500/87 407/494/87 402/489/87
f 313/502/57 406/492/57 403/493/57
f 317/367/31 435/499/31 436/504/31
f 401/505/19 437/509/19 438/506/19
f 308/503/57 403/493/57 407/494/57
f 302/508/57 399/446/57 406/492/57
f 301/389/19 314/549/19 437/509/19
f 306/501/21 402/489/21 400/490/21
f 499/421/30 532/864/30 531/510/30
f 414/511/30 410/865/30 409/512/30
f 417/513/30 418/514/30 416/374/30
f 418/514/30 414/511/30 415/372/30
f 411/515/30 417/513/30 413/391/30
f 304/369/21 411/515/21 412/516/21
f 366/399/31 428/398/31 425/517/31
f 299/518/19 420/535/19 426/519/19
f 304/369/88 318/379/88 417/385/88
f 363/383/31 427/382/31 419/521/31
f 312/376/47 414/396/47 418/523/47
f 421/524/29 430/531/29 433/525/29
f 429/371/29 422/530/29 421/524/29
f 425/517/29 424/526/29 423/527/29
f 427/382/29 423/527/29 420/528/29
f 428/398/29 421/524/29 424/526/29
f 423/527/29 432/532/29 426/529/29
f 422/530/29 431/536/29 430/531/29
f 424/526/29 433/525/29 432/532/29
f 412/516/21 431/536/21 422/530/21
f 409/512/30 426/866/30 432/533/30
f 359/534/19 419/867/19 420/535/19
f 413/391/30 430/390/30 431/536/30
f 309/495/29 445/491/29 444/537/29
f 439/539/29 440/496/29 442/540/29
f 441/541/29 442/540/29 438/542/29
f 443/538/29 444/537/29 440/496/29
f 435/544/29 443/538/29 439/539/29
f 316/546/29 441/541/29 437/543/29
f 436/545/29 439/539/29 441/541/29
f 434/548/29 309/495/29 443/538/29
f 394/478/30 440/496/30 444/537/30
f 400/490/21 309/495/21 434/548/21
f 311/388/31 316/497/31 314/549/31
f 391/550/30 438/542/30 442/540/30
f 446/485/29 404/553/29 405/551/29
f 388/475/30 405/551/30 404/553/30
f 398/477/19 408/552/19 405/551/19
f 390/486/31 446/485/31 408/552/31
f 448/465/29 447/556/29 450/554/29
f 358/457/31 448/465/31 449/555/31
f 366/399/19 356/462/19 449/555/19
f 366/399/30 450/554/30 447/556/30
f 453/483/29 454/561/29 452/557/29
f 391/507/19 451/868/19 452/559/19
f 381/422/30 452/557/30 454/561/30
f 395/484/31 453/483/31 451/558/31
f 455/463/29 458/567/29 457/562/29
f 359/534/19 349/572/19 456/564/19
f 353/454/31 455/463/31 456/563/31
f 359/522/30 457/562/30 458/567/30
f 459/455/29 462/573/29 461/568/29
f 339/570/19 460/869/19 461/571/19
f 343/442/31 459/455/31 460/569/31
f 349/566/30 461/568/30 462/573/30
f 464/458/29 463/576/29 466/574/29
f 348/444/31 464/458/31 465/575/31
f 346/449/19 465/575/19 466/574/19
f 356/462/30 466/574/30 463/576/30
f 468/445/29 467/579/29 470/577/29
f 338/433/31 468/445/31 469/578/31
f 336/432/19 469/578/19 470/577/19
f 346/449/30 470/577/30 467/579/30
f 474/468/29 473/582/29 472/580/29
f 380/467/31 474/468/31 471/581/31
f 378/401/30 472/580/30 473/582/30
f 388/475/19 471/581/19 472/580/19
f 478/583/29 477/585/29 476/417/29
f 370/420/31 478/583/31 475/584/31
f 328/418/30 476/417/30 477/585/30
f 321/419/21 477/585/21 478/583/21
f 410/586/89 300/395/89 485/587/89
f 401/505/29 399/618/29 479/589/29
f 399/446/29 302/508/29 480/590/29
f 301/389/29 401/505/29 482/434/29
f 484/459/19 486/461/19 487/592/19
f 490/594/19 491/603/19 489/595/19
f 493/597/19 490/594/19 492/596/19
f 495/599/19 493/597/19 494/598/19
f 497/601/19 495/599/19 496/600/19
f 485/593/19 497/601/19 483/602/19
f 491/603/19 498/605/19 488/604/19
f 498/605/19 500/607/19 499/606/19
f 500/607/19 502/609/19 501/608/19
f 502/609/19 504/617/19 503/610/19
f 508/436/19 505/435/19 506/611/19
f 349/572/31 517/634/31 519/612/31
f 367/375/48 497/620/48 485/587/48
f 389/448/48 502/447/48 500/613/48
f 319/411/29 489/424/29 488/614/29
f 349/572/29 496/600/29 494/598/29
f 483/602/19 515/631/19 516/615/19
f 320/430/48 491/476/48 490/616/48
f 401/505/31 503/610/31 504/617/31
f 391/507/21 526/639/21 527/619/21
f 357/464/48 495/498/48 497/620/48
f 379/469/48 500/613/48 498/621/48
f 480/590/90 506/870/90 505/622/90
f 409/512/30 410/865/30 487/623/30
f 480/364/31 481/363/31 507/487/31
f 339/441/29 494/871/29 492/625/29
f 510/626/29 512/460/29 511/627/29
f 486/624/30 512/872/30 510/629/30
f 409/520/21 510/626/21 509/628/21
f 299/518/31 509/628/31 511/627/31
f 514/630/29 516/615/29 515/631/29
f 359/534/31 513/632/31 515/631/31
f 299/518/21 514/630/21 513/632/21
f 484/459/30 516/615/30 514/630/30
f 518/633/29 520/635/29 519/612/29
f 359/534/21 518/633/21 517/634/21
f 483/602/19 496/600/19 519/612/19
f 483/602/30 520/635/30 518/633/30
f 523/636/29 524/488/29 521/637/29
f 482/434/21 523/636/21 522/638/21
f 481/363/31 522/638/31 521/637/31
f 508/436/30 524/488/30 523/636/30
f 526/639/29 525/641/29 528/640/29
f 401/505/31 527/619/31 528/640/31
f 501/608/30 525/641/30 526/639/30
f 503/610/19 528/640/19 525/641/19
f 531/642/29 532/645/29 529/643/29
f 381/560/21 531/642/21 530/644/21
f 501/608/19 529/643/19 532/645/19
f 391/507/31 530/644/31 529/643/31
f 536/648/21 533/873/21 534/874/21
f 534/874/21 593/875/21 592/876/21
f 592/876/21 591/877/21 590/878/21
f 590/878/21 585/879/21 584/880/21
f 584/880/21 583/881/21 582/882/21
f 582/882/21 577/883/21 576/884/21
f 576/884/21 575/885/21 574/886/21
f 574/886/21 569/887/21 568/646/21
f 568/646/21 567/888/21 566/889/21
f 566/889/21 561/890/21 560/891/21
f 560/891/21 559/892/21 558/893/21
f 558/893/21 553/894/21 552/647/21
f 552/647/21 551/895/21 550/896/21
f 550/896/21 545/897/21 544/898/21
f 544/898/21 543/899/21 542/900/21
f 542/900/21 537/901/21 536/648/21
f 536/648/21 534/874/21 592/876/21
f 592/876/21 590/878/21 584/880/21
f 584/880/21 582/882/21 576/884/21
f 576/884/21 574/886/21 568/646/21
f 568/646/21 566/889/21 560/891/21
f 560/891/21 558/893/21 552/647/21
f 552/647/21 550/896/21 544/898/21
f 544/898/21 542/900/21 536/648/21
f 536/648/21 592/876/21 584/880/21
f 584/880/21 576/884/21 568/646/21
f 568/646/21 560/891/21 552/647/21
f 552/647/21 544/898/21 536/648/21
f 536/648/21 584/880/21 568/646/21
f 535/649/1 596/713/1 534/650/1
f 538/652/28 535/902/28 533/653/28
f 43/48/21 41/41/21 622/655/21
f 595/659/19 596/903/19 535/904/19
f 535/904/19 538/905/19 539/906/19
f 539/906/19 540/907/19 541/908/19
f 541/908/19 546/909/19 547/910/19
f 547/910/19 548/911/19 549/912/19
f 549/912/19 554/913/19 555/914/19
f 555/914/19 556/915/19 557/916/19
f 557/916/19 562/917/19 563/657/19
f 563/657/19 564/918/19 565/919/19
f 565/919/19 570/920/19 571/921/19
f 571/921/19 572/922/19 573/923/19
f 573/923/19 578/924/19 579/658/19
f 579/658/19 580/925/19 581/926/19
f 581/926/19 586/927/19 587/928/19
f 587/928/19 588/929/19 589/930/19
f 589/930/19 594/931/19 595/659/19
f 595/659/19 535/904/19 539/906/19
f 539/906/19 541/908/19 547/910/19
f 547/910/19 549/912/19 555/914/19
f 555/914/19 557/916/19 563/657/19
f 563/657/19 565/919/19 571/921/19
f 571/921/19 573/923/19 579/658/19
f 579/658/19 581/926/19 587/928/19
f 587/928/19 589/930/19 595/659/19
f 595/659/19 539/906/19 547/910/19
f 547/910/19 555/914/19 563/657/19
f 563/657/19 571/921/19 579/658/19
f 579/658/19 587/928/19 595/659/19
f 595/659/19 547/910/19 563/657/19
f 540/660/27 539/53/27 537/55/27
f 59/66/23 639/682/23 640/662/23
f 546/664/26 541/37/26 543/665/26
f 555/667/17 664/762/17 661/668/17
f 550/670/25 548/784/25 547/671/25
f 42/65/17 621/64/17 622/655/17
f 554/673/24 549/782/24 551/674/24
f 58/676/19 60/663/19 640/662/19
f 556/60/22 555/667/22 553/669/22
f 539/53/19 538/652/19 647/678/19
f 560/680/20 562/774/20 557/71/20
f 57/62/21 638/750/21 639/682/21
f 564/683/18 563/775/18 561/684/18
f 536/654/23 646/753/23 647/678/23
f 570/686/16 565/778/16 567/687/16
f 571/689/15 570/686/15 568/688/15
f 574/691/14 572/932/14 571/689/14
f 573/692/13 572/932/13 574/691/13
f 578/694/12 573/692/12 575/693/12
f 579/696/11 578/694/11 576/695/11
f 582/698/10 580/933/10 579/696/10
f 581/699/9 580/933/9 582/698/9
f 586/701/8 581/699/8 583/700/8
f 587/703/7 586/701/7 584/702/7
f 588/705/6 587/703/6 585/704/6
f 589/707/5 588/705/5 590/706/5
f 594/709/4 589/707/4 591/708/4
f 595/711/3 594/709/3 592/710/3
f 596/713/2 595/711/2 593/712/2
f 601/714/35 600/734/35 597/715/35
f 605/717/19 599/934/19 604/718/19
f 602/720/61 599/935/61 605/721/61
f 603/723/21 602/720/21 606/722/21
f 604/725/29 599/936/29 602/720/29
f 604/718/30 603/723/30 607/724/30
f 608/719/62 607/724/62 610/726/62
f 607/724/21 606/722/21 609/728/21
f 606/722/63 605/721/63 612/729/63
f 612/730/19 605/717/19 608/719/19
f 597/731/19 612/730/19 611/727/19
f 609/728/64 612/729/64 597/733/64
f 610/726/21 609/728/21 600/734/21
f 611/727/65 610/726/65 601/714/65
f 613/735/66 616/785/66 615/736/66
f 617/738/67 620/790/67 619/739/67
f 621/64/68 624/49/68 623/656/68
f 625/741/69 628/772/69 627/742/69
f 630/744/70 629/779/70 632/745/70
f 634/747/71 633/787/71 636/748/71
f 637/677/72 640/662/72 639/682/72
f 641/751/73 644/770/73 643/752/73
f 645/54/73 648/679/73 647/678/73
f 650/39/72 649/38/72 651/754/72
f 656/756/71 655/776/71 654/757/71
f 658/759/70 657/783/70 659/760/70
f 664/762/69 663/789/69 662/763/69
f 666/70/68 665/59/68 667/45/68
f 672/764/67 671/773/67 670/765/67
f 674/767/66 673/781/66 675/768/66
f 542/661/23 651/754/23 649/38/23
f 61/33/21 642/32/21 643/752/21
f 543/665/21 652/755/21 651/754/21
f 62/31/19 64/72/19 644/770/19
f 46/771/17 625/741/17 626/743/17
f 557/71/17 666/70/17 668/44/17
f 63/74/23 643/752/23 644/770/23
f 45/47/21 626/743/21 627/742/21
f 560/680/21 561/684/21 669/766/21
f 46/771/19 48/50/19 628/772/19
f 560/680/23 670/765/23 671/773/23
f 541/37/17 650/39/17 652/755/17
f 47/52/23 627/742/23 628/772/23
f 562/774/19 671/773/19 672/764/19
f 545/672/21 653/758/21 654/757/21
f 544/666/23 654/757/23 655/776/23
f 547/671/19 546/664/19 655/776/19
f 50/777/17 629/779/17 630/744/17
f 563/775/17 672/764/17 669/766/17
f 49/51/21 630/744/21 631/746/21
f 564/683/19 673/781/19 674/767/19
f 50/777/19 52/56/19 632/745/19
f 34/780/17 613/735/17 614/737/17
f 566/685/23 675/768/23 673/781/23
f 547/671/17 656/756/17 653/758/17
f 51/58/23 631/746/23 632/745/23
f 35/36/21 33/30/21 614/737/21
f 566/685/21 567/687/21 676/769/21
f 549/782/19 548/784/19 657/783/19
f 36/34/19 616/785/19 613/735/19
f 550/670/23 659/760/23 657/783/23
f 35/36/23 615/736/23 616/785/23
f 551/674/21 660/761/21 659/760/21
f 54/786/17 633/787/17 634/747/17
f 565/778/17 674/767/17 676/769/17
f 53/57/21 634/747/21 635/749/21
f 54/786/19 56/61/19 636/748/19
f 38/788/17 617/738/17 618/740/17
f 549/782/17 658/759/17 660/761/17
f 55/63/23 635/749/23 636/748/23
f 39/42/21 37/35/21 618/740/21
f 553/669/21 661/668/21 662/763/21
f 40/40/19 620/790/19 617/738/19
f 552/675/23 662/763/23 663/789/23
f 39/42/23 619/739/23 620/790/23
f 555/667/19 554/673/19 663/789/19
f 537/55/21 645/54/21 646/753/21
f 58/676/17 637/677/17 638/750/17
