# Blender 4.1.1
# www.blender.org
mtllib tree.mtl
o tree
v 0.000000 0.000000 -0.700000
v 0.000000 10.000000 -0.700000
v 0.136563 0.000000 -0.686550
v 0.136563 10.000000 -0.686550
v 0.267878 0.000000 -0.646716
v 0.267878 10.000000 -0.646716
v 0.388899 0.000000 -0.582029
v 0.388899 10.000000 -0.582029
v 0.494975 0.000000 -0.494975
v 0.494975 10.000000 -0.494975
v 0.582029 0.000000 -0.388899
v 0.582029 10.000000 -0.388899
v 0.646716 0.000000 -0.267878
v 0.646716 10.000000 -0.267878
v 0.686550 0.000000 -0.136563
v 0.686550 10.000000 -0.136563
v 0.700000 0.000000 0.000000
v 0.700000 10.000000 0.000000
v 0.686550 0.000000 0.136563
v 0.686550 10.000000 0.136563
v 0.646716 0.000000 0.267878
v 0.646716 10.000000 0.267878
v 0.582029 0.000000 0.388899
v 0.582029 10.000000 0.388899
v 0.494975 0.000000 0.494975
v 0.494975 10.000000 0.494975
v 0.388899 0.000000 0.582029
v 0.388899 10.000000 0.582029
v 0.267878 0.000000 0.646716
v 0.267878 10.000000 0.646716
v 0.136563 0.000000 0.686550
v 0.136563 10.000000 0.686550
v 0.000000 0.000000 0.700000
v 0.000000 10.000000 0.700000
v -0.136563 0.000000 0.686550
v -0.136563 10.000000 0.686550
v -0.267878 0.000000 0.646716
v -0.267878 10.000000 0.646716
v -0.388899 0.000000 0.582029
v -0.388899 10.000000 0.582029
v -0.494975 0.000000 0.494975
v -0.494975 10.000000 0.494975
v -0.582029 0.000000 0.388899
v -0.582029 10.000000 0.388899
v -0.646716 0.000000 0.267878
v -0.646716 10.000000 0.267878
v -0.686550 0.000000 0.136563
v -0.686550 10.000000 0.136563
v -0.700000 0.000000 0.000000
v -0.700000 10.000000 0.000000
v -0.686550 0.000000 -0.136563
v -0.686550 10.000000 -0.136563
v -0.646716 0.000000 -0.267878
v -0.646716 10.000000 -0.267878
v -0.582029 0.000000 -0.388899
v -0.582029 10.000000 -0.388899
v -0.494975 0.000000 -0.494975
v -0.494975 10.000000 -0.494975
v -0.388899 0.000000 -0.582029
v -0.388899 10.000000 -0.582029
v -0.267878 0.000000 -0.646716
v -0.267878 10.000000 -0.646716
v -0.136563 0.000000 -0.686550
v -0.136563 10.000000 -0.686550
v 0.000000 8.500001 -2.500000
v 0.487726 8.500001 -2.451963
v 0.956709 8.500001 -2.309699
v 1.388926 8.500001 -2.078674
v 1.767767 8.500001 -1.767767
v 2.078674 8.500001 -1.388926
v 2.309699 8.500001 -0.956709
v 2.451963 8.500001 -0.487726
v 2.500000 8.500001 0.000000
v 2.451963 8.500001 0.487726
v 2.309699 8.500001 0.956709
v 2.078674 8.500001 1.388926
v 1.767767 8.500001 1.767767
v 1.388926 8.500001 2.078674
v 0.956709 8.500001 2.309699
v 0.487726 8.500001 2.451963
v 0.000000 8.500001 2.500000
v -0.487726 8.500001 2.451963
v -0.956709 8.500001 2.309699
v -1.388926 8.500001 2.078674
v -1.767767 8.500001 1.767767
v -2.078674 8.500001 1.388926
v -2.309699 8.500001 0.956709
v -2.451963 8.500001 0.487726
v -2.500000 8.500001 0.000000
v -2.451963 8.500001 -0.487726
v -2.309699 8.500001 -0.956709
v -2.078674 8.500001 -1.388926
v -1.767767 8.500001 -1.767767
v -1.388926 8.500001 -2.078674
v -0.956709 8.500001 -2.309699
v -0.487726 8.500001 -2.451963
v 0.000000 11.500001 0.000000
v 0.000000 6.250000 -3.500000
v 0.682816 6.250000 -3.432749
v 1.339392 6.250000 -3.233579
v 1.944496 6.250000 -2.910144
v 2.474874 6.250000 -2.474874
v 2.910144 6.250000 -1.944496
v 3.233579 6.250000 -1.339392
v 3.432749 6.250000 -0.682816
v 3.500000 6.250000 0.000000
v 3.432749 6.250000 0.682816
v 3.233579 6.250000 1.339392
v 2.910144 6.250000 1.944496
v 2.474874 6.250000 2.474874
v 1.944496 6.250000 2.910144
v 1.339392 6.250000 3.233579
v 0.682816 6.250000 3.432749
v 0.000000 6.250000 3.500000
v -0.682816 6.250000 3.432749
v -1.339392 6.250000 3.233579
v -1.944496 6.250000 2.910144
v -2.474874 6.250000 2.474874
v -2.910144 6.250000 1.944496
v -3.233579 6.250000 1.339392
v -3.432749 6.250000 0.682816
v -3.500000 6.250000 0.000000
v -3.432749 6.250000 -0.682816
v -3.233579 6.250000 -1.339392
v -2.910144 6.250000 -1.944496
v -2.474874 6.250000 -2.474874
v -1.944496 6.250000 -2.910144
v -1.339392 6.250000 -3.233579
v -0.682816 6.250000 -3.432749
v 0.000000 9.750001 0.000000
v 0.000000 4.000000 -4.000000
v 0.780361 4.000000 -3.923141
v 1.530734 4.000000 -3.695518
v 2.222281 4.000000 -3.325879
v 2.828427 4.000000 -2.828427
v 3.325879 4.000000 -2.222281
v 3.695518 4.000000 -1.530734
v 3.923141 4.000000 -0.780361
v 4.000000 4.000000 0.000000
v 3.923141 4.000000 0.780361
v 3.695518 4.000000 1.530734
v 3.325879 4.000000 2.222281
v 2.828427 4.000000 2.828427
v 2.222281 4.000000 3.325879
v 1.530734 4.000000 3.695518
v 0.780361 4.000000 3.923141
v 0.000000 4.000000 4.000000
v -0.780361 4.000000 3.923141
v -1.530734 4.000000 3.695518
v -2.222281 4.000000 3.325879
v -2.828427 4.000000 2.828427
v -3.325879 4.000000 2.222281
v -3.695518 4.000000 1.530734
v -3.923141 4.000000 0.780361
v -4.000000 4.000000 0.000000
v -3.923141 4.000000 -0.780361
v -3.695518 4.000000 -1.530734
v -3.325879 4.000000 -2.222281
v -2.828427 4.000000 -2.828427
v -2.222281 4.000000 -3.325879
v -1.530734 4.000000 -3.695518
v -0.780361 4.000000 -3.923141
v 0.000000 8.000000 0.000000
vn 0.0980 -0.0000 -0.9952
vn 0.2903 -0.0000 -0.9569
vn 0.4714 -0.0000 -0.8819
vn 0.6344 -0.0000 -0.7730
vn 0.7730 -0.0000 -0.6344
vn 0.8819 -0.0000 -0.4714
vn 0.9569 -0.0000 -0.2903
vn 0.9952 -0.0000 -0.0980
vn 0.9952 -0.0000 0.0980
vn 0.9569 -0.0000 0.2903
vn 0.8819 -0.0000 0.4714
vn 0.7730 -0.0000 0.6344
vn 0.6344 -0.0000 0.7730
vn 0.4714 -0.0000 0.8819
vn 0.2903 -0.0000 0.9569
vn 0.0980 -0.0000 0.9952
vn -0.0980 -0.0000 0.9952
vn -0.2903 -0.0000 0.9569
vn -0.4714 -0.0000 0.8819
vn -0.6344 -0.0000 0.7730
vn -0.7730 -0.0000 0.6344
vn -0.8819 -0.0000 0.4714
vn -0.9569 -0.0000 0.2903
vn -0.9952 -0.0000 0.0980
vn -0.9952 -0.0000 -0.0980
vn -0.9569 -0.0000 -0.2903
vn -0.8819 -0.0000 -0.4714
vn -0.7730 -0.0000 -0.6344
vn -0.6344 -0.0000 -0.7730
vn -0.4714 -0.0000 -0.8819
vn -0.0000 1.0000 -0.0000
vn -0.2903 -0.0000 -0.9569
vn -0.0980 -0.0000 -0.9952
vn -0.0000 -1.0000 -0.0000
vn 0.0754 0.6384 -0.7660
vn 0.2234 0.6384 -0.7366
vn 0.3629 0.6384 -0.6788
vn 0.4883 0.6384 -0.5950
vn 0.5950 0.6384 -0.4883
vn 0.6788 0.6384 -0.3629
vn 0.7366 0.6384 -0.2234
vn 0.7660 0.6384 -0.0754
vn 0.7660 0.6384 0.0754
vn 0.7366 0.6384 0.2234
vn 0.6788 0.6384 0.3629
vn 0.5950 0.6384 0.4883
vn 0.4883 0.6384 0.5950
vn 0.3629 0.6384 0.6788
vn 0.2234 0.6384 0.7366
vn 0.0754 0.6384 0.7660
vn -0.0754 0.6384 0.7660
vn -0.2234 0.6384 0.7366
vn -0.3629 0.6384 0.6788
vn -0.4883 0.6384 0.5950
vn -0.5950 0.6384 0.4883
vn -0.6788 0.6384 0.3629
vn -0.7366 0.6384 0.2234
vn -0.7660 0.6384 0.0754
vn -0.7660 0.6384 -0.0754
vn -0.7366 0.6384 -0.2234
vn -0.6788 0.6384 -0.3629
vn -0.5950 0.6384 -0.4883
vn -0.4883 0.6384 -0.5950
vn -0.3629 0.6384 -0.6788
vn -0.2234 0.6384 -0.7366
vn -0.0754 0.6384 -0.7660
vn 0.0695 0.7054 -0.7054
vn 0.2058 0.7054 -0.6783
vn 0.3341 0.7054 -0.6251
vn 0.4497 0.7054 -0.5479
vn 0.5479 0.7054 -0.4497
vn 0.6251 0.7054 -0.3341
vn 0.6783 0.7054 -0.2058
vn 0.7054 0.7054 -0.0695
vn 0.7054 0.7054 0.0695
vn 0.6783 0.7054 0.2058
vn 0.6251 0.7054 0.3341
vn 0.5479 0.7054 0.4497
vn 0.4497 0.7054 0.5479
vn 0.3341 0.7054 0.6251
vn 0.2058 0.7054 0.6783
vn 0.0695 0.7054 0.7054
vn -0.0695 0.7054 0.7054
vn -0.2058 0.7054 0.6783
vn -0.3341 0.7054 0.6251
vn -0.4497 0.7054 0.5479
vn -0.5479 0.7054 0.4497
vn -0.6251 0.7054 0.3341
vn -0.6783 0.7054 0.2058
vn -0.7054 0.7054 0.0695
vn -0.7054 0.7054 -0.0695
vn -0.6783 0.7054 -0.2058
vn -0.6251 0.7054 -0.3341
vn -0.5479 0.7054 -0.4497
vn -0.4497 0.7054 -0.5479
vn -0.3341 0.7054 -0.6251
vn -0.2058 0.7054 -0.6783
vn -0.0695 0.7054 -0.7054
vt 0.437801 0.232204
vt 0.507946 0.225329
vt 0.507946 0.232204
vt 0.437801 0.225329
vt 0.507946 0.218453
vt 0.437801 0.218453
vt 0.507946 0.211578
vt 0.437801 0.211578
vt 0.507946 0.204702
vt 0.437801 0.204702
vt 0.507946 0.197827
vt 0.437801 0.197827
vt 0.507946 0.190951
vt 0.437801 0.190951
vt 0.507946 0.184076
vt 0.437801 0.184076
vt 0.507946 0.177200
vt 0.437801 0.177200
vt 0.507946 0.170325
vt 0.437801 0.170325
vt 0.507946 0.163449
vt 0.437801 0.163449
vt 0.507946 0.156574
vt 0.437801 0.156574
vt 0.507946 0.149699
vt 0.437801 0.149699
vt 0.507946 0.142823
vt 0.437801 0.142823
vt 0.507946 0.135948
vt 0.437801 0.135948
vt 0.507946 0.129072
vt 0.437801 0.129072
vt 0.507946 0.122197
vt 0.437801 0.122197
vt 0.507946 0.115321
vt 0.437801 0.115321
vt 0.507946 0.108446
vt 0.437801 0.108446
vt 0.507946 0.101570
vt 0.437801 0.101570
vt 0.507946 0.094695
vt 0.437801 0.094695
vt 0.507946 0.087819
vt 0.437801 0.087819
vt 0.507946 0.080944
vt 0.437801 0.080944
vt 0.507946 0.074069
vt 0.437801 0.074069
vt 0.507946 0.067193
vt 0.437801 0.067193
vt 0.507946 0.060318
vt 0.437801 0.060318
vt 0.507946 0.053442
vt 0.437801 0.053442
vt 0.507946 0.046567
vt 0.437801 0.046567
vt 0.507946 0.039691
vt 0.437801 0.039691
vt 0.507946 0.032816
vt 0.437801 0.032816
vt 0.507946 0.025940
vt 0.036549 0.379615
vt 0.080293 0.402996
vt 0.056912 0.446740
vt 0.437801 0.025940
vt 0.507946 0.019065
vt 0.437801 0.019065
vt 0.507946 0.012190
vt 0.156057 0.436860
vt 0.160919 0.486222
vt 0.111557 0.491084
vt 0.648102 0.809058
vt 0.768813 0.772441
vt 0.657565 0.831904
vt 0.671303 0.852465
vt 0.688789 0.869951
vt 0.709350 0.883689
vt 0.732196 0.893152
vt 0.756449 0.897976
vt 0.781177 0.897976
vt 0.805430 0.893152
vt 0.828276 0.883689
vt 0.848837 0.869951
vt 0.866323 0.852465
vt 0.880061 0.831904
vt 0.889524 0.809058
vt 0.894348 0.784805
vt 0.894348 0.760077
vt 0.889524 0.735824
vt 0.880061 0.712978
vt 0.866323 0.692417
vt 0.848837 0.674931
vt 0.828276 0.661193
vt 0.805430 0.651730
vt 0.781177 0.646906
vt 0.756449 0.646906
vt 0.732196 0.651730
vt 0.709350 0.661193
vt 0.688789 0.674932
vt 0.671303 0.692417
vt 0.657565 0.712978
vt 0.648102 0.735824
vt 0.643278 0.760077
vt 0.588962 0.943488
vt 0.412672 0.960852
vt 0.395308 0.784561
vt 0.643278 0.784805
vt 0.299239 0.882407
vt 0.187443 0.746183
vt 0.323666 0.857979
vt 0.342859 0.829255
vt 0.356079 0.797339
vt 0.362819 0.763456
vt 0.362819 0.728910
vt 0.356079 0.695028
vt 0.342859 0.663112
vt 0.323666 0.634388
vt 0.299239 0.609960
vt 0.270514 0.590767
vt 0.238598 0.577547
vt 0.204716 0.570807
vt 0.170170 0.570807
vt 0.136287 0.577547
vt 0.104371 0.590767
vt 0.075647 0.609960
vt 0.051219 0.634388
vt 0.032026 0.663112
vt 0.018806 0.695028
vt 0.012067 0.728910
vt 0.012067 0.763456
vt 0.018806 0.797339
vt 0.032026 0.829255
vt 0.051219 0.857979
vt 0.075647 0.882407
vt 0.104371 0.901600
vt 0.136287 0.914820
vt 0.170170 0.921560
vt 0.204716 0.921560
vt 0.238598 0.914820
vt 0.620553 0.075236
vt 0.867360 0.050928
vt 0.891669 0.297735
vt 0.270514 0.901600
vt 0.011846 0.232017
vt 0.212276 0.212276
vt 0.019549 0.270740
vt 0.034658 0.307215
vt 0.056592 0.340043
vt 0.084510 0.367960
vt 0.117337 0.389895
vt 0.153813 0.405004
vt 0.192536 0.412706
vt 0.232017 0.412706
vt 0.270740 0.405004
vt 0.307215 0.389895
vt 0.340043 0.367961
vt 0.367960 0.340043
vt 0.389895 0.307216
vt 0.405004 0.270740
vt 0.412706 0.232017
vt 0.412706 0.192536
vt 0.405004 0.153813
vt 0.389895 0.117337
vt 0.367961 0.084510
vt 0.340043 0.056592
vt 0.307216 0.034658
vt 0.270740 0.019549
vt 0.232017 0.011846
vt 0.192536 0.011846
vt 0.153813 0.019549
vt 0.117337 0.034658
vt 0.084510 0.056592
vt 0.056592 0.084510
vt 0.034658 0.117337
vt 0.019549 0.153813
vt 0.690239 0.607964
vt 0.419013 0.690239
vt 0.336738 0.419013
vt 0.011846 0.192536
vt 0.050168 0.448081
vt 0.043293 0.448081
vt 0.036549 0.446740
vt 0.030197 0.444109
vt 0.024481 0.440289
vt 0.019619 0.435427
vt 0.015799 0.429710
vt 0.013168 0.423358
vt 0.011827 0.416615
vt 0.011827 0.409740
vt 0.013168 0.402996
vt 0.015799 0.396644
vt 0.019619 0.390927
vt 0.024480 0.386066
vt 0.030197 0.382246
vt 0.043293 0.378273
vt 0.050168 0.378273
vt 0.056911 0.379615
vt 0.063263 0.382246
vt 0.068980 0.386066
vt 0.073842 0.390927
vt 0.077662 0.396644
vt 0.081634 0.409740
vt 0.081634 0.416615
vt 0.080293 0.423358
vt 0.077662 0.429710
vt 0.073842 0.435427
vt 0.068980 0.440289
vt 0.063264 0.444109
vt 0.437801 0.012189
vt 0.106696 0.486222
vt 0.102876 0.480505
vt 0.100244 0.474153
vt 0.098903 0.467410
vt 0.098903 0.460534
vt 0.100244 0.453791
vt 0.102875 0.447439
vt 0.106695 0.441722
vt 0.111557 0.436861
vt 0.117274 0.433041
vt 0.123626 0.430410
vt 0.130369 0.429068
vt 0.137244 0.429068
vt 0.143988 0.430409
vt 0.150340 0.433041
vt 0.160918 0.441722
vt 0.164738 0.447439
vt 0.167369 0.453791
vt 0.168711 0.460534
vt 0.168711 0.467410
vt 0.167370 0.474153
vt 0.164738 0.480505
vt 0.156057 0.491083
vt 0.150340 0.494903
vt 0.143988 0.497534
vt 0.137245 0.498876
vt 0.130369 0.498876
vt 0.123626 0.497535
vt 0.117274 0.494903
vt 0.412671 0.767198
vt 0.433088 0.753556
vt 0.455774 0.744159
vt 0.479857 0.739368
vt 0.504412 0.739368
vt 0.528496 0.744159
vt 0.551182 0.753555
vt 0.571599 0.767197
vt 0.588962 0.784560
vt 0.602604 0.804977
vt 0.612001 0.827663
vt 0.616792 0.851747
vt 0.616792 0.876302
vt 0.612001 0.900385
vt 0.602605 0.923071
vt 0.571599 0.960851
vt 0.551183 0.974494
vt 0.528497 0.983890
vt 0.504413 0.988681
vt 0.479858 0.988681
vt 0.455775 0.983891
vt 0.433089 0.974494
vt 0.395308 0.943489
vt 0.381666 0.923072
vt 0.372269 0.900386
vt 0.367479 0.876303
vt 0.367479 0.851747
vt 0.372269 0.827664
vt 0.381666 0.804978
vt 0.867360 0.322043
vt 0.838777 0.341142
vt 0.807016 0.354298
vt 0.773300 0.361005
vt 0.738922 0.361005
vt 0.705206 0.354298
vt 0.673445 0.341142
vt 0.644862 0.322043
vt 0.620553 0.297735
vt 0.601454 0.269151
vt 0.588299 0.237391
vt 0.581592 0.203674
vt 0.581592 0.169297
vt 0.588299 0.135580
vt 0.601454 0.103820
vt 0.644862 0.050928
vt 0.673445 0.031829
vt 0.705206 0.018673
vt 0.738922 0.011966
vt 0.773300 0.011966
vt 0.807016 0.018673
vt 0.838777 0.031829
vt 0.891669 0.075236
vt 0.910768 0.103820
vt 0.923923 0.135580
vt 0.930630 0.169297
vt 0.930630 0.203674
vt 0.923923 0.237391
vt 0.910768 0.269151
vt 0.358565 0.386346
vt 0.386346 0.358565
vt 0.419014 0.336738
vt 0.455311 0.321703
vt 0.493845 0.314038
vt 0.533133 0.314038
vt 0.571666 0.321703
vt 0.607964 0.336738
vt 0.640631 0.358565
vt 0.668412 0.386346
vt 0.690239 0.419013
vt 0.705274 0.455311
vt 0.712939 0.493844
vt 0.712939 0.533133
vt 0.705274 0.571666
vt 0.668412 0.640631
vt 0.640631 0.668412
vt 0.607964 0.690239
vt 0.571666 0.705274
vt 0.533133 0.712939
vt 0.493844 0.712939
vt 0.455311 0.705274
vt 0.386346 0.668412
vt 0.358565 0.640630
vt 0.336738 0.607964
vt 0.321703 0.571666
vt 0.314038 0.533132
vt 0.314038 0.493844
vt 0.321703 0.455311
s 0
usemtl マテリアル
f 2/1/1 3/2/1 1/3/1
f 4/4/2 5/5/2 3/2/2
f 6/6/3 7/7/3 5/5/3
f 8/8/4 9/9/4 7/7/4
f 10/10/5 11/11/5 9/9/5
f 12/12/6 13/13/6 11/11/6
f 14/14/7 15/15/7 13/13/7
f 16/16/8 17/17/8 15/15/8
f 18/18/9 19/19/9 17/17/9
f 20/20/10 21/21/10 19/19/10
f 22/22/11 23/23/11 21/21/11
f 24/24/12 25/25/12 23/23/12
f 26/26/13 27/27/13 25/25/13
f 28/28/14 29/29/14 27/27/14
f 30/30/15 31/31/15 29/29/15
f 32/32/16 33/33/16 31/31/16
f 34/34/17 35/35/17 33/33/17
f 36/36/18 37/37/18 35/35/18
f 38/38/19 39/39/19 37/37/19
f 40/40/20 41/41/20 39/39/20
f 42/42/21 43/43/21 41/41/21
f 44/44/22 45/45/22 43/43/22
f 46/46/23 47/47/23 45/45/23
f 48/48/24 49/49/24 47/47/24
f 50/50/25 51/51/25 49/49/25
f 52/52/26 53/53/26 51/51/26
f 54/54/27 55/55/27 53/53/27
f 56/56/28 57/57/28 55/55/28
f 58/58/29 59/59/29 57/57/29
f 60/60/30 61/61/30 59/59/30
f 38/62/31 22/63/31 6/64/31
f 62/65/32 63/66/32 61/61/32
f 64/67/33 1/68/33 63/66/33
f 31/69/34 47/70/34 63/71/34
f 65/72/35 97/73/35 66/74/35
f 66/74/36 97/73/36 67/75/36
f 67/75/37 97/73/37 68/76/37
f 68/76/38 97/73/38 69/77/38
f 69/77/39 97/73/39 70/78/39
f 70/78/40 97/73/40 71/79/40
f 71/79/41 97/73/41 72/80/41
f 72/80/42 97/73/42 73/81/42
f 73/81/43 97/73/43 74/82/43
f 74/82/44 97/73/44 75/83/44
f 75/83/45 97/73/45 76/84/45
f 76/84/46 97/73/46 77/85/46
f 77/85/47 97/73/47 78/86/47
f 78/86/48 97/73/48 79/87/48
f 79/87/49 97/73/49 80/88/49
f 80/88/50 97/73/50 81/89/50
f 81/89/51 97/73/51 82/90/51
f 82/90/52 97/73/52 83/91/52
f 83/91/53 97/73/53 84/92/53
f 84/92/54 97/73/54 85/93/54
f 85/93/55 97/73/55 86/94/55
f 86/94/56 97/73/56 87/95/56
f 87/95/57 97/73/57 88/96/57
f 88/96/58 97/73/58 89/97/58
f 89/97/59 97/73/59 90/98/59
f 90/98/60 97/73/60 91/99/60
f 91/99/61 97/73/61 92/100/61
f 92/100/62 97/73/62 93/101/62
f 93/101/63 97/73/63 94/102/63
f 94/102/64 97/73/64 95/103/64
f 80/104/34 88/105/34 96/106/34
f 95/103/65 97/73/65 96/107/65
f 96/107/66 97/73/66 65/72/66
f 98/108/67 130/109/67 99/110/67
f 99/110/68 130/109/68 100/111/68
f 100/111/69 130/109/69 101/112/69
f 101/112/70 130/109/70 102/113/70
f 102/113/71 130/109/71 103/114/71
f 103/114/72 130/109/72 104/115/72
f 104/115/73 130/109/73 105/116/73
f 105/116/74 130/109/74 106/117/74
f 106/117/75 130/109/75 107/118/75
f 107/118/76 130/109/76 108/119/76
f 108/119/77 130/109/77 109/120/77
f 109/120/78 130/109/78 110/121/78
f 110/121/79 130/109/79 111/122/79
f 111/122/80 130/109/80 112/123/80
f 112/123/81 130/109/81 113/124/81
f 113/124/82 130/109/82 114/125/82
f 114/125/83 130/109/83 115/126/83
f 115/126/84 130/109/84 116/127/84
f 116/127/85 130/109/85 117/128/85
f 117/128/86 130/109/86 118/129/86
f 118/129/87 130/109/87 119/130/87
f 119/130/88 130/109/88 120/131/88
f 120/131/89 130/109/89 121/132/89
f 121/132/90 130/109/90 122/133/90
f 122/133/91 130/109/91 123/134/91
f 123/134/92 130/109/92 124/135/92
f 124/135/93 130/109/93 125/136/93
f 125/136/94 130/109/94 126/137/94
f 126/137/95 130/109/95 127/138/95
f 127/138/96 130/109/96 128/139/96
f 113/140/34 121/141/34 129/142/34
f 128/139/97 130/109/97 129/143/97
f 129/143/98 130/109/98 98/108/98
f 131/144/67 163/145/67 132/146/67
f 132/146/68 163/145/68 133/147/68
f 133/147/69 163/145/69 134/148/69
f 134/148/70 163/145/70 135/149/70
f 135/149/71 163/145/71 136/150/71
f 136/150/72 163/145/72 137/151/72
f 137/151/73 163/145/73 138/152/73
f 138/152/74 163/145/74 139/153/74
f 139/153/75 163/145/75 140/154/75
f 140/154/76 163/145/76 141/155/76
f 141/155/77 163/145/77 142/156/77
f 142/156/78 163/145/78 143/157/78
f 143/157/79 163/145/79 144/158/79
f 144/158/80 163/145/80 145/159/80
f 145/159/81 163/145/81 146/160/81
f 146/160/82 163/145/82 147/161/82
f 147/161/83 163/145/83 148/162/83
f 148/162/84 163/145/84 149/163/84
f 149/163/85 163/145/85 150/164/85
f 150/164/86 163/145/86 151/165/86
f 151/165/87 163/145/87 152/166/87
f 152/166/88 163/145/88 153/167/88
f 153/167/89 163/145/89 154/168/89
f 154/168/90 163/145/90 155/169/90
f 155/169/91 163/145/91 156/170/91
f 156/170/92 163/145/92 157/171/92
f 157/171/93 163/145/93 158/172/93
f 158/172/94 163/145/94 159/173/94
f 159/173/95 163/145/95 160/174/95
f 160/174/96 163/145/96 161/175/96
f 146/176/34 154/177/34 162/178/34
f 161/175/97 163/145/97 162/179/97
f 162/179/98 163/145/98 131/144/98
f 2/1/1 4/4/1 3/2/1
f 4/4/2 6/6/2 5/5/2
f 6/6/3 8/8/3 7/7/3
f 8/8/4 10/10/4 9/9/4
f 10/10/5 12/12/5 11/11/5
f 12/12/6 14/14/6 13/13/6
f 14/14/7 16/16/7 15/15/7
f 16/16/8 18/18/8 17/17/8
f 18/18/9 20/20/9 19/19/9
f 20/20/10 22/22/10 21/21/10
f 22/22/11 24/24/11 23/23/11
f 24/24/12 26/26/12 25/25/12
f 26/26/13 28/28/13 27/27/13
f 28/28/14 30/30/14 29/29/14
f 30/30/15 32/32/15 31/31/15
f 32/32/16 34/34/16 33/33/16
f 34/34/17 36/36/17 35/35/17
f 36/36/18 38/38/18 37/37/18
f 38/38/19 40/40/19 39/39/19
f 40/40/20 42/42/20 41/41/20
f 42/42/21 44/44/21 43/43/21
f 44/44/22 46/46/22 45/45/22
f 46/46/23 48/48/23 47/47/23
f 48/48/24 50/50/24 49/49/24
f 50/50/25 52/52/25 51/51/25
f 52/52/26 54/54/26 53/53/26
f 54/54/27 56/56/27 55/55/27
f 56/56/28 58/58/28 57/57/28
f 58/58/29 60/60/29 59/59/29
f 60/60/30 62/65/30 61/61/30
f 6/64/31 4/180/31 2/181/31
f 2/181/31 64/182/31 62/183/31
f 62/183/31 60/184/31 58/185/31
f 58/185/31 56/186/31 54/187/31
f 54/187/31 52/188/31 50/189/31
f 50/189/31 48/190/31 46/191/31
f 46/191/31 44/192/31 42/193/31
f 42/193/31 40/194/31 38/62/31
f 38/62/31 36/195/31 34/196/31
f 34/196/31 32/197/31 30/198/31
f 30/198/31 28/199/31 26/200/31
f 26/200/31 24/201/31 22/63/31
f 22/63/31 20/202/31 18/203/31
f 18/203/31 16/204/31 14/205/31
f 14/205/31 12/206/31 10/207/31
f 10/207/31 8/208/31 6/64/31
f 6/64/31 2/181/31 62/183/31
f 62/183/31 58/185/31 54/187/31
f 54/187/31 50/189/31 46/191/31
f 46/191/31 42/193/31 38/62/31
f 38/62/31 34/196/31 30/198/31
f 30/198/31 26/200/31 22/63/31
f 22/63/31 18/203/31 14/205/31
f 14/205/31 10/207/31 6/64/31
f 6/64/31 62/183/31 54/187/31
f 54/187/31 46/191/31 38/62/31
f 38/62/31 30/198/31 22/63/31
f 22/63/31 14/205/31 6/64/31
f 6/64/31 54/187/31 38/62/31
f 62/65/32 64/67/32 63/66/32
f 64/67/33 2/209/33 1/68/33
f 63/71/34 1/210/34 3/211/34
f 3/211/34 5/212/34 7/213/34
f 7/213/34 9/214/34 11/215/34
f 11/215/34 13/216/34 15/217/34
f 15/217/34 17/218/34 19/219/34
f 19/219/34 21/220/34 23/221/34
f 23/221/34 25/222/34 27/223/34
f 27/223/34 29/224/34 31/69/34
f 31/69/34 33/225/34 35/226/34
f 35/226/34 37/227/34 39/228/34
f 39/228/34 41/229/34 43/230/34
f 43/230/34 45/231/34 47/70/34
f 47/70/34 49/232/34 51/233/34
f 51/233/34 53/234/34 55/235/34
f 55/235/34 57/236/34 59/237/34
f 59/237/34 61/238/34 63/71/34
f 63/71/34 3/211/34 7/213/34
f 7/213/34 11/215/34 15/217/34
f 15/217/34 19/219/34 23/221/34
f 23/221/34 27/223/34 31/69/34
f 31/69/34 35/226/34 39/228/34
f 39/228/34 43/230/34 47/70/34
f 47/70/34 51/233/34 55/235/34
f 55/235/34 59/237/34 63/71/34
f 63/71/34 7/213/34 15/217/34
f 15/217/34 23/221/34 31/69/34
f 31/69/34 39/228/34 47/70/34
f 47/70/34 55/235/34 63/71/34
f 63/71/34 15/217/34 31/69/34
f 96/106/34 65/239/34 66/240/34
f 66/240/34 67/241/34 68/242/34
f 68/242/34 69/243/34 70/244/34
f 70/244/34 71/245/34 72/246/34
f 72/246/34 73/247/34 74/248/34
f 74/248/34 75/249/34 76/250/34
f 76/250/34 77/251/34 78/252/34
f 78/252/34 79/253/34 80/104/34
f 80/104/34 81/254/34 82/255/34
f 82/255/34 83/256/34 84/257/34
f 84/257/34 85/258/34 86/259/34
f 86/259/34 87/260/34 88/105/34
f 88/105/34 89/261/34 90/262/34
f 90/262/34 91/263/34 92/264/34
f 92/264/34 93/265/34 94/266/34
f 94/266/34 95/267/34 96/106/34
f 96/106/34 66/240/34 68/242/34
f 68/242/34 70/244/34 72/246/34
f 72/246/34 74/248/34 76/250/34
f 76/250/34 78/252/34 80/104/34
f 80/104/34 82/255/34 84/257/34
f 84/257/34 86/259/34 88/105/34
f 88/105/34 90/262/34 92/264/34
f 92/264/34 94/266/34 96/106/34
f 96/106/34 68/242/34 72/246/34
f 72/246/34 76/250/34 80/104/34
f 80/104/34 84/257/34 88/105/34
f 88/105/34 92/264/34 96/106/34
f 96/106/34 72/246/34 80/104/34
f 129/142/34 98/268/34 99/269/34
f 99/269/34 100/270/34 101/271/34
f 101/271/34 102/272/34 103/273/34
f 103/273/34 104/274/34 105/275/34
f 105/275/34 106/276/34 107/277/34
f 107/277/34 108/278/34 109/279/34
f 109/279/34 110/280/34 111/281/34
f 111/281/34 112/282/34 113/140/34
f 113/140/34 114/283/34 115/284/34
f 115/284/34 116/285/34 117/286/34
f 117/286/34 118/287/34 119/288/34
f 119/288/34 120/289/34 121/141/34
f 121/141/34 122/290/34 123/291/34
f 123/291/34 124/292/34 125/293/34
f 125/293/34 126/294/34 127/295/34
f 127/295/34 128/296/34 129/142/34
f 129/142/34 99/269/34 101/271/34
f 101/271/34 103/273/34 105/275/34
f 105/275/34 107/277/34 109/279/34
f 109/279/34 111/281/34 113/140/34
f 113/140/34 115/284/34 117/286/34
f 117/286/34 119/288/34 121/141/34
f 121/141/34 123/291/34 125/293/34
f 125/293/34 127/295/34 129/142/34
f 129/142/34 101/271/34 105/275/34
f 105/275/34 109/279/34 113/140/34
f 113/140/34 117/286/34 121/141/34
f 121/141/34 125/293/34 129/142/34
f 129/142/34 105/275/34 113/140/34
f 162/178/34 131/297/34 132/298/34
f 132/298/34 133/299/34 134/300/34
f 134/300/34 135/301/34 136/302/34
f 136/302/34 137/303/34 138/304/34
f 138/304/34 139/305/34 140/306/34
f 140/306/34 141/307/34 142/308/34
f 142/308/34 143/309/34 144/310/34
f 144/310/34 145/311/34 146/176/34
f 146/176/34 147/312/34 148/313/34
f 148/313/34 149/314/34 150/315/34
f 150/315/34 151/316/34 152/317/34
f 152/317/34 153/318/34 154/177/34
f 154/177/34 155/319/34 156/320/34
f 156/320/34 157/321/34 158/322/34
f 158/322/34 159/323/34 160/324/34
f 160/324/34 161/325/34 162/178/34
f 162/178/34 132/298/34 134/300/34
f 134/300/34 136/302/34 138/304/34
f 138/304/34 140/306/34 142/308/34
f 142/308/34 144/310/34 146/176/34
f 146/176/34 148/313/34 150/315/34
f 150/315/34 152/317/34 154/177/34
f 154/177/34 156/320/34 158/322/34
f 158/322/34 160/324/34 162/178/34
f 162/178/34 134/300/34 138/304/34
f 138/304/34 142/308/34 146/176/34
f 146/176/34 150/315/34 154/177/34
f 154/177/34 158/322/34 162/178/34
f 162/178/34 138/304/34 146/176/34
